<?xml version="1.0" encoding="UTF-8"?><svg id="_Слой_2" xmlns="http://www.w3.org/2000/svg" viewBox="0 0 1929 123.64"><defs><style>.cls-1{fill:#2fbedb;}</style></defs><g id="_Слой_1-2"><g><path class="cls-1" d="m45.64,62.64H0v4h73.3v21.6h-9.2v12.7h13.3v-8.8h21.1v30.9l31.39-29.51,35.11,30.11,35.06-30.06,31.44,29.46v-30.9h21.1v8.8h13.3v-12.7h-9.2v-21.5h31.4l-.09-.1h52.09v21.6h-9.2v12.7h13.2v-8.8h21.2v30.9l31.44-29.46,35.06,30.06,35.06-30.06,31.44,29.46h.1v-30.9h21.1v8.8h13.3v-12.7h-9.3v-21.5h31.4l-.09-.1h51.69v21.6h-9.2v12.7h13.2v-8.8h21.2v30.9l31.44-29.46,35.06,30.06,35.06-30.06,31.44,29.46h.1v-30.9h21v8.8h13.3v-12.7h-9.2v-21.5h31.4l-.09-.1h56.29v21.6h-9.2v12.7h13.2v-8.8h21.1v30.9l31.44-29.46,35.06,30.06,35.11-30.11,31.49,29.51h.1v-30.9h21v8.8h13.3v-12.7h-9.3v-21.5h31.5l-.09-.1h49.79v21.6h-9.2v12.7h13.2v-8.8h21.2v30.9l31.44-29.46,35.06,30.06,35.06-30.06,31.44,29.46h.1v-30.9h21v8.8h13.3v-12.7h-9.2v-21.5h31.4l-.09-.1h53.09v21.6h-9.3v12.7h13.2v-8.8h21.2v30.9l31.49-29.51,35.11,30.11,35.06-30.06,31.44,29.46h.1v-30.9h21v8.8h13.3v-12.7h-9.3v-21.5h31.5l-.09-.1h49.79v21.6h-9.2v12.7h13.2v-8.8h21.2v30.9l31.44-29.46,35.06,30.06,35.11-30.11,31.49,29.51h.1v-30.9h20.9v8.8h13.3v-12.7h-9.2v-21.5h31.5l-.09-.1h39.89v-4h-43.63l-25.68-27.5L1889.6.04l-.04-.04h-5.2l.04.04-28.3,33.2h-40.7l-23.93-27.4h.13l-5.06-5.84h-5.4l-.04.04,1.66,1.9h-11.96l31.2,31.2h-2.8v2l-31.5-31.4v12.29l-1.7-1.49-1.4,1.23V4.14l-31.7,31.8v-2.8h-2.1s31-31,31-31h-12.1l1.7-2-.04-.05.04-.05-.04-.04h-5.21l-5.15,5.94h.17l-23.21,27.23-40.77.07L1648.2.04l.04-.04h-5.3l-.04.04,30.11,34.47-26.28,28.13h-25.97l-25.63-27.44L1625.1.04l-.04-.04h-5.2l.04.04-28.3,33.2h-40.7l-23.93-27.4h.13l-5.06-5.84h-5.49l1.65,1.94h-12l31.2,31.2h-2.8v2l-31.5-31.4v12.21l-1.6-1.41-.65.57-.85.73V4.14l-31.7,31.8v-2.8h-2.1s31-31,31-31h-12.1l1.7-2-.04-.05.04-.05-.04-.04h-5.2l.04.04-.8.94-4.3,4.96h.07l-23.21,27.23-40.77.07L1383.6.04l.04-.04h-5.3l-.04.04,30.11,34.47-26.28,28.13h-29.17l-25.63-27.44L1357.3.04l-.04-.04h-5.2l.04.04-28.3,33.2h-40.7l-23.93-27.4h.13l-5.06-5.84h-5.4l-.04.04,1.66,1.9h-11.96l31.2,31.2h-2.8v.1h0v1.9l-31.5-31.4v12.29l-1.7-1.49-1.4,1.23V4.14l-31.7,31.8v-2.8h-2.1s31-31,31-31h-12.1l1.7-2-.12-.14h-5.13l-5.15,5.94h.17l-23.21,27.23-40.77.07L1115.9.04l.04-.04h-5.39l30.16,34.51-26.28,28.13h-25.97l-25.63-27.44L1092.8.04l-.04-.04h-5.2l.04.04-28.3,33.2h-40.7l-23.93-27.4h.03l-5.06-5.84h-5.39l1.65,1.94h-12l31.2,31.2h-2.8v2l-31.5-31.4v12.29l-1.7-1.49-1.4,1.23V4.14l-31.7,31.8v-2.8h-2.1s31-31,31-31h-12.1l1.7-2-.04-.05.04-.05-.04-.04h-5.21l-5.15,5.94h.17l-23.21,27.23-40.77.07L851.3.04l.04-.04h-5.3l-.04.04,30.11,34.47-26.28,28.13h-32.37l-25.63-27.44L821.8.04l-.04-.04h-5.2l.04.04-28.3,33.2h-40.7l-23.93-27.4h.13l-5.06-5.84h-5.4l-.04.04,1.66,1.9h-11.96l31.2,31.2h-2.8v2l-31.5-31.4v12.29l-1.7-1.49-1.4,1.23V4.14l-31.7,31.8v-2.8h-2.1s31-31,31-31h-12.1l1.7-2-.04-.05.04-.05-.04-.04h-5.21l-5.15,5.94h.17l-23.21,27.23-40.77.07L580.4.04l.04-.04h-5.3l-.04.04,30.11,34.47-26.28,28.13h-27.87l-25.63-27.44L555.4.04l-.04-.04h-5.2l.04.04-28.3,33.2h-40.7l-23.93-27.4h.13l-5.06-5.84h-5.4l-.04.04,1.66,1.9h-11.96l31.2,31.2h-2.8v2l-31.5-31.4v12.29l-1.7-1.49-1.4,1.23V4.14l-31.7,31.8v-2.8h-2.1s31-31,31-31h-12.1l1.7-2-.04-.05.04-.05-.04-.04h-5.21l-5.15,5.94h.17l-23.21,27.23-40.77.07L314,.04l.04-.04h-5.3l-.04.04,30.11,34.47-26.28,28.13h-28.27l-25.63-27.44L288.6.04l-.04-.04h-5.2l.04.04-28.3,33.2h-40.7l-23.93-27.4h.13l-5.06-5.84h-5.4l-.04.04,1.66,1.9h-11.96l31.2,31.2h-2.8v2l-31.5-31.4v12.29l-1.7-1.49-1.4,1.23V4.14l-31.8,31.9v-2.9h-2s31-31,31-31h-12.1l1.7-2-.12-.14h-5.13l-5.15,5.94h.17l-23.21,27.23-40.77.07L47.2.04l.04-.04h-5.39l30.12,34.46-26.33,28.19Zm294.46,34.3h-5.2v-4.7h5.2v4.7Zm266.4,0h-5.2v-4.7h5.2v4.7Zm270.9,0h-5.2v-4.7h5.2v4.7Zm264.6,0h-5.2v-4.7h5.2v4.7Zm267.7,0h-5.2v-4.7h5.2v4.7Zm264.6,0h-5.2v-4.7h5.2v4.7Zm179.4-8.8h-20.6v-21.1h20.6v21.1Zm9.3,4.1v4.7h-5.3v-4.7h5.3Zm-6.9-54.9l23.7,25.4h-51.3v51.1l-25.3-23.7h0v-52.9l52.9.1Zm-75.6-31.5h5.67l23.95,27.42h-2.21s-27.41-27.42-27.41-27.42Zm-8.8,7.4l27.6,27.51v3.06l-27.6-24.26v-6.31Zm-38.8,28.27l27.7-27.87v5.65l-27.7,24.35v-2.12Zm0,7.44l33.1-29.11,33.2,29.2v40.9l-33.2,28.5-33.1-28.41v-41.07Zm-34,39.19h-20.6v-21.1h20.6v21.1Zm47.47-82.2h5.83l-27.21,27.21h-1.81s23.19-27.21,23.19-27.21Zm-70.47,31.4l52.9-.1v52.9l-25.3,23.7v-51.1h-45.8v-.1h-5.41l23.61-25.3Zm-86.7,50.8h-20.6v-21.1h20.6v21.1Zm9.2,4.1v4.7h-5.3v-4.7h5.3Zm-6.8-54.9l23.61,25.3h-4.91v.1h-46.3v51.1l-25.3-23.7h0v-52.9l52.9.1Zm-75.6-31.5h5.67l23.95,27.42h-2.21s-27.41-27.42-27.41-27.42Zm-8.8,7.4l27.5,27.41v3.07l-27.5-24.17v-6.31Zm-5.7,6.6l33.2,29.2v40.9l-33.2,28.5-33.2-28.5v-40.9l33.2-29.2Zm-33.2,21.78l27.8-27.98v5.65l-27.8,24.44v-2.11Zm-33.9,46.53h-20.6v-21.1h20.6v21.1Zm47.37-82.2h5.93l-27.21,27.21h-1.91s23.19-27.21,23.19-27.21Zm-70.47,31.4l52.9-.1v52.9l-25.3,23.7v-51.1h-48.2v-.1h-3.01l23.61-25.3Zm-89.9,50.8h-20.6v-21.1h20.6v21.1Zm9.3,4.1v4.7h-5.3v-4.7h5.3Zm-6.9-54.9l23.61,25.3h-4.11v.1h-47.1v51.1l-25.3-23.7h0v-52.9l52.9.1Zm-75.6-31.5h5.67l23.95,27.42h-2.21s-27.41-27.42-27.41-27.42Zm-8.8,7.4l27.5,27.41v3.07l-27.5-24.17v-6.31Zm-38.8,28.27l27.7-27.87v5.65l-27.7,24.35v-2.12Zm0,7.44l33.1-29.11,33.2,29.2v40.9l-33.2,28.5-33.1-28.41v-41.07Zm-34,39.19h-20.6v-21.1h20.6v21.1Zm47.32-82.2h5.98l-27.21,27.21h-1.83s23.06-27.21,23.06-27.21Zm-70.42,31.4l52.9-.1v52.9l-25.3,23.7v-51.1h-40.9v-.1h-10.31l23.61-25.3Zm-86.7,50.8h-20.6v-21.1h20.6v21.1Zm9.3,4.1v4.7h-5.3v-4.7h5.3Zm-6.9-54.9l23.61,25.3h0v.1h-51.2v51.1l-25.3-23.7h0v-45.5h0s0-7.4,0-7.4l52.9.1Zm-75.6-31.5h5.77l23.95,27.42h-2.31s-27.41-27.42-27.41-27.42Zm-8.8,7.4l27.6,27.51v3.06l-27.6-24.26v-6.31Zm-38.8,28.27l27.7-27.87v5.65l-27.7,24.35v-2.12Zm0,7.44l33.1-29.11,33.2,29.2v40.9l-33.2,28.5-33.1-28.41v-41.07Zm-33.9,39.19h-20.6v-21.1h20.6v21.1Zm47.37-82.2h5.83l-27.21,27.21h-1.81s23.19-27.21,23.19-27.21Zm-70.47,31.4l52.9-.1v52.9l-25.3,23.7v-51.1h-45.2v-.1h-6.01l23.61-25.3Zm-93.1,50.8h-20.6v-21.1h20.6v21.1Zm9.3,4.1v4.7h-5.3v-4.7h5.3Zm-6.9-54.9l23.7,25.4h-51.3v51.1l-25.3-23.7v-42.9h0v-2.6h0s0-7.4,0-7.4l52.9.1Zm-75.6-31.5h5.67l23.95,27.42h-2.21s-27.41-27.42-27.41-27.42Zm-8.8,7.4l27.5,27.41v3.07l-27.5-24.17v-6.31Zm-38.8,28.27l27.7-27.87v5.65l-27.7,24.35v-2.12Zm0,7.44l33.1-29.11,33.2,29.2v40.9l-33.2,28.5-33.1-28.41v-41.07Zm-34,39.19h-20.6v-21.1h20.6v21.1Zm47.47-82.2h5.83l-27.21,27.21h-1.81s23.19-27.21,23.19-27.21Zm-70.57,31.4l52.9-.1v52.9l-25.3,23.7v-51.1h-45.9v-.1h-5.31l23.61-25.3Zm-88.5,50.8h-20.6v-21.1h20.6v21.1Zm9.3,4.1v4.7h-5.3v-4.7h5.3Zm-6.9-54.9l23.61,25.3h-3.21v.1h-48v51.1l-25.3-23.7v-52.9l52.9.1Zm-75.6-31.5h5.67l23.95,27.42h-2.21s-27.41-27.42-27.41-27.42Zm-8.8,7.4l27.5,27.41v3.07l-27.5-24.17v-6.31Zm-38.8,28.27l27.7-27.87v5.65l-27.7,24.35v-2.12Zm0,7.44l33.1-29.11,33.2,29.2v40.9l-33.2,28.5-33.1-28.41v-41.07Zm-34,39.19h-20.6v-21.1h20.6v21.1ZM412.17,5.94h5.83l-27.21,27.21h-1.81s23.19-27.21,23.19-27.21Zm-70.57,31.4l52.9-.1v52.9l-25.3,23.7v-51.1h-46.9v-.1h-4.31l23.61-25.3Zm-88.9,50.8h-20.6v-21.1h20.6v21.1Zm9.3,4.1v4.7h-5.3v-4.7h5.3Zm-6.9-54.9l23.61,25.3h-3.81v.1h-47.4v51.1l-25.3-23.7v-52.9l52.9.1ZM179.5,5.84h5.67l23.95,27.42h-2.21s-27.41-27.42-27.41-27.42Zm-8.8,7.4l27.5,27.41v3.07l-27.5-24.17v-6.31Zm-38.9,28.38l27.8-27.97v5.65l-27.8,24.44v-2.11Zm0,7.43l33.2-29.2,33.2,29.2v40.9l-33.2,28.5-33.2-28.5v-40.9Zm-58.4,47.9h-5.3v-4.7h5.3v4.7Zm24.5-8.8h-20.6v-21.1h20.6v21.1ZM145.22,5.94h5.98l-27.21,27.21h-1.83s23.06-27.21,23.06-27.21Zm-17.42,31.3v52.9l-25.3,23.7v-51.1h-51.4l23.8-25.4,52.9-.1Z"/><path class="cls-1" d="m185.8,81.44v-24.2l-20.5-18-20.5,18v24.2l20.5,17.5,20.5-17.5Zm-37-22.4l16.5-14.5,16.5,14.5v20.6l-16.5,14.1-16.5-14.1v-20.6Z"/><polygon class="cls-1" points="222.8 20.74 247 20.74 264.5 .04 264.46 0 259.16 0 259.2 .04 245.1 16.74 224.5 16.74 210 .04 210.04 0 204.84 0 204.8 .04 222.8 20.74"/><polygon class="cls-1" points="108.2 20.24 125.48 0 120.28 0 106.4 16.24 85.8 16.24 71.53 0 66.23 0 84 20.24 108.2 20.24"/><path class="cls-1" d="m452.6,81.44v-24.2l-20.5-18-20.5,18v24.2l20.5,17.5,20.5-17.5Zm-37-22.4l16.5-14.5,16.5,14.5v20.6l-16.5,14.1-16.5-14.1v-20.6Z"/><polygon class="cls-1" points="489.5 20.74 513.8 20.74 531.2 .04 531.16 0 526.06 0 526.1 .04 512 16.74 491.4 16.74 476.9 .04 476.94 0 471.54 0 471.5 .04 489.5 20.74"/><polygon class="cls-1" points="375 20.24 392.28 0 387.08 0 373.2 16.24 352.6 16.24 338.33 0 333.03 0 350.8 20.24 375 20.24"/><path class="cls-1" d="m719,81.44v-24.2l-20.5-18-20.5,18v24.2l20.5,17.5,20.5-17.5Zm-37-22.4l16.5-14.5,16.5,14.5v20.6l-16.5,14.1-16.5-14.1v-20.6Z"/><polygon class="cls-1" points="756 20.74 780.2 20.74 797.7 .04 797.66 0 792.46 0 792.5 .04 778.4 16.74 757.8 16.74 743.3 .04 743.34 0 738.04 0 738 .04 756 20.74"/><polygon class="cls-1" points="641.4 20.24 658.68 0 653.48 0 639.6 16.24 619 16.24 604.73 0 599.43 0 617.2 20.24 641.4 20.24"/><path class="cls-1" d="m989.9,81.44v-24.2l-20.5-18-20.5,18v24.2l20.5,17.5,20.5-17.5Zm-37-22.4l16.5-14.5,16.5,14.5v20.6l-16.5,14.1-16.5-14.1v-20.6Z"/><polygon class="cls-1" points="1026.9 20.74 1051.1 20.74 1068.6 .04 1068.56 0 1063.36 0 1063.4 .04 1049.3 16.74 1028.7 16.74 1014.2 .04 1014.24 0 1008.94 0 1008.9 .04 1026.9 20.74"/><polygon class="cls-1" points="912.4 20.24 929.68 0 924.38 0 910.5 16.24 889.9 16.24 875.63 0 870.43 0 888.2 20.24 912.4 20.24"/><path class="cls-1" d="m1254.5,81.44v-24.2l-20.5-18-20.5,18v24.2l20.5,17.5,20.5-17.5Zm-37-22.4l16.5-14.5,16.5,14.5v20.6l-16.5,14.1-16.5-14.1v-20.6Z"/><polygon class="cls-1" points="1291.5 20.74 1315.7 20.74 1333.2 .04 1333.16 0 1327.96 0 1328 .04 1313.9 16.74 1293.3 16.74 1278.8 .04 1278.84 0 1273.54 0 1273.5 .04 1291.5 20.74"/><polygon class="cls-1" points="1176.9 20.24 1194.18 0 1188.98 0 1175.1 16.24 1154.5 16.24 1140.23 0 1134.93 0 1152.7 20.24 1176.9 20.24"/><path class="cls-1" d="m1522.2,81.44v-24.2l-20.5-18-20.5,18v24.2l20.5,17.5,20.5-17.5Zm-37-22.4l16.5-14.5,16.5,14.5v20.6l-16.5,14.1-16.5-14.1v-20.6Z"/><polygon class="cls-1" points="1559.2 20.74 1583.4 20.74 1600.9 .04 1600.86 0 1595.66 0 1595.7 .04 1581.6 16.74 1561 16.74 1546.5 .04 1546.54 0 1541.24 0 1541.2 .04 1559.2 20.74"/><polygon class="cls-1" points="1444.7 20.24 1461.98 0 1456.68 0 1442.8 16.24 1422.2 16.24 1407.93 0 1402.73 0 1420.5 20.24 1444.7 20.24"/><path class="cls-1" d="m1786.8,81.44v-24.2l-20.5-18-20.5,18v24.2l20.5,17.5,20.5-17.5Zm-37-22.4l16.5-14.5,16.5,14.5v20.6l-16.5,14.1-16.5-14.1v-20.6Z"/><polygon class="cls-1" points="1823.8 20.74 1848 20.74 1865.5 .04 1865.46 0 1860.26 0 1860.3 .04 1846.2 16.74 1825.6 16.74 1811.1 .04 1811.14 0 1805.84 0 1805.8 .04 1823.8 20.74"/><polygon class="cls-1" points="1709.2 20.24 1726.48 0 1721.28 0 1707.4 16.24 1686.8 16.24 1672.53 0 1667.23 0 1685 20.24 1709.2 20.24"/><path class="cls-1" d="m298.3,58.54l23.5-23.5-23.5-23.5-23.5,23.5,23.5,23.5Zm17.7-23.5l-17.8,17.8-17.8-17.8,17.8-17.8,17.8,17.8Z"/><path class="cls-1" d="m51.2,35.04L27.7,11.54,4.2,35.04l23.5,23.5,23.5-23.5Zm-41.4,0l17.9-17.8,17.8,17.8-17.9,17.8-17.8-17.8Z"/><path class="cls-1" d="m566,58.54l23.5-23.5-23.5-23.5-23.5,23.5,23.5,23.5Zm17.8-23.5l-17.8,17.8-17.8-17.8,17.8-17.8,17.8,17.8Z"/><path class="cls-1" d="m834.7,58.54l23.5-23.5-23.5-23.5-23.5,23.5,23.5,23.5Zm17.7-23.5l-17.8,17.8-17.8-17.8,17.8-17.8,17.8,17.8Z"/><path class="cls-1" d="m1102.1,58.54l23.5-23.5-23.5-23.5-23.5,23.5,23.5,23.5Zm0-41.3l17.8,17.8-17.8,17.8-17.8-17.8,17.8-17.8Z"/><path class="cls-1" d="m1368.5,58.54l23.5-23.5-23.5-23.5-23.5,23.5,23.5,23.5Zm17.8-23.5l-17.8,17.8-17.8-17.8,17.8-17.8,17.8,17.8Z"/><path class="cls-1" d="m1634,58.54l23.5-23.5-23.5-23.5-23.5,23.5,23.5,23.5Zm17.8-23.5l-17.8,17.8-17.8-17.8,17.8-17.8,17.8,17.8Z"/><path class="cls-1" d="m1878.8,35.04l23.5,23.5,23.5-23.5-23.5-23.5-23.5,23.5Zm23.5,17.8l-17.8-17.8,17.8-17.8,17.8,17.8-17.8,17.8Z"/></g></g></svg>