<?xml version="1.0" encoding="UTF-8"?><svg id="_Слой_2" xmlns="http://www.w3.org/2000/svg" viewBox="0 0 375 49.07"><defs><style>.cls-1{fill:none;}.cls-2{fill:#2fbedb;}</style></defs><g id="_Слой_1-2"><g><polygon class="cls-1" points="51.21 6.71 45.53 .17 64.93 .17 59.4 6.71 51.21 6.71"/><polygon class="cls-1" points="294.1 20.64 287.01 13.58 294.1 6.51 301.2 13.58 294.1 20.64"/><polygon class="cls-1" points="33.51 .06 33.5 .06 33.6 .17 21.61 .17 21.7 .06 21.65 0 33.56 0 33.5 .06 33.51 .06"/><polygon class="cls-1" points="29.18 .65 41.77 13.22 40.72 13.22 40.72 13.22 40.72 13.22 40.72 13.93 28.33 1.78 28.33 6.55 27.5 5.83 26.95 6.31 26.95 1.73 14.3 14.3 14.28 13.56 14.28 13.22 14.28 13.22 14.28 13.22 13.61 13.22 13.28 13.2 26.1 .65 21.19 .65 21.61 .17 33.6 .17 34.02 .65 29.18 .65"/><polygon class="cls-1" points="80.56 20.64 73.46 13.58 80.56 6.51 87.65 13.58 80.56 20.64"/><polygon class="cls-1" points="43.43 .17 35.72 .17 35.62 .06 35.67 0 43.38 0 43.33 .06 43.43 .17"/><polygon class="cls-1" points="74.54 .17 67.01 .17 67.11 .06 67.06 0 74.58 0 74.64 .06 74.54 .17"/><polygon class="cls-1" points="47.18 13.22 37.53 2.24 37.54 2.24 35.72 .17 43.43 .17 50.48 8.29 60.14 8.29 67.01 .17 74.54 .17 63.36 13.22 47.18 13.22"/><polygon class="cls-1" points="187.15 20.64 180.06 13.58 187.15 6.51 194.24 13.58 187.15 20.64"/><polygon class="cls-1" points="139.72 .06 139.72 .06 139.82 .17 127.82 .17 127.91 .07 127.91 .07 127.92 .06 127.87 0 139.77 0 139.72 .06 139.72 .06"/><polygon class="cls-1" points="135.39 .65 147.98 13.22 146.94 13.22 146.94 13.94 134.54 1.78 134.54 6.55 133.71 5.83 133.16 6.31 133.16 1.73 120.51 14.3 120.5 13.71 120.5 13.22 120.5 13.22 120.5 13.22 119.82 13.22 119.49 13.2 132.32 .65 127.41 .65 127.82 .17 139.82 .17 140.24 .65 135.39 .65"/><polygon class="cls-2" points="60.14 8.29 50.48 8.29 43.43 .17 45.53 .17 51.21 6.71 59.4 6.71 64.93 .17 67.01 .17 60.14 8.29"/><polygon class="cls-2" points="0 8.29 0 6.7 4.16 6.7 9.77 .17 11.87 .17 4.89 8.29 0 8.29"/><polygon class="cls-2" points="166.36 8.29 156.7 8.29 149.64 .17 151.75 .17 157.43 6.71 165.61 6.71 171.15 .17 173.23 .17 166.36 8.29"/><polygon class="cls-2" points="111.11 8.29 101.46 8.29 94.31 .17 96.43 .17 102.18 6.7 110.38 6.7 115.99 .17 118.09 .17 111.11 8.29"/><polygon class="cls-2" points="272.42 8.29 262.76 8.29 255.7 .17 257.81 .17 263.49 6.71 271.67 6.71 277.21 .17 279.29 .17 272.42 8.29"/><polygon class="cls-2" points="217.17 8.29 207.52 8.29 200.37 .17 202.49 .17 208.24 6.7 216.44 6.7 222.05 .17 224.14 .17 217.17 8.29"/><path class="cls-2" d="m89.91,13.58l-9.35-9.3-9.35,9.3,9.35,9.3,9.35-9.3Zm-9.35-7.06l7.09,7.06-7.09,7.06-7.09-7.06,7.09-7.06Z"/><path class="cls-2" d="m196.5,13.58l-9.35-9.3-9.35,9.3,9.35,9.3,9.35-9.3Zm-9.35-7.06l7.09,7.06-7.09,7.06-7.1-7.06,7.1-7.06Z"/><path class="cls-2" d="m303.45,13.58l-9.35-9.3-9.35,9.3,9.35,9.3,9.35-9.3Zm-9.35-7.06l7.1,7.06-7.1,7.06-7.09-7.06,7.09-7.06Z"/><polygon class="cls-1" points="97.22 36.59 97.22 38.67 95.13 38.67 95.13 36.59 97.22 36.59 97.22 36.59"/><polygon class="cls-1" points="131.57 7.71 120.5 17.4 120.5 16.56 131.57 5.56 131.57 7.71"/><polygon class="cls-1" points="136.14 5.57 146.94 16.17 146.94 17.39 136.14 7.95 136.14 5.57"/><polygon class="cls-1" points="116.63 13.23 126.05 2.25 128.42 2.25 117.19 13.23 116.63 13.23"/><polygon class="cls-1" points="97.83 14.86 118.91 14.81 118.91 18.79 118.91 35.76 108.82 45.17 108.82 36.59 108.82 24.94 108.82 24.91 90.14 24.91 90.14 24.91 88.4 24.91 97.84 14.86 97.83 14.86"/><path class="cls-1" d="m131.57,9.82l-11.07,9.68v16.21l13.21,11.27,13.22-11.27v-16.21l-13.22-11.56-2.15,1.88h0Zm-5.91,12.91l8.17-7.12,8.16,7.12v9.6l-8.16,6.96-8.17-6.96v-9.6Z"/><polygon class="cls-1" points="140.39 23.45 140.39 31.61 133.83 37.21 127.25 31.61 127.25 23.45 133.83 17.72 140.39 23.45"/><path class="cls-2" d="m133.83,15.61l-8.17,7.12v9.6l8.17,6.96,8.16-6.96v-9.6l-8.16-7.12Zm-6.57,7.84l6.57-5.73,6.57,5.73v8.16l-6.57,5.6-6.57-5.6v-8.16Z"/><polygon class="cls-1" points="213.29 35.01 204.87 35.01 204.87 35.01 204.87 26.52 213.29 26.52 213.29 35.01"/><polygon class="cls-1" points="179.04 24.91 177.71 24.91 177.71 24.91 158.62 24.91 158.62 45.17 148.53 35.76 148.53 17.73 148.53 14.81 169.6 14.86 179.04 24.91"/><polygon class="cls-1" points="168.63 35.01 168.63 35.01 160.24 35.01 160.24 26.5 168.63 26.5 168.63 35.01"/><polygon class="cls-1" points="139.24 2.24 141.64 2.24 151.29 13.23 150.24 13.23 139.24 2.24"/><polygon class="cls-1" points="203.89 14.86 224.97 14.81 224.97 18.79 224.97 35.76 214.88 45.17 214.88 36.59 214.88 24.94 214.88 24.91 196.59 24.91 196.59 24.91 194.46 24.91 203.89 14.86 203.89 14.86"/><polygon class="cls-1" points="10.98 13.23 10.41 13.23 19.83 2.25 22.21 2.25 10.98 13.23"/><rect class="cls-1" x="64" y="36.59" width="2.09" height="2.08"/><rect class="cls-1" x="170.22" y="36.59" width="2.09" height="2.08"/><rect class="cls-1" x="276.28" y="36.59" width="2.09" height="2.08"/><polygon class="cls-1" points="25.35 7.71 14.28 17.4 14.28 16.56 25.35 5.56 25.35 7.71"/><path class="cls-1" d="m25.35,9.82l-11.07,9.68v16.21l13.21,11.27,13.22-11.27v-16.21l-13.22-11.56-2.15,1.88h0Zm-5.91,12.91l8.17-7.12,8.16,7.12v9.6l-8.16,6.96-8.17-6.96v-9.6Z"/><polygon class="cls-1" points="34.17 23.45 34.17 31.61 27.61 37.21 21.04 31.61 21.04 23.45 27.61 17.72 34.17 23.45"/><path class="cls-2" d="m27.61,15.61l-8.17,7.12v9.6l8.17,6.96,8.16-6.96v-9.6l-8.16-7.12Zm-6.57,7.84l6.57-5.73,6.56,5.73v8.16l-6.56,5.6-6.57-5.6v-8.16Z"/><polygon class="cls-1" points="42.31 14.81 63.38 14.86 72.83 24.91 71.25 24.91 71.25 24.91 52.4 24.91 52.4 45.17 42.31 35.76 42.31 35.76 42.31 17.73 42.31 17.73 42.31 14.81"/><polygon class="cls-1" points="33.02 2.24 35.42 2.24 45.07 13.23 44.02 13.23 33.02 2.24"/><polygon class="cls-1" points="107.23 35.01 98.82 35.01 98.82 35.01 98.82 26.52 107.23 26.52 107.23 35.01"/><polygon class="cls-1" points="29.92 5.57 40.72 16.16 40.72 17.39 29.92 7.95 29.92 5.57"/><rect class="cls-1" x="54.02" y="26.5" width="8.38" height="8.51"/><polygon class="cls-1" points="203.28 36.59 203.28 38.67 201.19 38.67 201.19 36.59 203.28 36.59 203.28 36.59"/><polygon class="cls-1" points="285.11 24.91 264.68 24.91 264.68 45.17 254.6 35.76 254.59 35.76 254.59 17.73 254.59 14.81 275.66 14.86 285.11 24.91"/><polygon class="cls-1" points="311.15 36.59 311.15 38.67 309.06 38.67 309.06 36.59 311.15 36.59 311.15 36.59"/><polygon class="cls-1" points="245.3 2.24 247.7 2.24 257.34 13.23 256.3 13.23 245.3 2.24"/><polygon class="cls-1" points="274.68 35.01 274.68 35.01 266.3 35.01 266.3 26.5 274.68 26.5 274.68 35.01"/><polygon class="cls-1" points="222.69 13.23 232.1 2.25 234.48 2.25 223.25 13.23 222.69 13.23"/><polygon class="cls-1" points="237.63 7.71 226.56 17.4 226.56 16.56 237.63 5.56 237.63 7.71"/><path class="cls-1" d="m237.63,9.82l-11.07,9.68v16.21l13.21,11.27,13.22-11.27v-16.21l-13.22-11.56-2.15,1.88h0Zm-5.91,12.91l8.17-7.12,8.16,7.12v9.6l-8.16,6.96-8.17-6.96v-9.6Z"/><polygon class="cls-1" points="246.45 23.45 246.45 31.61 239.89 37.21 233.31 31.61 233.31 23.45 239.89 17.72 246.45 23.45"/><path class="cls-2" d="m239.89,15.61l-8.17,7.12v9.6l8.17,6.96,8.16-6.96v-9.6l-8.16-7.12Zm-6.57,7.84l6.57-5.73,6.57,5.73v8.16l-6.57,5.6-6.57-5.6v-8.16Z"/><polygon class="cls-1" points="242.2 5.57 253 16.17 253 17.39 242.2 7.95 242.2 5.57"/><polygon class="cls-1" points="311.76 14.86 332.84 14.81 332.84 18.79 332.84 35.76 322.75 45.17 322.75 36.59 322.75 36.59 322.75 24.94 322.75 24.94 322.75 24.91 304.77 24.91 304.77 24.91 302.33 24.91 311.76 14.86 311.76 14.86"/><polygon class="cls-1" points="354.32 23.45 354.32 31.61 347.76 37.21 341.18 31.61 341.18 23.45 347.76 17.72 354.32 23.45"/><polygon class="cls-1" points="350.06 5.57 360.87 16.17 360.87 17.39 350.06 7.95 350.06 5.57"/><path class="cls-1" d="m345.5,9.82l-11.07,9.68v16.21l13.21,11.27,13.22-11.27v-16.21l-11.92-10.42-1.3-1.14-2.15,1.88h0Zm-5.91,12.91l8.17-7.12,8.16,7.12v9.6l-8.16,6.96-8.17-6.96v-9.6Z"/><polygon class="cls-1" points="372.55 45.17 362.46 35.76 362.46 35.76 362.46 18.78 362.46 17.73 362.46 14.81 375 14.84 375 24.91 372.55 24.91 372.55 45.17"/><polygon class="cls-1" points="355.57 2.24 365.21 13.23 364.17 13.23 353.16 2.24 355.57 2.24"/><rect class="cls-1" x="374.17" y="26.5" width=".83" height="8.51"/><polygon class="cls-1" points="330.56 13.23 339.98 2.25 342.35 2.25 331.12 13.23 330.56 13.23"/><polygon class="cls-1" points="353.65 .06 353.65 .06 353.75 .17 341.75 .17 341.85 .06 341.8 0 353.7 0 353.65 .06 353.65 .06"/><polygon class="cls-1" points="349.32 .65 361.91 13.22 360.87 13.22 360.87 13.22 360.87 13.22 360.87 13.93 348.48 1.78 348.48 6.55 347.65 5.83 347.09 6.31 347.09 1.73 334.45 14.3 334.43 13.52 334.43 13.22 334.43 13.22 334.43 13.22 333.75 13.22 333.42 13.2 346.25 .65 341.34 .65 341.75 .17 353.75 .17 354.17 .65 349.32 .65"/><polygon class="cls-1" points="345.5 7.71 334.43 17.4 334.43 16.56 345.5 5.56 345.5 7.71"/><polygon class="cls-1" points="321.16 35.01 312.74 35.01 312.74 35.01 312.74 26.52 321.16 26.52 321.16 35.01"/><path class="cls-2" d="m347.76,15.61l-8.17,7.12v9.6l8.17,6.96,8.16-6.96v-9.6l-8.16-7.12Zm-6.57,7.84l6.57-5.73,6.57,5.73v8.16l-6.57,5.6-6.57-5.6v-8.16Z"/><polygon class="cls-2" points="363.57 .17 365.68 .17 371.36 6.71 375 6.71 375 8.29 370.63 8.29 363.57 .17"/><polygon class="cls-2" points="325.04 8.29 315.39 8.29 308.24 .17 310.36 .17 316.11 6.7 324.31 6.7 329.92 .17 332.01 .17 325.04 8.29"/><path class="cls-2" d="m21.61.17h-2.1l-11.18,13.04H0v1.62l12.69-.03v3.98h0v16.98l-10.08,9.41v-8.58h0v-11.66s-2.61-.03-2.61-.03v1.61h1.01v22.32l12.52-11.68,13.97,11.92,13.98-11.91,12.52,11.68v-12.24h8.41v3.67h5.28v-5.25h-3.68v-8.52h33.22v8.52h-3.68v5.25h5.28v-3.67h8.41v12.24l12.52-11.68,13.97,11.92,13.98-11.92,12.52,11.68v-12.24h8.41v3.67h5.28v-5.25h-3.68v-8.52h33.06v8.52h-3.68v5.25h5.28v-3.67h8.41v12.24l12.52-11.68,13.97,11.92,13.98-11.92,12.52,11.68v-12.24h8.41v3.67h5.27v-5.25h-3.68v-8.52h34.88v8.52h-3.68v5.25h5.28v-3.67h8.41v12.24l12.52-11.68,13.97,11.92,13.98-11.91,12.52,11.68v-12.24h.86v-1.59h-.83v-8.51h.83v-1.59h-2.45v20.26l-10.09-9.41h0V14.81l12.54.03v-1.62h-7.68l-9.64-10.98h0l-1.81-2.07h-2.12l.42.48h-4.85l12.59,12.56h-1.04s0,0,0,0v.71l-12.39-12.15v4.77l-.83-.73-.55.49V1.73l-12.65,12.57-.02-.78v-.3h-.67s-.33-.02-.33-.02l12.83-12.55h-4.91l.41-.48h-2.1l-11.18,13.04h-16.19L300.82.17h-2.11l11.92,13.57-10.48,11.17h-12.86l-10.23-10.9L288.91.17h-2.09l-11.18,13.04h-16.19l-9.64-10.98h0l-1.81-2.07h-2.12l.42.48h-4.85l12.59,12.56h-1.04v.72l-12.39-12.16v4.77l-.83-.73-.55.49V1.73l-12.65,12.57-.02-.62v-.47h-.68s-.33-.02-.33-.02l12.83-12.55h-4.91l.41-.48h-2.09l-11.18,13.04h-16.19L192.95.17h-2.11l11.92,13.57-10.48,11.17h-11.05l-10.23-10.9L182.86.17h-2.09l-11.18,13.04h-16.19l-9.64-10.98h0l-1.81-2.07h-2.12l.42.48h-4.85l12.59,12.56h-1.04v.72l-12.39-12.16v4.77l-.83-.73-.55.49V1.73l-12.65,12.57-.02-.59v-.49h-.68s-.33-.02-.33-.02l12.83-12.55h-4.91l.41-.48h-2.09l-11.18,13.04h-16.19L86.89.17h-2.11l11.92,13.57-10.48,11.17h-11.21l-10.23-10.9L76.64.17h-2.09l-11.18,13.04h-16.19l-9.64-10.98h0l-1.81-2.07h-2.12l.42.48h-4.85l12.59,12.56h-1.04s0,0,0,0v.71L28.33,1.78v4.77l-.83-.73-.55.49V1.73l-12.65,12.57-.02-.74v-.34h-.67s-.33-.02-.33-.02L26.1.65h-4.91l.41-.48Zm331.56,2.07h2.4l9.65,10.99h-1.05s-11-10.99-11-10.99Zm7.7,15.15l-10.8-9.44v-2.38l10.8,10.6v1.22Zm-26.44,2.11l11.07-9.68h0s2.15-1.88,2.15-1.88l1.3,1.14,11.92,10.42v16.21l-13.22,11.27-13.21-11.27v-16.21Zm0-2.94l11.07-11v2.15l-11.07,9.69v-.84Zm-3.3-3.33h-.56s9.42-10.98,9.42-10.98h2.38l-11.23,10.98Zm-18.38,13.3h8.41v8.49h-8.41v-8.49Zm-1.59,10.07h0v2.08h-2.09v-2.08h2.09Zm-8.83-11.69l9.44-10.05h0l21.08-.05v20.95l-10.09,9.41v-8.58h0v-11.66h0v-.03h-17.98s-2.44,0-2.44,0Zm-26.05,11.69h2.09v2.08h-2.09v-2.08Zm-18.93-23.37h-1.05s-11-10.99-11-10.99h2.4l9.65,10.99Zm8.96,13.27h8.38v8.51h0s-8.38,0-8.38,0v-8.51Zm-11.71-11.69l21.07.05,9.44,10.05h-20.42v20.26l-10.09-9.41h0V14.81Zm-1.59,2.59l-10.8-9.44v-2.38l10.8,10.6v1.23Zm-26.44,2.11l11.07-9.68h0s2.15-1.88,2.15-1.88l13.22,11.56v16.21l-13.22,11.27-13.21-11.27v-16.21Zm0-2.94l11.07-11v2.15l-11.07,9.69v-.84Zm-3.3-3.33h-.56s9.42-10.98,9.42-10.98h2.38l-11.23,10.98Zm-18.38,13.3h8.41v8.49h-8.41v-8.49Zm-1.59,10.07h0v2.08h-2.09v-2.08h2.09Zm-8.83-11.69l9.44-10.05h0l21.08-.05v20.95l-10.08,9.41v-20.26h-18.29s-2.14,0-2.14,0Zm-24.24,11.69h2.09v2.08h-2.09v-2.08Zm-18.93-23.37h-1.05s-11-10.99-11-10.99h2.4l9.65,10.99Zm8.96,13.27h8.39v8.51h0s-8.39,0-8.39,0v-8.51Zm-11.71-11.69l21.07.05,9.44,10.05h-1.34s-19.09,0-19.09,0v20.26l-10.09-9.41V14.81Zm-1.59,2.59l-10.8-9.44v-2.38l10.8,10.59v1.23Zm-26.44,2.11l11.07-9.68h0s2.15-1.88,2.15-1.88l13.22,11.56v16.21l-13.22,11.27-13.21-11.27v-16.21Zm0-2.94l11.07-11v2.15l-11.07,9.69v-.84Zm-3.3-3.33h-.56s9.42-10.98,9.42-10.98h2.38l-11.23,10.98Zm-18.38,13.3h8.41v8.49h-8.41v-8.49Zm-1.59,10.07h0v2.08h-2.09v-2.08h2.09Zm-8.83-11.69l9.44-10.05h0l21.08-.05v20.95l-10.09,9.41v-20.26h-18.69s-1.74,0-1.74,0Zm-24.4,11.69h2.09v2.08h-2.09v-2.08Zm-18.93-23.37h-1.05s-11-10.99-11-10.99h2.4l9.65,10.99Zm8.96,13.27h8.38v8.51h-8.38v-8.51Zm-11.71-8.77h0s0-2.92,0-2.92l21.07.05,9.44,10.05h-1.58s-18.85,0-18.85,0v20.26l-10.09-9.41h0v-18.04Zm-1.59-.33l-10.8-9.44v-2.38l10.8,10.59v1.23Zm-26.44,2.11l11.07-9.68h0s2.15-1.87,2.15-1.87l13.22,11.56v16.21l-13.22,11.27-13.21-11.27v-16.21Zm0-2.94l11.07-11v2.15l-11.07,9.69v-.84Zm5.55-14.31h2.38l-11.23,10.98h-.56S19.83,2.25,19.83,2.25Z"/></g></g></svg>