<?xml version="1.0" encoding="utf-8"?>
<!-- Generator: Adobe Illustrator 27.1.1, SVG Export Plug-In . SVG Version: 6.00 Build 0)  -->
<svg version="1.1" id="_Слой_2" xmlns="http://www.w3.org/2000/svg" xmlns:xlink="http://www.w3.org/1999/xlink" x="0px"
	 y="0px" viewBox="0 0 1929 123.6" style="enable-background:new 0 0 1929 123.6;" xml:space="preserve">
<style type="text/css">
	.st0{fill:#00C6E0;}
</style>
<g id="_Слой_1-2">
	<g>
		<path class="st0" d="M45.6,62.6H0v4h73.3v21.6h-9.2v12.7h13.3v-8.8h21.1V123l31.4-29.5l35.1,30.1l35.1-30.1l31.4,29.5V92.1h21.1
			v8.8h13.3V88.2h-9.2V66.7h31.4l-0.1-0.1h52.1v21.6h-9.2v12.7h13.2v-8.8h21.2V123l31.4-29.5l35.1,30.1l35.1-30.1l31.4,29.5h0.1
			V92.1h21.1v8.8h13.3V88.2h-9.3V66.7h31.4l-0.1-0.1h51.7v21.6h-9.2v12.7h13.2v-8.8h21.2V123l31.4-29.5l35.1,30.1l35.1-30.1
			l31.4,29.5h0.1V92.1h21v8.8h13.3V88.2h-9.2V66.7h31.4l-0.1-0.1h56.3v21.6h-9.2v12.7h13.2v-8.8h21.1V123L934,93.6l35.1,30.1
			l35.1-30.1l31.5,29.5h0.1V92.1h21v8.8h13.3V88.2h-9.3V66.7h31.5l-0.1-0.1h49.8v21.6h-9.2v12.7h13.2v-8.8h21.2V123l31.4-29.5
			l35.1,30.1l35.1-30.1l31.4,29.5h0.1V92.1h21v8.8h13.3V88.2h-9.2V66.7h31.4l-0.1-0.1h53.1v21.6h-9.3v12.7h13.2v-8.8h21.2V123
			l31.5-29.5l35.1,30.1l35.1-30.1L1568,123h0.1V92.1h21v8.8h13.3V88.2h-9.3V66.7h31.5l-0.1-0.1h49.8v21.6h-9.2v12.7h13.2v-8.8h21.2
			V123l31.4-29.5l35.1,30.1l35.1-30.1l31.5,29.5h0.1V92.1h20.9v8.8h13.3V88.2h-9.2V66.7h31.5l-0.1-0.1h39.9v-4h-43.6l-25.7-27.5
			L1889.6,0l0,0h-5.2l0,0l-28.3,33.2h-40.7l-23.9-27.4h0.1l-5.1-5.8h-5.4l0,0l1.7,1.9h-12l31.2,31.2h-2.8v2l-31.5-31.4V16l-1.7-1.5
			l-1.4,1.2V4.1l-31.7,31.8v-2.8h-2.1l31-31h-12.1l1.7-2l0,0l0-0.1l0,0h-5.2l-5.2,5.9h0.2L1718,33.2l-40.8,0.1l-29-33.2l0,0h-5.3
			l0,0l30.1,34.5l-26.3,28.1h-26l-25.6-27.4l30-35.2l0,0h-5.2l0,0l-28.3,33.2h-40.7L1527,5.8h0.1L1522,0h-5.5l1.7,1.9h-12l31.2,31.2
			h-2.8v2l-31.5-31.4V16l-1.6-1.4l-0.7,0.6l-0.8,0.7V4.1l-31.7,31.8v-2.8h-2.1l31-31h-12.1l1.7-2l0,0l0-0.1l0,0h-5.2l0,0l-0.8,0.9
			l-4.3,5h0.1l-23.2,27.2l-40.8,0.1l-29-33.2l0,0h-5.3l0,0l30.1,34.5l-26.3,28.1H1353l-25.6-27.4l30-35.2l0,0h-5.2l0,0l-28.3,33.2
			h-40.7l-23.9-27.4h0.1l-5.1-5.8h-5.4l0,0l1.7,1.9h-12l31.2,31.2h-2.8v0.1l0,0v1.9l-31.5-31.4V16l-1.7-1.5l-1.4,1.2V4.1l-31.7,31.8
			v-2.8h-2.1l31-31h-12.1l1.7-2L1219,0h-5.1l-5.2,5.9h0.2l-23.2,27.2l-40.8,0.1l-29-33.2l0,0h-5.4l30.2,34.5l-26.3,28.1h-26
			l-25.6-27.4l30-35.2l0,0h-5.2l0,0l-28.3,33.2h-40.7L994.7,5.8h0L989.6,0h-5.4l1.7,1.9h-12l31.2,31.2h-2.8v2L970.8,3.7V16l-1.7-1.5
			l-1.4,1.2V4.1L936,35.9v-2.8h-2.1l31-31h-12.1l1.7-2l0,0l0-0.1l0,0h-5.2l-5.2,5.9h0.2l-23.2,27.2l-40.8,0.1L851.3,0l0,0H846l0,0
			l30.1,34.5l-26.3,28.1h-32.4l-25.6-27.4l30-35.2l0,0h-5.2l0,0l-28.3,33.2h-40.7L723.7,5.8h0.1L718.7,0h-5.4l0,0l1.7,1.9h-12
			l31.2,31.2h-2.8v2L699.9,3.7V16l-1.7-1.5l-1.4,1.2V4.1l-31.7,31.8v-2.8H663l31-31h-12.1l1.7-2l0,0l0-0.1l0,0h-5.2l-5.2,5.9h0.2
			l-23.2,27.2l-40.8,0.1L580.4,0l0,0h-5.3l0,0l30.1,34.5l-26.3,28.1h-27.9l-25.6-27.4l30-35.2l0,0h-5.2l0,0l-28.3,33.2h-40.7
			L457.3,5.8h0.1L452.3,0h-5.4l0,0l1.7,1.9h-12l31.2,31.2H465v2L433.5,3.7V16l-1.7-1.5l-1.4,1.2V4.1l-31.7,31.8v-2.8h-2.1l31-31
			h-12.1l1.7-2l0,0l0-0.1l0,0H412l-5.1,5.9h0.2l-23.2,27.2L343,33.2L314,0l0,0h-5.3l0,0l30.1,34.5l-26.3,28.1h-28.3l-25.6-27.4
			l30-35.2l0,0h-5.2l0,0l-28.3,33.2h-40.7L190.5,5.8h0.1L185.5,0h-5.4l0,0l1.7,1.9h-12L201,33.1h-2.8v2L166.7,3.7V16l-1.7-1.5
			l-1.4,1.2V4.1L131.8,36v-2.9h-2l31-31h-12.1l1.7-2L150.3,0h-5.1L140,5.9h0.2L117,33.2l-40.8,0.1L47.2,0l0,0h-5.4L72,34.5
			L45.6,62.6L45.6,62.6z M340.1,96.9h-5.2v-4.7h5.2V96.9z M606.5,96.9h-5.2v-4.7h5.2V96.9z M877.4,96.9h-5.2v-4.7h5.2V96.9z
			 M1142,96.9h-5.2v-4.7h5.2V96.9z M1409.7,96.9h-5.2v-4.7h5.2V96.9z M1674.3,96.9h-5.2v-4.7h5.2V96.9z M1853.7,88.1h-20.6V67h20.6
			V88.1z M1863,92.2v4.7h-5.3v-4.7H1863z M1856.1,37.3l23.7,25.4h-51.3v51.1l-25.3-23.7l0,0V37.2L1856.1,37.3L1856.1,37.3z
			 M1780.5,5.8h5.7l23.9,27.4h-2.2C1807.9,33.3,1780.5,5.8,1780.5,5.8z M1771.7,13.2l27.6,27.5v3.1l-27.6-24.3
			C1771.7,19.5,1771.7,13.2,1771.7,13.2z M1732.9,41.5l27.7-27.9v5.6l-27.7,24.3V41.5L1732.9,41.5z M1732.9,48.9l33.1-29.1
			l33.2,29.2v40.9l-33.2,28.5L1732.9,90V48.9L1732.9,48.9z M1698.9,88.1h-20.6V67h20.6V88.1z M1746.4,5.9h5.8L1725,33.1h-1.8
			L1746.4,5.9L1746.4,5.9z M1675.9,37.3l52.9-0.1v52.9l-25.3,23.7V62.7h-45.8v-0.1h-5.4L1675.9,37.3L1675.9,37.3z M1589.2,88.1
			h-20.6V67h20.6V88.1z M1598.4,92.2v4.7h-5.3v-4.7H1598.4z M1591.6,37.3l23.6,25.3h-4.9v0.1H1564v51.1l-25.3-23.7l0,0V37.2
			L1591.6,37.3L1591.6,37.3z M1516,5.8h5.7l23.9,27.4h-2.2C1543.4,33.3,1516,5.8,1516,5.8z M1507.2,13.2l27.5,27.4v3.1l-27.5-24.2
			C1507.2,19.5,1507.2,13.2,1507.2,13.2z M1501.5,19.8l33.2,29.2v40.9l-33.2,28.5l-33.2-28.5V49C1468.3,49,1501.5,19.8,1501.5,19.8z
			 M1468.3,41.6l27.8-28v5.6l-27.8,24.4V41.6z M1434.4,88.1h-20.6V67h20.6V88.1z M1481.8,5.9h5.9l-27.2,27.2h-1.9L1481.8,5.9z
			 M1411.3,37.3l52.9-0.1v52.9l-25.3,23.7V62.8h-48.2v-0.1h-3L1411.3,37.3L1411.3,37.3z M1321.4,88.1h-20.6V67h20.6V88.1z
			 M1330.7,92.2v4.7h-5.3v-4.7H1330.7z M1323.8,37.3l23.6,25.3h-4.1v0.1h-47.1v51.1l-25.3-23.7l0,0V37.2L1323.8,37.3z M1248.2,5.8
			h5.7l23.9,27.4h-2.2C1275.6,33.3,1248.2,5.8,1248.2,5.8z M1239.4,13.2l27.5,27.4v3.1l-27.5-24.2
			C1239.4,19.6,1239.4,13.2,1239.4,13.2z M1200.6,41.5l27.7-27.9v5.6l-27.7,24.3V41.5L1200.6,41.5z M1200.6,49l33.1-29.1l33.2,29.2
			v40.9l-33.2,28.5L1200.6,90V49L1200.6,49z M1166.6,88.1H1146V67h20.6V88.1z M1213.9,5.9h6l-27.2,27.2h-1.8L1213.9,5.9L1213.9,5.9z
			 M1143.5,37.3l52.9-0.1v52.9l-25.3,23.7V62.7h-40.9v-0.1h-10.3L1143.5,37.3L1143.5,37.3z M1056.8,88.1h-20.6V67h20.6V88.1z
			 M1066.1,92.2v4.7h-5.3v-4.7H1066.1z M1059.2,37.3l23.6,25.3l0,0v0.1h-51.2v51.1l-25.3-23.7l0,0V44.6l0,0v-7.4L1059.2,37.3
			L1059.2,37.3z M983.6,5.8h5.8l24,27.4h-2.3L983.6,5.8L983.6,5.8z M974.8,13.2l27.6,27.5v3.1l-27.6-24.3
			C974.8,19.6,974.8,13.2,974.8,13.2z M936,41.5l27.7-27.9v5.6L936,43.6V41.5L936,41.5z M936,49l33.1-29.1l33.2,29.2v40.9
			l-33.2,28.5L936,90V49L936,49z M902.1,88.1h-20.6V67h20.6V88.1z M949.5,5.9h5.8l-27.2,27.2h-1.8L949.5,5.9z M879,37.3l52.9-0.1
			v52.9l-25.3,23.7V62.7h-45.2v-0.1h-6C855.4,62.6,879,37.3,879,37.3z M785.9,88.1h-20.6V67h20.6V88.1z M795.2,92.2v4.7h-5.3v-4.7
			H795.2z M788.3,37.3L812,62.7h-51.3v51.1l-25.3-23.7V47.2l0,0v-2.6l0,0v-7.4L788.3,37.3L788.3,37.3z M712.7,5.8h5.7l24,27.4h-2.2
			C740.1,33.3,712.7,5.8,712.7,5.8z M703.9,13.2l27.5,27.4v3.1l-27.5-24.2C703.9,19.6,703.9,13.2,703.9,13.2z M665.1,41.5l27.7-27.9
			v5.6l-27.7,24.3V41.5L665.1,41.5z M665.1,49l33.1-29.1L731.4,49v40.9l-33.2,28.5L665.1,90V49L665.1,49z M631.1,88.1h-20.6V67h20.6
			V88.1z M678.6,5.9h5.8l-27.2,27.2h-1.8L678.6,5.9z M608,37.3l52.9-0.1v52.9l-25.3,23.7V62.7h-45.9v-0.1h-5.3
			C584.4,62.6,608,37.3,608,37.3z M519.5,88.1h-20.6V67h20.6V88.1z M528.8,92.2v4.7h-5.3v-4.7H528.8z M521.9,37.3l23.6,25.3h-3.2
			v0.1h-48v51.1L469,90.1V37.2L521.9,37.3z M446.3,5.8h5.7l24,27.4h-2.2L446.3,5.8L446.3,5.8z M437.5,13.2L465,40.7v3.1l-27.5-24.2
			C437.5,19.6,437.5,13.2,437.5,13.2z M398.7,41.5l27.7-27.9v5.6l-27.7,24.3V41.5L398.7,41.5z M398.7,49l33.1-29.1L465,49v40.9
			l-33.2,28.5L398.7,90V49L398.7,49z M364.7,88.1h-20.6V67h20.6V88.1z M412.2,5.9h5.8l-27.2,27.2H389C389,33.1,412.2,5.9,412.2,5.9z
			 M341.6,37.3l52.9-0.1v52.9l-25.3,23.7V62.7h-46.9v-0.1H318L341.6,37.3L341.6,37.3z M252.7,88.1h-20.6V67h20.6V88.1z M262,92.2
			v4.7h-5.3v-4.7H262z M255.1,37.3l23.6,25.3h-3.8v0.1h-47.4v51.1l-25.3-23.7V37.2L255.1,37.3L255.1,37.3z M179.5,5.8h5.7l23.9,27.4
			h-2.2L179.5,5.8L179.5,5.8z M170.7,13.2l27.5,27.4v3.1l-27.5-24.2C170.7,19.6,170.7,13.2,170.7,13.2z M131.8,41.6l27.8-28v5.6
			l-27.8,24.4V41.6L131.8,41.6z M131.8,49L165,19.8L198.2,49v40.9L165,118.4l-33.2-28.5C131.8,89.9,131.8,49,131.8,49z M73.4,96.9
			h-5.3v-4.7h5.3V96.9z M97.9,88.1H77.3V67h20.6V88.1z M145.2,5.9h6L124,33.1h-1.8C122.2,33.1,145.2,5.9,145.2,5.9z M127.8,37.2
			v52.9l-25.3,23.7V62.7H51.1l23.8-25.4C74.9,37.3,127.8,37.2,127.8,37.2z"/>
		<path class="st0" d="M185.8,81.4V57.2l-20.5-18l-20.5,18v24.2l20.5,17.5L185.8,81.4z M148.8,59l16.5-14.5L181.8,59v20.6
			l-16.5,14.1l-16.5-14.1V59z"/>
		<polygon class="st0" points="222.8,20.7 247,20.7 264.5,0 264.5,0 259.2,0 259.2,0 245.1,16.7 224.5,16.7 210,0 210,0 204.8,0 
			204.8,0 		"/>
		<polygon class="st0" points="108.2,20.2 125.5,0 120.3,0 106.4,16.2 85.8,16.2 71.5,0 66.2,0 84,20.2 		"/>
		<path class="st0" d="M452.6,81.4V57.2l-20.5-18l-20.5,18v24.2l20.5,17.5L452.6,81.4z M415.6,59l16.5-14.5L448.6,59v20.6
			l-16.5,14.1l-16.5-14.1V59z"/>
		<polygon class="st0" points="489.5,20.7 513.8,20.7 531.2,0 531.2,0 526.1,0 526.1,0 512,16.7 491.4,16.7 476.9,0 476.9,0 
			471.5,0 471.5,0 		"/>
		<polygon class="st0" points="375,20.2 392.3,0 387.1,0 373.2,16.2 352.6,16.2 338.3,0 333,0 350.8,20.2 		"/>
		<path class="st0" d="M719,81.4V57.2l-20.5-18l-20.5,18v24.2l20.5,17.5L719,81.4z M682,59l16.5-14.5L715,59v20.6l-16.5,14.1
			L682,79.6V59z"/>
		<polygon class="st0" points="756,20.7 780.2,20.7 797.7,0 797.7,0 792.5,0 792.5,0 778.4,16.7 757.8,16.7 743.3,0 743.3,0 738,0 
			738,0 		"/>
		<polygon class="st0" points="641.4,20.2 658.7,0 653.5,0 639.6,16.2 619,16.2 604.7,0 599.4,0 617.2,20.2 		"/>
		<path class="st0" d="M989.9,81.4V57.2l-20.5-18l-20.5,18v24.2l20.5,17.5L989.9,81.4z M952.9,59l16.5-14.5L985.9,59v20.6
			l-16.5,14.1l-16.5-14.1V59z"/>
		<polygon class="st0" points="1026.9,20.7 1051.1,20.7 1068.6,0 1068.6,0 1063.4,0 1063.4,0 1049.3,16.7 1028.7,16.7 1014.2,0 
			1014.2,0 1008.9,0 1008.9,0 		"/>
		<polygon class="st0" points="912.4,20.2 929.7,0 924.4,0 910.5,16.2 889.9,16.2 875.6,0 870.4,0 888.2,20.2 		"/>
		<path class="st0" d="M1254.5,81.4V57.2l-20.5-18l-20.5,18v24.2l20.5,17.5L1254.5,81.4z M1217.5,59l16.5-14.5l16.5,14.5v20.6
			L1234,93.7l-16.5-14.1V59z"/>
		<polygon class="st0" points="1291.5,20.7 1315.7,20.7 1333.2,0 1333.2,0 1328,0 1328,0 1313.9,16.7 1293.3,16.7 1278.8,0 
			1278.8,0 1273.5,0 1273.5,0 		"/>
		<polygon class="st0" points="1176.9,20.2 1194.2,0 1189,0 1175.1,16.2 1154.5,16.2 1140.2,0 1134.9,0 1152.7,20.2 		"/>
		<path class="st0" d="M1522.2,81.4V57.2l-20.5-18l-20.5,18v24.2l20.5,17.5L1522.2,81.4z M1485.2,59l16.5-14.5l16.5,14.5v20.6
			l-16.5,14.1l-16.5-14.1V59z"/>
		<polygon class="st0" points="1559.2,20.7 1583.4,20.7 1600.9,0 1600.9,0 1595.7,0 1595.7,0 1581.6,16.7 1561,16.7 1546.5,0 
			1546.5,0 1541.2,0 1541.2,0 		"/>
		<polygon class="st0" points="1444.7,20.2 1462,0 1456.7,0 1442.8,16.2 1422.2,16.2 1407.9,0 1402.7,0 1420.5,20.2 		"/>
		<path class="st0" d="M1786.8,81.4V57.2l-20.5-18l-20.5,18v24.2l20.5,17.5L1786.8,81.4z M1749.8,59l16.5-14.5l16.5,14.5v20.6
			l-16.5,14.1l-16.5-14.1V59z"/>
		<polygon class="st0" points="1823.8,20.7 1848,20.7 1865.5,0 1865.5,0 1860.3,0 1860.3,0 1846.2,16.7 1825.6,16.7 1811.1,0 
			1811.1,0 1805.8,0 1805.8,0 		"/>
		<polygon class="st0" points="1709.2,20.2 1726.5,0 1721.3,0 1707.4,16.2 1686.8,16.2 1672.5,0 1667.2,0 1685,20.2 		"/>
		<path class="st0" d="M298.3,58.5L321.8,35l-23.5-23.5L274.8,35L298.3,58.5z M316,35l-17.8,17.8L280.4,35l17.8-17.8L316,35z"/>
		<path class="st0" d="M51.2,35L27.7,11.5L4.2,35l23.5,23.5L51.2,35z M9.8,35l17.9-17.8L45.5,35L27.6,52.8C27.6,52.8,9.8,35,9.8,35z
			"/>
		<path class="st0" d="M566,58.5L589.5,35L566,11.5L542.5,35L566,58.5z M583.8,35L566,52.8L548.2,35L566,17.2L583.8,35z"/>
		<path class="st0" d="M834.7,58.5L858.2,35l-23.5-23.5L811.2,35L834.7,58.5z M852.4,35l-17.8,17.8L816.8,35l17.8-17.8L852.4,35z"/>
		<path class="st0" d="M1102.1,58.5l23.5-23.5l-23.5-23.5L1078.6,35L1102.1,58.5z M1102.1,17.2l17.8,17.8l-17.8,17.8L1084.3,35
			L1102.1,17.2z"/>
		<path class="st0" d="M1368.5,58.5L1392,35l-23.5-23.5L1345,35L1368.5,58.5z M1386.3,35l-17.8,17.8L1350.7,35l17.8-17.8L1386.3,35z
			"/>
		<path class="st0" d="M1634,58.5l23.5-23.5L1634,11.5L1610.5,35L1634,58.5z M1651.8,35L1634,52.8L1616.2,35l17.8-17.8L1651.8,35z"
			/>
		<path class="st0" d="M1878.8,35l23.5,23.5l23.5-23.5l-23.5-23.5L1878.8,35z M1902.3,52.8L1884.5,35l17.8-17.8l17.8,17.8
			L1902.3,52.8z"/>
	</g>
</g>
</svg>
