<svg xmlns="http://www.w3.org/2000/svg" width="28" height="24" viewBox="0 0 28 24" fill="none">
  <path d="M0.456623 1.41492L5.28759 3.39486L7.49218 13.8765C6.49205 14.5086 5.34614 15.9305 5.86951 18.3012C5.94478 18.6382 6.24231 18.8771 6.58764 18.8771H22.6028C23.0079 18.8771 23.3365 18.5485 23.3365 18.1435C23.3365 17.7384 23.0079 17.4098 22.6028 17.4098H7.21854C7.09905 15.8194 8.12547 15.1813 8.47797 15.0093H21.721C22.0496 15.0093 22.3388 14.7918 22.4284 14.4751L25.3965 3.98992H26.2975C26.7312 3.98992 27.0825 3.66132 27.0825 3.25625C27.0825 2.85118 26.7312 2.52139 26.2975 2.52139H6.57689C6.49683 2.37083 6.36658 2.25134 6.20527 2.18443L1.01344 0.0551242C0.638247 -0.0990175 0.209279 0.0814119 0.0551377 0.455415C-0.099004 0.831807 0.0814254 1.26078 0.456623 1.41372V1.41492ZM23.4034 5.6329H20.9611L21.2072 3.98992H23.8682L23.4034 5.6329ZM20.5584 8.32381L20.7854 6.80749H23.0712L22.6423 8.32381H20.5584ZM20.1557 11.0147L20.3827 9.49959H22.3101L21.8811 11.0147H20.1557ZM19.7769 13.5395L19.9777 12.1905H21.5477L21.1666 13.5395H19.7769ZM19.7733 5.6329H17.4397L17.5795 3.98992H20.0195L19.7733 5.6329ZM19.3695 8.32381H17.2103L17.3393 6.80749H19.5965L19.3695 8.32381ZM18.9668 11.0147H16.9809L17.1099 9.49959H19.1926L18.9656 11.0147H18.9668ZM16.767 13.5395L16.8817 12.1905H18.7899L18.588 13.5395H16.767ZM14.2087 12.1905H15.7011L15.5864 13.5395H14.2613L14.2087 12.1905ZM14.1035 9.49959H15.9293L15.8015 11.0147H14.1633L14.1035 9.49959ZM13.9984 6.80749H16.1588L16.0309 8.32381H14.0581L13.9984 6.80749ZM13.8885 3.98873H16.3989L16.2591 5.63171H13.953L13.8885 3.98873ZM11.243 12.1893H13.0329L13.0855 13.5383H11.4318L11.243 12.1893ZM10.8666 9.49839H12.9278L12.9863 11.0135H11.0793L10.8678 9.49839H10.8666ZM10.4902 6.80629H12.8214L12.8812 8.32262H10.7029L10.4914 6.80629H10.4902ZM10.3253 5.63171L10.0959 3.98873H12.7115L12.776 5.63171H10.3265H10.3253ZM8.63689 12.1893H10.0552L10.2452 13.5383H8.92127L8.63689 12.1893ZM8.07051 9.49839H9.67884L9.89033 11.0135H8.38835L8.06931 9.49839H8.07051ZM7.50412 6.80629H9.30245L9.51394 8.32262H7.82316L7.50412 6.80629ZM6.91146 3.98753H8.90813L9.13755 5.63051H7.25678L6.91146 3.98753Z" fill="black"/>
  <path d="M6.26981 21.5693C6.26981 22.7737 7.24604 23.7488 8.4493 23.7488C9.65256 23.7488 10.63 22.7737 10.63 21.5693C10.63 20.3648 9.65375 19.3898 8.4493 19.3898C7.24484 19.3898 6.26981 20.3648 6.26981 21.5693ZM7.3488 21.5693C7.3488 20.9611 7.84229 20.4676 8.4493 20.4676C9.05631 20.4676 9.55219 20.9611 9.55219 21.5693C9.55219 22.1775 9.05869 22.671 8.4493 22.671C7.8399 22.671 7.3488 22.1775 7.3488 21.5693Z" fill="black"/>
  <path d="M17.8961 21.5693C17.8961 22.7737 18.8724 23.7488 20.0768 23.7488C21.2813 23.7488 22.2563 22.7737 22.2563 21.5693C22.2563 20.3648 21.2801 19.3898 20.0768 19.3898C18.8736 19.3898 17.8961 20.3648 17.8961 21.5693ZM18.9739 21.5693C18.9739 20.9611 19.4674 20.4676 20.0768 20.4676C20.6862 20.4676 21.1773 20.9611 21.1773 21.5693C21.1773 22.1775 20.6838 22.671 20.0768 22.671C19.4698 22.671 18.9739 22.1775 18.9739 21.5693Z" fill="black"/>
</svg>