<svg width="95" height="96" viewBox="0 0 95 96" fill="none" xmlns="http://www.w3.org/2000/svg">
<path d="M8.62749 50.051H4.52148V54.1985H8.62749V50.051Z" fill="#3ACCE9"/>
<path d="M8.62749 41.8015H4.52148V45.949H8.62749V41.8015Z" fill="#3ACCE9"/>
<path d="M4.52007 45.9038H0.414062V50.0513H4.52007V45.9038Z" fill="#3ACCE9"/>
<path d="M12.731 45.9038H8.625V50.0513H12.731V45.9038Z" fill="#3ACCE9"/>
<path d="M45.5357 45.9038H41.4297V50.0513H45.5357V45.9038Z" fill="#3ACCE9"/>
<path d="M90.6119 50.051H86.5059V54.1985H90.6119V50.051Z" fill="#3ACCE9"/>
<path d="M90.6119 41.8015H86.5059V45.949H90.6119V41.8015Z" fill="#3ACCE9"/>
<path d="M86.5064 45.9038H82.4004V50.0513H86.5064V45.9038Z" fill="#3ACCE9"/>
<path d="M94.7173 45.9038H90.6113V50.0513H94.7173V45.9038Z" fill="#3ACCE9"/>
<path d="M41.4294 33.5065V37.654H45.4907V33.5065V29.3591V25.2116H41.4294V21.0641H37.3233V16.9166H33.2173V12.8142H29.1113V16.9166V21.0641V25.2116H33.2173V29.3591H37.3233V33.5065H41.4294Z" fill="#3ACCE9"/>
<path d="M29.1119 25.2114H25.0059V29.3589H29.1119V25.2114Z" fill="#3ACCE9"/>
<path d="M29.1119 66.6411H25.0059V70.7886H29.1119V66.6411Z" fill="#3ACCE9"/>
<path d="M25.005 16.9163H20.899V21.0637H16.793V25.2112H20.899H25.005V21.0637V16.9163Z" fill="#3ACCE9"/>
<path d="M16.793 70.7437V74.8911H20.899V79.0386H25.005V74.8911V70.7437H20.899H16.793Z" fill="#3ACCE9"/>
<path d="M29.1113 79.0385V83.186H33.2173V79.0385H37.3233V74.8911H41.4294V70.7436H45.4907V66.6412V62.4937V58.3462H41.4294V62.4937H37.3233V66.6412H33.2173V70.7436H29.1113V74.8911V79.0385Z" fill="#3ACCE9"/>
<path d="M16.7938 29.3589H12.7324V33.5064H16.7938V37.6539H20.8998V41.8013H25.0058V45.9037H29.1118H33.2178H37.3238V41.8013H33.2178V37.6539H29.1118V33.5064H25.0058V29.3589H20.8998H16.7938Z" fill="#3ACCE9"/>
<path d="M29.1118 62.4935V58.346H33.2178V54.1985H37.3238V50.051H33.2178H29.1118H25.0058V54.1985H20.8998V58.346H16.7938V62.4935H12.7324V66.641H16.7938H20.8998H25.0058V62.4935H29.1118Z" fill="#3ACCE9"/>
<path d="M49.5962 50.051H45.4902V54.1985H49.5962V50.051Z" fill="#3ACCE9"/>
<path d="M49.5962 41.8015H45.4902V45.949H49.5962V41.8015Z" fill="#3ACCE9"/>
<path d="M53.7017 45.9038H49.5957V50.0513H53.7017V45.9038Z" fill="#3ACCE9"/>
<path d="M66.0197 16.9166V12.8142H61.9137V16.9166H57.8077V21.0641H53.7017V25.2116H49.5957V29.3591V33.5065V37.654H53.7017V33.5065H57.8077V29.3591H61.9137V25.2116H66.0197V21.0641V16.9166Z" fill="#3ACCE9"/>
<path d="M70.1275 66.6411H66.0215V70.7886H70.1275V66.6411Z" fill="#3ACCE9"/>
<path d="M70.1275 25.2114H66.0215V29.3589H70.1275V25.2114Z" fill="#3ACCE9"/>
<path d="M78.2941 25.2112V21.0637H74.188V16.9163H70.082V21.0637V25.2112H74.188H78.2941Z" fill="#3ACCE9"/>
<path d="M70.082 79.0386H74.188V74.8911H78.2941V70.7437H74.188H70.082V74.8911V79.0386Z" fill="#3ACCE9"/>
<path d="M61.9137 66.6412H57.8077V62.4937H53.7017V58.3462H49.5957V62.4937V66.6412V70.7436H53.7017V74.8911H57.8077V79.0385H61.9137V83.186H66.0197V79.0385V74.8911V70.7436H61.9137V66.6412Z" fill="#3ACCE9"/>
<path d="M66.0206 33.5064V37.6539H61.9146V41.8013H57.8086V45.9037H61.9146H66.0206H70.082V41.8013H74.188V37.6539H78.294V33.5064H82.4V29.3589H78.294H74.188H70.082V33.5064H66.0206Z" fill="#3ACCE9"/>
<path d="M78.294 66.641H82.4V62.4935H78.294V58.346H74.188V54.1985H70.082V50.051H66.0206H61.9146H57.8086V54.1985H61.9146V58.346H66.0206V62.4935H70.082V66.641H74.188H78.294Z" fill="#3ACCE9"/>
<path d="M45.5357 4.51904H41.4297V8.66653H45.5357V4.51904Z" fill="#3ACCE9"/>
<path d="M45.5357 87.3335H41.4297V91.481H45.5357V87.3335Z" fill="#3ACCE9"/>
<path d="M49.5962 91.481H45.4902V95.6284H49.5962V91.481Z" fill="#3ACCE9"/>
<path d="M49.5962 83.186H45.4902V87.3335H49.5962V83.186Z" fill="#3ACCE9"/>
<path d="M53.7017 87.3335H49.5957V91.481H53.7017V87.3335Z" fill="#3ACCE9"/>
<path d="M49.5962 8.6665H45.4902V12.814H49.5962V8.6665Z" fill="#3ACCE9"/>
<path d="M49.5962 0.371582H45.4902V4.51907H49.5962V0.371582Z" fill="#3ACCE9"/>
<path d="M53.7017 4.51904H49.5957V8.66653H53.7017V4.51904Z" fill="#3ACCE9"/>
</svg>
