<svg width="96" height="96" viewBox="0 0 96 96" fill="none" xmlns="http://www.w3.org/2000/svg">
<path d="M54.0951 38.4654H57.909V34.6515H61.7229V30.8376H65.5368V27.0691V23.2552V19.4413V15.6274V11.8135H61.7229V15.6274H57.909V19.4413H54.0951V23.2552H50.2812V27.0691V30.8376V34.6515V38.4654V42.2793H54.0951V38.4654Z" fill="#3ACCE9"/>
<path d="M35.0268 34.6515H38.8407V38.4654H42.6546V42.2793H46.4685V38.4654V34.6515V30.8376V27.0691V23.2552H42.6546V19.4413H38.8407V15.6274H35.0268V11.8135H31.2129V15.6274V19.4413V23.2552V27.0691V30.8376H35.0268V34.6515Z" fill="#3ACCE9"/>
<path d="M42.6546 57.5348H38.8407V61.3487H35.0268V65.1626H31.2129V68.9765V72.7904V76.6043V80.4182V84.2321H35.0268V80.4182H38.8407V76.6043H42.6546V72.7904H46.4685V68.9765V65.1626V61.3487V57.5348V53.7209H42.6546V57.5348Z" fill="#3ACCE9"/>
<path d="M61.7229 61.3487H57.909V57.5348H54.0951V53.7209H50.2812V57.5348V61.3487V65.1626V68.9765V72.7904H54.0951V76.6043H57.909V80.4182H61.7229V84.2321H65.5368V80.4182V76.6043V72.7904V68.9765V65.1626H61.7229V61.3487Z" fill="#3ACCE9"/>
<path d="M38.8394 42.2793V38.4654H35.0255V34.6515H31.2116V30.8376H27.4431H23.6292H19.8153H16.0014H12.1875V34.6515H16.0014V38.4654H19.8153V42.2793H23.6292V46.0932H27.4431H31.2116H35.0255H38.8394H42.6533V42.2793H38.8394Z" fill="#3ACCE9"/>
<path d="M54.096 49.9071V46.0932H50.2821V42.2793H46.4682V46.0932H42.6543V49.9071H46.4682V53.721H50.2821V49.9071H54.096Z" fill="#3ACCE9"/>
<path d="M19.8159 27.0687H23.6298H27.4437V23.2548V19.4409H23.6298V15.627H19.8159V19.4409H16.002V23.2548H19.8159V27.0687Z" fill="#3ACCE9"/>
<path d="M76.9794 27.0687V23.2548H80.7933V19.4409H76.9794V15.627H73.1655V19.4409H69.3516V23.2548V27.0687H73.1655H76.9794Z" fill="#3ACCE9"/>
<path d="M76.9794 68.9766H73.1655H69.3516V72.7905V76.6044H73.1655V80.4183H76.9794V76.6044H80.7933V72.7905H76.9794V68.9766Z" fill="#3ACCE9"/>
<path d="M19.8159 68.9766V72.7905H16.002V76.6044H19.8159V80.4183H23.6298V76.6044H27.4437V72.7905V68.9766H23.6298H19.8159Z" fill="#3ACCE9"/>
<path d="M35.0255 61.3487V57.5348H38.8394V53.7209H42.6533V49.907H38.8394H35.0255H31.2116H27.4431H23.6292V53.7209H19.8153V57.5348H16.0014V61.3487H12.1875V65.1626H16.0014H19.8153H23.6292H27.4431H31.2116V61.3487H35.0255Z" fill="#3ACCE9"/>
<path d="M80.7949 57.5348H76.9811V53.7209H73.1672V49.907H69.3533H65.5394H61.7255H57.9116H54.0977V53.7209H57.9116V57.5348H61.7255V61.3487H65.5394V65.1626H69.3533H73.1672H76.9811H80.7949H84.6088V61.3487H80.7949V57.5348Z" fill="#3ACCE9"/>
<path d="M61.7255 34.6515V38.4654H57.9116V42.2793H54.0977V46.0932H57.9116H61.7255H65.5394H69.3533H73.1672V42.2793H76.9811V38.4654H80.7949V34.6515H84.6088V30.8376H80.7949H76.9811H73.1672H69.3533H65.5394V34.6515H61.7255Z" fill="#3ACCE9"/>
<path d="M12.1878 57.5348V53.7209H16.0017V49.907H19.8156V46.0931H16.0017V42.2792H12.1878V38.4653H8.37389V42.2792H4.55999V46.0931H0.746094V49.907H4.55999V53.7209H8.37389V57.5348H12.1878Z" fill="#3ACCE9"/>
<path d="M54.0954 80.4181H50.2815V76.6042H46.4676V80.4181H42.6537V84.232H38.8398V88.0459H42.6537V91.8144H46.4676V95.6283H50.2815V91.8144H54.0954V88.0459H57.9093V84.232H54.0954V80.4181Z" fill="#3ACCE9"/>
<path d="M92.1907 46.0931V42.2792H88.4222V38.4653H84.6083V42.2792H80.7944V46.0931H76.9805V49.907H80.7944V53.7209H84.6083V57.5348H88.4222V53.7209H92.1907V49.907H96.0046V46.0931H92.1907Z" fill="#3ACCE9"/>
<path d="M42.6537 15.6272H46.4676V19.4411H50.2815V15.6272H54.0954V11.8133H57.9093V7.99938H54.0954V4.18548H50.2815V0.371582H46.4676V4.18548H42.6537V7.99938H38.8398V11.8133H42.6537V15.6272Z" fill="#3ACCE9"/>
</svg>
