<svg width="89" height="96" viewBox="0 0 89 96" fill="none" xmlns="http://www.w3.org/2000/svg">
<path d="M34.0238 45.8647H29.6855V50.1353H34.0238V45.8647Z" fill="#3ACCE9"/>
<path d="M60.0082 45.8647H55.6699V50.1353H60.0082V45.8647Z" fill="#3ACCE9"/>
<path d="M42.6547 37.3684H38.3164V41.639H42.6547V37.3684Z" fill="#3ACCE9"/>
<path d="M51.3305 37.3684H46.9922V41.639H51.3305V37.3684Z" fill="#3ACCE9"/>
<path d="M46.9926 33.0979H42.6543V37.3685H46.9926V33.0979Z" fill="#3ACCE9"/>
<path d="M38.3617 41.6392H34.0234V45.9098H38.3617V41.6392Z" fill="#3ACCE9"/>
<path d="M55.6703 41.6392H51.332V45.9098H55.6703V41.6392Z" fill="#3ACCE9"/>
<path d="M51.3305 54.406H46.9922V58.6766H51.3305V54.406Z" fill="#3ACCE9"/>
<path d="M42.6547 54.406H38.3164V58.6766H42.6547V54.406Z" fill="#3ACCE9"/>
<path d="M46.9926 58.6765H42.6543V62.9471H46.9926V58.6765Z" fill="#3ACCE9"/>
<path d="M55.6703 50.1353H51.332V54.4059H55.6703V50.1353Z" fill="#3ACCE9"/>
<path d="M38.3617 50.1353H34.0234V54.4059H38.3617V50.1353Z" fill="#3ACCE9"/>
<path d="M51.3324 16.0154V20.286H46.9941V24.5566V28.8272V33.0978H51.3324V37.3234H55.6707V33.0978H60.0091V28.8272H64.3474V24.5566H60.0091V20.286H55.6707V16.0154H51.3324Z" fill="#3ACCE9"/>
<path d="M60.0082 33.0978V37.3234H55.6699V41.594H60.0082V45.8646H64.3465H68.6848H73.0231V41.594H77.3614V37.3234H73.0231V33.0978H68.6848V28.8271H64.3465V33.0978H60.0082Z" fill="#3ACCE9"/>
<path d="M68.6848 50.1353H64.3465H60.0082V54.4059H55.6699V58.6765H60.0082V62.9471H64.3465V67.2177H68.6848V62.9471H73.0231V58.6765H77.3614V54.4059H73.0231V50.1353H68.6848Z" fill="#3ACCE9"/>
<path d="M25.302 50.1353H20.9637H16.6254V54.4059H12.2871V58.6765H16.6254V62.9471H20.9637V67.2177H25.302V62.9471H29.6403V58.6765H33.9786V54.4059H29.6403V50.1353H25.302Z" fill="#3ACCE9"/>
<path d="M29.641 62.9471V67.2177H25.3027V71.4883H29.641V75.7589H33.9793V80.0295H38.3176V75.7589H42.656V71.4883V67.2177V62.9471H38.3176V58.6765H33.9793V62.9471H29.641Z" fill="#3ACCE9"/>
<path d="M60.0091 62.9471H55.6707V58.6765H51.3324V62.9471H46.9941V67.2177V71.4883V75.7589H51.3324V80.0295H55.6707V75.7589H60.0091V71.4883H64.3474V67.2177H60.0091V62.9471Z" fill="#3ACCE9"/>
<path d="M29.6403 33.0978H25.302V28.8271H20.9637V33.0978H16.6254V37.3234H12.2871V41.594H16.6254V45.8646H20.9637H25.302H29.6403V41.594H33.9786V37.3234H29.6403V33.0978Z" fill="#3ACCE9"/>
<path d="M29.641 24.5566H25.3027V28.8272H29.641V33.0978H33.9793V37.3234H38.3176V33.0978H42.656V28.8272V24.5566V20.286H38.3176V16.0154H33.9793V20.286H29.641V24.5566Z" fill="#3ACCE9"/>
<path d="M49.506 83.4011H46.4007V80.3442H43.2954V83.4011H40.1444V86.4579H37.0391V89.5148H40.1444V92.5716H43.2954V95.6285H46.4007V92.5716H49.506V89.5148H52.6113V86.4579H49.506V83.4011Z" fill="#3ACCE9"/>
<path d="M49.506 3.42843H46.4007V0.371582H43.2954V3.42843H40.1444V6.48529H37.0391V9.54214H40.1444V12.599H43.2954V15.6558H46.4007V12.599H49.506V9.54214H52.6113V6.48529H49.506V3.42843Z" fill="#3ACCE9"/>
<path d="M80.6491 42.4932L77.9092 45.1454L75.2148 47.8427L77.9092 50.4949L80.6491 53.1472L83.3434 50.4949L86.0378 53.1472L88.7777 50.4949L86.0378 47.8427L88.7777 45.1454L86.0378 42.4932L83.3434 45.1454L80.6491 42.4932Z" fill="#3ACCE9"/>
<path d="M8.5876 42.4932L11.2819 45.1454L14.0219 47.8427L11.2819 50.4949L8.5876 53.1472L5.89328 50.4949L3.1533 53.1472L0.458984 50.4949L3.1533 47.8427L0.458984 45.1454L3.1533 42.4932L5.89328 45.1454L8.5876 42.4932Z" fill="#3ACCE9"/>
</svg>
