<svg width="110" height="96" viewBox="0 0 110 96" fill="none" xmlns="http://www.w3.org/2000/svg">
<path d="M57.0053 49.7734H53.2441V53.5467H57.0053V49.7734Z" fill="#3ACCE9"/>
<path d="M57.0053 42.2271H53.2441V46.0003H57.0053V42.2271Z" fill="#3ACCE9"/>
<path d="M53.2436 46.0005H49.4824V49.7737H53.2436V46.0005Z" fill="#3ACCE9"/>
<path d="M60.7671 46.0005H57.0059V49.7737H60.7671V46.0005Z" fill="#3ACCE9"/>
<path d="M57.0053 8.17773H53.2441V11.951H57.0053V8.17773Z" fill="#3ACCE9"/>
<path d="M57.0053 0.631348H53.2441V4.40461H57.0053V0.631348Z" fill="#3ACCE9"/>
<path d="M53.2436 4.40479H49.4824V8.17805H53.2436V4.40479Z" fill="#3ACCE9"/>
<path d="M60.7671 4.40479H57.0059V8.17805H60.7671V4.40479Z" fill="#3ACCE9"/>
<path d="M105.99 49.7734H102.229V53.5467H105.99V49.7734Z" fill="#3ACCE9"/>
<path d="M105.99 42.2271H102.229V46.0003H105.99V42.2271Z" fill="#3ACCE9"/>
<path d="M102.228 46.0005H98.4668V49.7737H102.228V46.0005Z" fill="#3ACCE9"/>
<path d="M109.751 46.0005H105.99V49.7737H109.751V46.0005Z" fill="#3ACCE9"/>
<path d="M8.02096 49.7734H4.25977V53.5467H8.02096V49.7734Z" fill="#3ACCE9"/>
<path d="M8.02096 42.2271H4.25977V46.0003H8.02096V42.2271Z" fill="#3ACCE9"/>
<path d="M4.25924 46.0005H0.498047V49.7737H4.25924V46.0005Z" fill="#3ACCE9"/>
<path d="M11.7807 46.0005H8.01953V49.7737H11.7807V46.0005Z" fill="#3ACCE9"/>
<path d="M57.0053 91.3694H53.2441V95.1427H57.0053V91.3694Z" fill="#3ACCE9"/>
<path d="M57.0053 83.8228H53.2441V87.596H57.0053V83.8228Z" fill="#3ACCE9"/>
<path d="M53.2436 87.5962H49.4824V91.3695H53.2436V87.5962Z" fill="#3ACCE9"/>
<path d="M60.7671 87.5962H57.0059V91.3695H60.7671V87.5962Z" fill="#3ACCE9"/>
<path d="M68.3342 4.40479V8.17805H64.573V11.9513H60.8118V15.7695H57.0059V19.5428V23.316V27.0893V30.8626V34.6358V38.454H60.8118V34.6358H64.573V30.8626H68.3342V27.0893H72.0954V23.316H75.8566V19.5428V15.7695V11.9513V8.17805H72.0954V4.40479H68.3342Z" fill="#3ACCE9"/>
<path d="M38.1985 4.40479V8.17805H34.3926V11.9513V15.7695V19.5428V23.316H38.1985V27.0893H41.9597V30.8626H45.7209V34.6358H49.4821V38.454H53.2433V34.6358V30.8626V27.0893V23.316V19.5428V15.7695H49.4821V11.9513H45.7209V8.17805H41.9597V4.40479H38.1985Z" fill="#3ACCE9"/>
<path d="M60.8118 61.1383V57.3201H57.0059V61.1383V64.9115V68.6848V72.458V76.2313V80.0046H60.8118V83.8228H64.573V87.596H68.3342V91.3693H72.0954V87.596H75.8566V83.8228V80.0046V76.2313V72.458H72.0954V68.6848H68.3342V64.9115H64.573V61.1383H60.8118Z" fill="#3ACCE9"/>
<path d="M49.4821 61.1383H45.7209V64.9115H41.9597V68.6848H38.1985V72.458H34.3926V76.2313V80.0046V83.8228V87.596H38.1985V91.3693H41.9597V87.596H45.7209V83.8228H49.4821V80.0046H53.2433V76.2313V72.458V68.6848V64.9115V61.1383V57.3201H49.4821V61.1383Z" fill="#3ACCE9"/>
<path d="M26.8708 27.0891H23.1096H19.3484H15.5872V30.8624H11.7812V34.6356H15.5872V38.4538H19.3484V42.2271H23.1096V46.0004H26.8708H30.632H34.3932H38.1991H41.9603H45.7215V42.2271H41.9603V38.4538H38.1991V34.6356H34.3932V30.8624H30.632V27.0891H26.8708Z" fill="#3ACCE9"/>
<path d="M11.7812 64.9114H15.5872V68.6847H19.3484H23.1096H26.8708H30.632V64.9114H34.3932V61.1382H38.1991V57.32H41.9603V53.5467H45.7215V49.7734H41.9603H38.1991H34.3932H30.632H26.8708H23.1096V53.5467H19.3484V57.32H15.5872V61.1382H11.7812V64.9114Z" fill="#3ACCE9"/>
<path d="M90.9434 27.0891H87.1822H83.421H79.6151V30.8624H75.8539V34.6356H72.0927V38.4538H68.3315V42.2271H64.5703V46.0004H68.3315H72.0927H75.8539H79.6151H83.421H87.1822V42.2271H90.9434V38.4538H94.7046V34.6356H98.4658V30.8624H94.7046V27.0891H90.9434Z" fill="#3ACCE9"/>
<path d="M83.421 49.7734H79.6151H75.8539H72.0927H68.3315H64.5703V53.5467H68.3315V57.32H72.0927V61.1382H75.8539V64.9114H79.6151V68.6847H83.421H87.1822H90.9434H94.7046V64.9114H98.4658V61.1382H94.7046V57.32H90.9434V53.5467H87.1822V49.7734H83.421Z" fill="#3ACCE9"/>
</svg>
