<svg width="98" height="103" viewBox="0 0 98 103" fill="none" xmlns="http://www.w3.org/2000/svg">
<path d="M51.709 49.4937L51.709 53.2549L55.4822 53.2549L55.4822 49.4937L51.709 49.4937Z" fill="#3ACCE9"/>
<path d="M44.1621 49.4937L44.1621 53.2549L47.9354 53.2549L47.9354 49.4937L44.1621 49.4937Z" fill="#3ACCE9"/>
<path d="M47.9355 53.2554L47.9355 57.0166L51.7088 57.0166L51.7088 53.2554L47.9355 53.2554Z" fill="#3ACCE9"/>
<path d="M47.9355 45.7315L47.9355 49.4927L51.7088 49.4927L51.7088 45.7315L47.9355 45.7315Z" fill="#3ACCE9"/>
<path d="M6.33984 38.1648L10.1131 38.1648L10.1131 41.926L13.8864 41.926L13.8864 45.6872L17.7046 45.6872L17.7046 49.4932L21.4778 49.4932L25.2511 49.4932L29.0244 49.4932L32.7976 49.4932L36.5709 49.4932L40.3891 49.4932L40.3891 45.6872L36.5709 45.6872L36.5709 41.926L32.7976 41.926L32.7976 38.1648L29.0244 38.1648L29.0244 34.4036L25.2511 34.4036L25.2511 30.6424L21.4778 30.6424L17.7046 30.6424L13.8864 30.6424L10.1131 30.6424L10.1131 34.4036L6.33984 34.4036L6.33984 38.1648Z" fill="#3ACCE9"/>
<path d="M0.0546873 45.3113L1.44776 45.3113L1.44776 46.6999L2.84082 46.6999L2.84082 48.0885L4.25048 48.0885L4.25048 49.4937L5.64355 49.4937L7.03662 49.4937L8.42968 49.4937L9.82275 49.4937L11.2158 49.4937L12.6255 49.4937L12.6255 48.0885L11.2158 48.0885L11.2158 46.6999L9.82275 46.6999L9.82275 45.3113L8.42968 45.3113L8.42968 43.9227L7.03662 43.9227L7.03662 42.5341L5.64355 42.5341L4.25048 42.5341L2.84082 42.5341L1.44776 42.5341L1.44776 43.9227L0.0546873 43.9227L0.0546873 45.3113Z" fill="#3ACCE9"/>
<path d="M55.8913 0.344238V1.73731H54.5027V3.13038H53.1141V4.54003H51.709V5.9331V7.32617V8.71923V10.1123V11.5054V12.915H53.1141V11.5054H54.5027V10.1123H55.8913V8.71923H57.28V7.32617H58.6686V5.9331V4.54003V3.13038V1.73731H57.28V0.344238H55.8913Z" fill="#3ACCE9"/>
<path d="M97.7344 57.4372L96.3413 57.4372L96.3413 56.0486L94.9482 56.0486L94.9482 54.66L93.5386 54.66L93.5386 53.2549L92.1455 53.2549L90.7524 53.2549L89.3594 53.2549L87.9663 53.2549L86.5732 53.2549L85.1636 53.2549L85.1636 54.66L86.5732 54.66L86.5732 56.0486L87.9663 56.0486L87.9663 57.4372L89.3594 57.4372L89.3594 58.8259L90.7524 58.8259L90.7524 60.2145L92.1455 60.2145L93.5386 60.2145L94.9482 60.2145L96.3413 60.2145L96.3413 58.8259L97.7344 58.8259L97.7344 57.4372Z" fill="#3ACCE9"/>
<path d="M43.7532 102.403L43.7532 101.01L45.1418 101.01L45.1418 99.6172L46.5304 99.6172L46.5304 98.2075L47.9355 98.2075L47.9355 96.8145L47.9355 95.4214L47.9355 94.0283L47.9355 92.6353L47.9355 91.2422L47.9355 89.8325L46.5304 89.8325L46.5304 91.2422L45.1418 91.2422L45.1418 92.6353L43.7532 92.6353L43.7532 94.0283L42.3646 94.0283L42.3646 95.4214L40.976 95.4214L40.976 96.8145L40.976 98.2075L40.976 99.6172L40.976 101.01L42.3646 101.01L42.3646 102.403L43.7532 102.403Z" fill="#3ACCE9"/>
<path d="M6.33984 68.3005L10.1131 68.3005L10.1131 72.1064L13.8864 72.1064L17.7046 72.1064L21.4778 72.1064L25.2511 72.1064L25.2511 68.3005L29.0244 68.3005L29.0244 64.5393L32.7976 64.5393L32.7976 60.7781L36.5709 60.7781L36.5709 57.0169L40.3891 57.0169L40.3891 53.2557L36.5709 53.2557L32.7976 53.2557L29.0244 53.2557L25.2511 53.2557L21.4778 53.2557L17.7046 53.2557L17.7046 57.0169L13.8864 57.0169L13.8864 60.7781L10.1131 60.7781L10.1131 64.5393L6.33984 64.5393L6.33984 68.3005Z" fill="#3ACCE9"/>
<path d="M0.0546874 58.8092L1.44776 58.8092L1.44776 60.2144L2.84082 60.2144L4.25048 60.2144L5.64355 60.2144L7.03662 60.2144L7.03662 58.8092L8.42968 58.8092L8.42968 57.4206L9.82275 57.4206L9.82275 56.032L11.2158 56.032L11.2158 54.6434L12.6255 54.6434L12.6255 53.2548L11.2158 53.2548L9.82275 53.2548L8.42968 53.2548L7.03662 53.2548L5.64355 53.2548L4.25048 53.2548L4.25048 54.6434L2.84082 54.6434L2.84082 56.032L1.44776 56.032L1.44776 57.4206L0.0546874 57.4206L0.0546874 58.8092Z" fill="#3ACCE9"/>
<path d="M42.3817 0.344238V1.73731H40.9766V3.13038V4.54003V5.9331V7.32617H42.3817V8.71923H43.7703V10.1123H45.1589V11.5054H46.5475V12.915H47.9361V11.5054V10.1123V8.71923V7.32617V5.9331V4.54003H46.5475V3.13038H45.1589V1.73731H43.7703V0.344238H42.3817Z" fill="#3ACCE9"/>
<path d="M97.7344 43.9383L96.3413 43.9383L96.3413 42.5332L94.9482 42.5332L93.5386 42.5332L92.1455 42.5332L90.7524 42.5332L90.7524 43.9383L89.3594 43.9383L89.3594 45.327L87.9663 45.327L87.9663 46.7156L86.5732 46.7156L86.5732 48.1042L85.1636 48.1042L85.1636 49.4928L86.5732 49.4928L87.9663 49.4928L89.3594 49.4928L90.7524 49.4928L92.1455 49.4928L93.5386 49.4928L93.5386 48.1042L94.9482 48.1042L94.9482 46.7156L96.3413 46.7156L96.3413 45.327L97.7344 45.327L97.7344 43.9383Z" fill="#3ACCE9"/>
<path d="M57.2628 102.403L57.2628 101.01L58.668 101.01L58.668 99.6172L58.668 98.2075L58.668 96.8145L58.668 95.4214L57.2628 95.4214L57.2628 94.0283L55.8742 94.0283L55.8742 92.6353L54.4856 92.6353L54.4856 91.2422L53.097 91.2422L53.097 89.8325L51.7084 89.8325L51.7084 91.2422L51.7084 92.6353L51.7084 94.0283L51.7084 95.4214L51.7084 96.8145L51.7084 98.2075L53.097 98.2075L53.097 99.6172L54.4856 99.6172L54.4856 101.01L55.8742 101.01L55.8742 102.403L57.2628 102.403Z" fill="#3ACCE9"/>
<path d="M63.074 45.6867L59.2559 45.6867L59.2559 49.4927L63.074 49.4927L66.8473 49.4927L70.6206 49.4927L74.3938 49.4927L78.1671 49.4927L81.9404 49.4927L81.9404 45.6867L85.7586 45.6867L85.7586 41.9255L89.5318 41.9255L89.5318 38.1643L93.3051 38.1643L93.3051 34.4031L89.5318 34.4031L89.5318 30.6419L85.7586 30.6419L81.9404 30.6419L78.1671 30.6419L74.3938 30.6419L74.3938 34.4031L70.6206 34.4031L70.6206 38.1643L66.8473 38.1643L66.8473 41.9255L63.074 41.9255L63.074 45.6867Z" fill="#3ACCE9"/>
<path d="M63.074 57.0174L63.074 60.7786L66.8473 60.7786L66.8473 64.5398L70.6206 64.5398L70.6206 68.301L74.3938 68.301L74.3938 72.1069L78.1671 72.1069L81.9404 72.1069L85.7586 72.1069L89.5318 72.1069L89.5318 68.301L93.3051 68.301L93.3051 64.5398L89.5318 64.5398L89.5318 60.7786L85.7586 60.7786L85.7586 57.0174L81.9404 57.0174L81.9404 53.2562L78.1671 53.2562L74.3938 53.2562L70.6206 53.2562L66.8473 53.2562L63.074 53.2562L59.2559 53.2562L59.2559 57.0174L63.074 57.0174Z" fill="#3ACCE9"/>
<path d="M29.0234 79.6278L29.0234 83.3889L29.0234 87.1501L29.0234 90.9113L32.7967 90.9113L32.7967 94.7173L36.57 94.7173L36.57 90.9113L40.3882 90.9113L40.3882 87.1501L44.1614 87.1501L44.1614 83.3889L47.9347 83.3889L47.9347 79.6277L47.9347 75.8666L47.9347 72.1054L47.9347 68.2994L47.9347 64.5382L47.9347 60.777L44.1614 60.777L44.1614 64.5382L40.3882 64.5382L40.3882 68.2994L36.57 68.2994L36.57 72.1054L32.7967 72.1054L32.7967 75.8666L29.0234 75.8666L29.0234 79.6278Z" fill="#3ACCE9"/>
<path d="M66.847 94.7173L66.847 90.9113L70.6202 90.9113L70.6202 87.1501L70.6202 83.3889L70.6202 79.6277L70.6202 75.8666L66.847 75.8666L66.847 72.1054L63.0737 72.1054L63.0737 68.2994L59.2555 68.2994L59.2555 64.5382L55.4822 64.5382L55.4822 60.777L51.709 60.777L51.709 64.5382L51.709 68.2994L51.709 72.1054L51.709 75.8666L51.709 79.6278L51.709 83.3889L55.4822 83.3889L55.4822 87.1501L59.2555 87.1501L59.2555 90.9113L63.0737 90.9113L63.0737 94.7173L66.847 94.7173Z" fill="#3ACCE9"/>
<path d="M29.0234 15.5551L29.0234 19.3163L29.0234 23.0775L29.0234 26.8835L32.7967 26.8835L32.7967 30.6447L36.57 30.6447L36.57 34.4058L40.3882 34.4058L40.3882 38.167L44.1614 38.167L44.1614 41.9282L47.9347 41.9282L47.9347 38.167L47.9347 34.4058L47.9347 30.6447L47.9347 26.8835L47.9347 23.0775L47.9347 19.3163L44.1614 19.3163L44.1614 15.5551L40.3882 15.5551L40.3882 11.7939L36.57 11.7939L36.57 8.03275L32.7967 8.03275L32.7967 11.7939L29.0234 11.7939L29.0234 15.5551Z" fill="#3ACCE9"/>
<path d="M51.709 23.0775L51.709 26.8835L51.709 30.6447L51.709 34.4058L51.709 38.167L51.709 41.9282L55.4822 41.9282L55.4822 38.167L59.2555 38.167L59.2555 34.4058L63.0737 34.4058L63.0737 30.6447L66.847 30.6447L66.847 26.8835L70.6202 26.8835L70.6202 23.0775L70.6202 19.3163L70.6202 15.5551L70.6202 11.7939L66.847 11.7939L66.847 8.03274L63.0737 8.03274L63.0737 11.7939L59.2555 11.7939L59.2555 15.5551L55.4822 15.5551L55.4822 19.3163L51.709 19.3163L51.709 23.0775Z" fill="#3ACCE9"/>
</svg>
