<svg xmlns="http://www.w3.org/2000/svg" width="25" height="25" viewBox="0 0 25 25" fill="none">
  <path d="M22.5848 10.3647H21.7793V10.3232H12.7793V14.3232H18.4308C17.6063 16.6517 15.3908 18.3232 12.7793 18.3232C9.4658 18.3232 6.7793 15.6367 6.7793 12.3232C6.7793 9.00974 9.4658 6.32324 12.7793 6.32324C14.3088 6.32324 15.7003 6.90024 16.7598 7.84274L19.5883 5.01424C17.8023 3.34974 15.4133 2.32324 12.7793 2.32324C7.2568 2.32324 2.7793 6.80074 2.7793 12.3232C2.7793 17.8457 7.2568 22.3232 12.7793 22.3232C18.3018 22.3232 22.7793 17.8457 22.7793 12.3232C22.7793 11.6527 22.7103 10.9982 22.5848 10.3647Z" fill="#FFC107"/>
  <path d="M3.93164 7.66874L7.21714 10.0782C8.10614 7.87724 10.2591 6.32324 12.7786 6.32324C14.3081 6.32324 15.6996 6.90024 16.7591 7.84274L19.5876 5.01424C17.8016 3.34974 15.4126 2.32324 12.7786 2.32324C8.93764 2.32324 5.60664 4.49174 3.93164 7.66874Z" fill="#FF3D00"/>
  <path d="M12.7795 22.3231C15.3625 22.3231 17.7095 21.3346 19.484 19.7271L16.389 17.1081C15.3512 17.8973 14.0832 18.3241 12.7795 18.3231C10.1785 18.3231 7.96995 16.6646 7.13795 14.3501L3.87695 16.8626C5.53195 20.1011 8.89295 22.3231 12.7795 22.3231Z" fill="#4CAF50"/>
  <path d="M22.5848 10.3647H21.7793V10.3232H12.7793V14.3232H18.4308C18.0364 15.4314 17.326 16.3998 16.3873 17.1087L16.3888 17.1077L19.4838 19.7267C19.2648 19.9257 22.7793 17.3232 22.7793 12.3232C22.7793 11.6527 22.7103 10.9982 22.5848 10.3647Z" fill="#1976D2"/>
</svg>