<?xml version="1.0" encoding="UTF-8"?><svg id="_Слой_2" xmlns="http://www.w3.org/2000/svg" viewBox="0 0 375 48.89"><defs><style>.cls-1{fill:#c8c8c8;}</style></defs><g id="_Слой_1-2"><g><polygon class="cls-1" points="60.14 40.78 50.48 40.78 43.43 48.89 45.53 48.89 51.21 42.36 59.4 42.36 64.93 48.89 67.01 48.89 60.14 40.78"/><polygon class="cls-1" points="0 40.78 0 42.36 4.16 42.36 9.77 48.89 11.87 48.89 4.89 40.78 0 40.78"/><polygon class="cls-1" points="166.36 40.78 156.7 40.78 149.64 48.89 151.75 48.89 157.43 42.36 165.61 42.36 171.15 48.89 173.23 48.89 166.36 40.78"/><polygon class="cls-1" points="111.11 40.78 101.46 40.78 94.31 48.89 96.43 48.89 102.18 42.36 110.38 42.36 115.99 48.89 118.09 48.89 111.11 40.78"/><polygon class="cls-1" points="272.42 40.78 262.76 40.78 255.7 48.89 257.81 48.89 263.49 42.36 271.67 42.36 277.21 48.89 279.29 48.89 272.42 40.78"/><polygon class="cls-1" points="217.17 40.78 207.52 40.78 200.37 48.89 202.49 48.89 208.24 42.36 216.44 42.36 222.05 48.89 224.14 48.89 217.17 40.78"/><path class="cls-1" d="m80.56,26.19l-9.35,9.3,9.35,9.3,9.35-9.3-9.35-9.3Zm-7.09,9.3l7.09-7.06,7.09,7.06-7.09,7.06-7.09-7.06Z"/><path class="cls-1" d="m187.15,26.19l-9.35,9.3,9.35,9.3,9.35-9.3-9.35-9.3Zm-7.1,9.3l7.1-7.06,7.09,7.06-7.09,7.06-7.1-7.06Z"/><path class="cls-1" d="m294.1,26.19l-9.35,9.3,9.35,9.3,9.35-9.3-9.35-9.3Zm-7.09,9.3l7.09-7.06,7.1,7.06-7.1,7.06-7.09-7.06Z"/><path class="cls-1" d="m141.98,26.34v-9.6l-8.16-6.96-8.17,6.96v9.6l8.17,7.12,8.16-7.12Zm-14.73-8.88l6.57-5.6,6.57,5.6v8.16l-6.57,5.73-6.57-5.73v-8.16Z"/><path class="cls-1" d="m35.77,26.34v-9.6l-8.16-6.96-8.17,6.96v9.6l8.17,7.12,8.16-7.12Zm-14.73-8.88l6.57-5.6,6.56,5.6v8.16l-6.56,5.73-6.57-5.73v-8.16Z"/><path class="cls-1" d="m248.04,26.34v-9.6l-8.16-6.96-8.17,6.96v9.6l8.17,7.12,8.16-7.12Zm-14.73-8.88l6.57-5.6,6.57,5.6v8.16l-6.57,5.73-6.57-5.73v-8.16Z"/><path class="cls-1" d="m355.91,26.34v-9.6l-8.16-6.96-8.17,6.96v9.6l8.17,7.12,8.16-7.12Zm-14.73-8.88l6.57-5.6,6.57,5.6v8.16l-6.57,5.73-6.57-5.73v-8.16Z"/><polygon class="cls-1" points="363.57 48.89 365.68 48.89 371.36 42.36 375 42.36 375 40.78 370.63 40.78 363.57 48.89"/><polygon class="cls-1" points="325.04 40.78 315.39 40.78 308.24 48.89 310.36 48.89 316.11 42.36 324.31 42.36 329.92 48.89 332.01 48.89 325.04 40.78"/><path class="cls-1" d="m21.19,48.41h4.91l-12.83-12.55.33-.02h.67s0-.34,0-.34l.02-.74,12.65,12.57v-4.58l.55.49.83-.73v4.77l12.39-12.15v.71h0s1.04,0,1.04,0l-12.59,12.56h4.85l-.42.48h2.12l1.81-2.07h0l9.64-10.98h16.19l11.18,13.04h2.09l-11.86-13.84,10.23-10.9h11.21l10.48,11.17-11.92,13.57h2.11l11.46-13.04h16.19l11.18,13.04h2.09l-.41-.48h4.91l-12.83-12.55.33-.02h.68s0-.49,0-.49l.02-.59,12.65,12.57v-4.58l.55.49.83-.73v4.77l12.39-12.16v.72h1.04l-12.59,12.56h4.85l-.42.48h2.12l1.81-2.07h0l9.64-10.98h16.19l11.18,13.04h2.09l-11.86-13.84,10.23-10.9h11.05l10.48,11.17-11.92,13.57h2.11l11.46-13.04h16.19l11.18,13.04h2.09l-.41-.48h4.91l-12.83-12.55.33-.02h.68s0-.47,0-.47l.02-.62,12.65,12.57v-4.58l.55.49.83-.73v4.77l12.39-12.16v.72h1.04l-12.59,12.56h4.85l-.42.48h2.12l1.81-2.07h0l9.64-10.98h16.19l11.18,13.04h2.09l-11.86-13.84,10.23-10.9h12.86l10.48,11.17-11.92,13.57h2.11l11.46-13.04h16.19l11.18,13.04h2.1l-.41-.48h4.91l-12.83-12.55.33-.02h.67s0-.3,0-.3l.02-.78,12.65,12.57v-4.58l.55.49.83-.73v4.77l12.39-12.15v.71h0s1.04,0,1.04,0l-12.59,12.56h4.85l-.42.48h2.12l1.81-2.07h0l9.64-10.98h7.68v-1.62l-12.54.03V13.3h0l10.09-9.41v20.26h2.45v-1.59h-.83v-8.51h.83v-1.59h-.86V.23l-12.52,11.68-13.98-11.91-13.97,11.92L321.16.23v12.24h-8.41v-3.67h-5.28v5.25h3.68v8.52h-34.88v-8.52h3.68v-5.25h-5.27v3.67h-8.41V.23l-12.52,11.68-13.98-11.92-13.97,11.92L213.29.23v12.24h-8.41v-3.67h-5.28v5.25h3.68v8.52h-33.06v-8.52h3.68v-5.25h-5.28v3.67h-8.41V.23l-12.52,11.68-13.98-11.92-13.97,11.92L107.23.23v12.24h-8.41v-3.67h-5.28v5.25h3.68v8.52h-33.22v-8.52h3.68v-5.25h-5.28v3.67h-8.41V.23l-12.52,11.68L27.5,0l-13.97,11.92L1.01.23v22.31H0v1.62l2.61-.03v-11.66s0,0,0,0V3.89l10.08,9.41v16.98h0v3.98l-12.69-.03v1.62h8.33l11.18,13.04h2.1l-.41-.48Zm342.97-12.57h1.05s-9.65,10.98-9.65,10.98h-2.4l11-10.98Zm-3.3-2.94l-10.8,10.6v-2.38l10.8-9.44v1.22Zm-26.44-19.54l13.21-11.27,13.22,11.27v16.21l-11.92,10.42-1.3,1.14-2.15-1.88h0s-11.07-9.68-11.07-9.68V13.36Zm0,18.31l11.07,9.69v2.15l-11.07-11v-.84Zm7.93,15.15h-2.38l-9.42-10.98h.56s11.23,10.98,11.23,10.98Zm-29.61-32.76h0s8.41,0,8.41,0v8.49h-8.41v-8.49Zm-3.68-1.59v-2.08h2.09v2.08h0s-2.09,0-2.09,0Zm-4.29,11.69h0s17.98,0,17.98,0v-.03h0v-11.66h0V3.89l10.09,9.41v20.95l-21.08-.05h0l-9.44-10.05h2.44Zm-28.49-13.77h2.09v2.08h-2.09v-2.08Zm-28.58,36.43h-2.4l11-10.98h1.05s-9.65,10.98-9.65,10.98Zm18.6-32.77h8.38v8.51h-8.38v-8.51Zm-11.71,17.28V13.3h0l10.09-9.41v20.26h20.42l-9.44,10.05-21.07.05v-2.92Zm-1.59,1.56l-10.8,10.6v-2.38l10.8-9.44v1.23Zm-26.44-19.54l13.21-11.27,13.22,11.27v16.21l-13.22,11.56-2.15-1.88h0s-11.07-9.68-11.07-9.68V13.36Zm0,18.31l11.07,9.69v2.15l-11.07-11v-.84Zm7.93,15.15h-2.38l-9.42-10.98h.56s11.23,10.98,11.23,10.98Zm-29.61-32.76h0s8.41,0,8.41,0v8.49h-8.41v-8.49Zm-3.68-1.59v-2.08h2.09v2.08h0s-2.09,0-2.09,0Zm-4.6,11.69h0s18.29,0,18.29,0V3.89l10.08,9.41v20.95l-21.08-.05h0l-9.44-10.05h2.14Zm-26.38-13.77h2.09v2.08h-2.09v-2.08Zm-28.58,36.43h-2.4l11-10.98h1.05s-9.65,10.98-9.65,10.98Zm18.6-32.77h8.39v8.51h-8.39v-8.51Zm-11.71,17.28V13.3l10.09-9.41v20.26h19.09s1.34,0,1.34,0l-9.44,10.05-21.07.05v-2.92Zm-1.59,1.56l-10.8,10.59v-2.38l10.8-9.44v1.23Zm-26.44-19.54l13.21-11.27,13.22,11.27v16.21l-13.22,11.56-2.15-1.88h0s-11.07-9.68-11.07-9.68V13.36Zm0,18.31l11.07,9.69v2.15l-11.07-11v-.84Zm7.93,15.15h-2.38l-9.42-10.98h.56s11.23,10.98,11.23,10.98Zm-29.61-32.76h0s8.41,0,8.41,0v8.49h-8.41v-8.49Zm-3.68-1.59v-2.08h2.09v2.08h0s-2.09,0-2.09,0Zm-5,11.69h0s18.69,0,18.69,0V3.89l10.09,9.41v20.95l-21.08-.05h0l-9.44-10.05h1.74Zm-26.14-13.77h2.09v2.08h-2.09v-2.08Zm-28.58,36.43h-2.4l11-10.98h1.05s-9.65,10.98-9.65,10.98ZM54.02,14.06h8.38v8.51h-8.38v-8.51Zm-11.71-.75h0l10.09-9.41v20.26h18.85s1.58,0,1.58,0l-9.44,10.05-21.07.05v-2.92h0s0-18.03,0-18.03Zm-1.59,19.6l-10.8,10.59v-2.38l10.8-9.44v1.23ZM14.28,13.36L27.5,2.09l13.22,11.27v16.21l-13.22,11.56-2.15-1.88h0s-11.07-9.68-11.07-9.68V13.36Zm0,18.31l11.07,9.69v2.15l-11.07-11v-.84Zm-3.87,4.17h.56s11.23,10.98,11.23,10.98h-2.38l-9.42-10.98Z"/></g></g></svg>