<?xml version="1.0" encoding="utf-8"?>
<!-- Generator: Adobe Illustrator 27.1.1, SVG Export Plug-In . SVG Version: 6.00 Build 0)  -->
<svg version="1.1" id="_Слой_2" xmlns="http://www.w3.org/2000/svg" xmlns:xlink="http://www.w3.org/1999/xlink" x="0px"
	 y="0px" viewBox="0 0 1929 123.6" style="enable-background:new 0 0 1929 123.6;" xml:space="preserve">
<style type="text/css">
	.st0{fill:#BCBCBC;}
</style>
<g id="_Слой_1-2">
	<g>
		<path class="st0" d="M72,89.2l-30.1,34.5h5.4l0,0l29-33.2l40.8,0.1l23.2,27.2H140l5.1,5.9h5.1l0.1-0.1l-1.7-2h12.1l-31-31h2v-0.1
			v-2.8l31.8,31.9v-11.6l1.4,1.2l1.7-1.5v12.3l31.5-31.4v2h2.8l-31.2,31.2h12l-1.7,1.9l0,0h5.4l5.1-5.8h-0.1l23.9-27.4h40.7
			l28.3,33.2l0,0h5.2l0,0l-30-35.2L284.3,61h28.3l26.3,28.1l-30.1,34.5l0,0h5.3l0,0l29-33.2l40.8,0.1l23.2,27.2h-0.2l5.1,5.9h5.2
			l0,0l0-0.1l0-0.1l-1.7-2h12.1l-31-31h2.1v-2.8l31.7,31.8v-11.6l1.4,1.2l1.7-1.5v12.3L465,88.5v2h2.8l-31.2,31.2h12l-1.7,1.9l0,0
			h5.4l5.1-5.8h-0.1l23.9-27.4h40.7l28.3,33.2l0,0h5.2l0,0l-30-35.2L551.1,61H579l26.3,28.1l-30.1,34.5l0,0h5.3l0,0l29-33.2
			l40.8,0.1l23.2,27.2h-0.2l5.2,5.9h5.2l0,0l0-0.1l0-0.1l-1.7-2H694l-31-31h2.1v-2.8l31.7,31.8v-11.6l1.4,1.2l1.7-1.5v12.3
			l31.5-31.4v2h2.8L703,121.7h12l-1.7,1.9l0,0h5.4l5.1-5.8h-0.1l23.9-27.4h40.7l28.3,33.2l0,0h5.2l0,0l-30-35.2L817.5,61h32.4
			l26.3,28.1l-30.1,34.5l0,0h5.3l0,0l29-33.2l40.8,0.1l23.2,27.2h-0.2l5.2,5.9h5.2l0,0l0-0.1l0-0.1l-1.7-2H965l-31-31h2.1v-2.8
			l31.7,31.8v-11.6l1.4,1.2l1.7-1.5V120l31.5-31.4v2h2.8L974,121.8h12l-1.7,1.9h5.4l5.1-5.8h0l23.9-27.4h40.7l28.3,33.2l0,0h5.2l0,0
			l-30-35.2l25.6-27.4h26l26.3,28.1l-30.2,34.5h5.4l0,0l29-33.2l40.8,0.1l23.2,27.2h-0.2l5.2,5.9h5.1l0.1-0.1l-1.7-2h12.1l-31-31
			h2.1v-2.8l31.7,31.8v-11.6l1.4,1.2l1.7-1.5V120l31.5-31.4v1.9l0,0v0.1h2.8l-31.2,31.2h12l-1.7,1.9l0,0h5.4l5.1-5.8h-0.1l23.9-27.4
			h40.7l28.3,33.2l0,0h5.2l0,0l-30-35.2l25.6-27.4h29.2l26.3,28.1l-30.1,34.5l0,0h5.3l0,0l29-33.2l40.8,0.1l23.2,27.2h-0.1l4.3,5
			l0.8,0.9l0,0h5.2l0,0l0-0.1l0-0.1l-1.7-2h12.1l-31-31h2.1v-2.8l31.7,31.8v-11.7l0.8,0.7l0.7,0.6l1.6-1.4V120l31.5-31.4v2h2.8
			l-31.2,31.2h12l-1.7,1.9h5.5l5.1-5.8h-0.1l23.9-27.4h40.7l28.3,33.2l0,0h5.2l0,0l-30-35.2l25.6-27.4h26l26.3,28.1l-30.1,34.5l0,0
			h5.3l0,0l29-33.2l40.8,0.1l23.2,27.2h-0.2l5.2,5.9h5.2l0,0l0-0.1l0-0.1l-1.7-2h12.1l-31-31h2.1v-2.8l31.7,31.8V108l1.4,1.2
			l1.7-1.5V120l31.5-31.4v2h2.8l-31.2,31.2h12l-1.7,1.9l0,0h5.4l5.1-5.8h-0.1l23.9-27.4h40.7l28.3,33.2l0,0h5.2l0,0l-29.9-35.1
			l25.7-27.5h43.6v-4h-39.9l0.1-0.1h-31.5V35.5h9.2V22.8h-13.3v8.8h-20.9v-31h-0.1l-31.5,29.5L1766.1,0l-35.1,30.1l-31.4-29.5v30.9
			h-21.2v-8.8h-13.2v12.7h9.2V57h-49.8l0.1-0.1h-31.5V35.4h9.3V22.7h-13.3v8.8h-21V0.6h-0.1l-31.4,29.5L1501.6,0l-35.1,30.1
			L1435,0.6v30.9h-21.2v-8.8h-13.2v12.7h9.3V57h-53.1l0.1-0.1h-31.4V35.4h9.2V22.7h-13.3v8.8h-21V0.6h-0.1l-31.4,29.5L1233.8,0
			l-35.1,30.1l-31.4-29.5v30.9h-21.2v-8.8h-13.2v12.7h9.2V57h-49.8l0.1-0.1h-31.5V35.4h9.3V22.7h-13.3v8.8h-21V0.6h-0.1l-31.5,29.5
			L969.1,0L934,30.1L902.6,0.6v30.9h-21.1v-8.8h-13.2v12.7h9.2V57h-56.3l0.1-0.1h-31.4V35.4h9.2V22.7h-13.3v8.8h-21V0.6h-0.1
			l-31.4,29.5L698.2,0l-35.1,30.1L631.7,0.6v30.9h-21.2v-8.8h-13.2v12.7h9.2V57h-51.7l0.1-0.1h-31.4V35.4h9.3V22.7h-13.3v8.8h-21.1
			V0.6h-0.1l-31.4,29.5L431.8,0l-35.1,30.1L365.3,0.6v30.9h-21.2v-8.8h-13.2v12.7h9.2V57H288l0.1-0.1h-31.4V35.4h9.2V22.7h-13.3v8.8
			h-21.1V0.6l-31.4,29.5L165,0l-35.1,30.1L98.5,0.6v30.9H77.4v-8.8H64.1v12.7h9.2V57H0v4h45.6L72,89.2z M340.1,31.4h-5.2v-4.7h5.2
			C340.1,26.7,340.1,31.4,340.1,31.4z M606.5,31.4h-5.2v-4.7h5.2C606.5,26.7,606.5,31.4,606.5,31.4z M877.4,31.4h-5.2v-4.7h5.2
			C877.4,26.7,877.4,31.4,877.4,31.4z M1142,31.4h-5.2v-4.7h5.2C1142,26.7,1142,31.4,1142,31.4z M1409.7,31.4h-5.2v-4.7h5.2
			C1409.7,26.7,1409.7,31.4,1409.7,31.4z M1674.3,31.4h-5.2v-4.7h5.2C1674.3,26.7,1674.3,31.4,1674.3,31.4z M1853.7,56.6h-20.6V35.5
			h20.6V56.6z M1857.7,31.4v-4.7h5.3v4.7H1857.7z M1803.2,86.4V33.5l0,0l25.3-23.7v51.1h51.3l-23.7,25.4L1803.2,86.4L1803.2,86.4z
			 M1807.9,90.4h2.2l-23.9,27.4h-5.7C1780.5,117.8,1807.9,90.4,1807.9,90.4z M1771.7,104.1l27.6-24.3v3.1l-27.6,27.5V104.1z
			 M1732.9,80l27.7,24.3v5.7l-27.7-27.9V80L1732.9,80z M1732.9,33.6L1766,5.2l33.2,28.5v40.9l-33.2,29.2l-33.1-29.1V33.6
			L1732.9,33.6z M1698.9,56.6h-20.6V35.5h20.6V56.6z M1723.2,90.5h1.8l27.2,27.2h-5.8L1723.2,90.5L1723.2,90.5z M1652.3,61h5.4v-0.1
			h45.8V9.8l25.3,23.7v52.9l-52.9-0.1L1652.3,61L1652.3,61z M1589.2,56.6h-20.6V35.5h20.6C1589.2,35.5,1589.2,56.6,1589.2,56.6z
			 M1593.1,31.4v-4.7h5.3v4.7H1593.1z M1538.7,86.4V33.5l0,0L1564,9.8v51.1h46.3V61h4.9l-23.6,25.3L1538.7,86.4L1538.7,86.4z
			 M1543.4,90.4h2.2l-23.9,27.4h-5.7C1516,117.8,1543.4,90.4,1543.4,90.4z M1507.2,104.1l27.5-24.2V83l-27.5,27.4
			C1507.2,110.4,1507.2,104.1,1507.2,104.1z M1468.3,74.6V33.7l33.2-28.5l33.2,28.5v40.9l-33.2,29.2L1468.3,74.6z M1468.3,79.9
			l27.8,24.4v5.7l-27.8-28C1468.3,82,1468.3,79.9,1468.3,79.9z M1434.4,56.6h-20.6V35.5h20.6V56.6z M1458.6,90.5h1.9l27.2,27.2h-5.9
			L1458.6,90.5z M1387.7,61h3v-0.1h48.2V9.8l25.3,23.7v52.9l-52.9-0.1L1387.7,61L1387.7,61z M1321.4,56.6h-20.6V35.5h20.6
			C1321.4,35.5,1321.4,56.6,1321.4,56.6z M1325.4,31.4v-4.7h5.3v4.7H1325.4z M1270.9,86.4V33.5l0,0l25.3-23.7v51.1h47.1V61h4.1
			l-23.6,25.3C1323.8,86.3,1270.9,86.4,1270.9,86.4z M1275.6,90.4h2.2l-23.9,27.4h-5.7C1248.2,117.8,1275.6,90.4,1275.6,90.4z
			 M1239.4,104.1l27.5-24.2V83l-27.5,27.4C1239.4,110.4,1239.4,104.1,1239.4,104.1z M1200.6,80l27.7,24.3v5.7l-27.7-27.9V80
			L1200.6,80z M1200.6,33.6l33.1-28.4l33.2,28.5v40.9l-33.2,29.2l-33.1-29.1V33.6L1200.6,33.6z M1166.6,56.6H1146V35.5h20.6V56.6z
			 M1190.9,90.5h1.8l27.2,27.2h-6L1190.9,90.5L1190.9,90.5z M1119.9,61h10.3v-0.1h40.9V9.8l25.3,23.7v52.9l-52.9-0.1L1119.9,61
			L1119.9,61z M1056.8,56.6h-20.6V35.5h20.6C1056.8,35.5,1056.8,56.6,1056.8,56.6z M1060.8,31.4v-4.7h5.3v4.7H1060.8z M1006.3,86.4
			V79l0,0V33.5l0,0l25.3-23.7v51.1h51.2V61l0,0l-23.6,25.3L1006.3,86.4L1006.3,86.4z M1011,90.4h2.3l-24,27.4h-5.8L1011,90.4
			L1011,90.4z M974.8,104.1l27.6-24.3v3.1l-27.6,27.5V104.1z M936,80l27.7,24.3v5.7L936,82.1V80L936,80z M936,33.6l33.1-28.4
			l33.2,28.5v40.9l-33.2,29.2L936,74.7V33.6L936,33.6z M902.1,56.6h-20.6V35.5h20.6V56.6z M926.3,90.5h1.8l27.2,27.2h-5.8
			L926.3,90.5z M855.4,61h6v-0.1h45.2V9.8l25.3,23.7v52.9L879,86.3L855.4,61L855.4,61z M785.9,56.6h-20.6V35.5h20.6
			C785.9,35.5,785.9,56.6,785.9,56.6z M789.9,31.4v-4.7h5.3v4.7H789.9z M735.4,86.4V79l0,0v-2.6l0,0V33.5l25.3-23.7v51.1H812
			l-23.7,25.4L735.4,86.4L735.4,86.4z M740.1,90.4h2.2l-24,27.4h-5.7C712.7,117.8,740.1,90.4,740.1,90.4z M703.9,104.1l27.5-24.2V83
			l-27.5,27.4C703.9,110.4,703.9,104.1,703.9,104.1z M665.1,80l27.7,24.3v5.7l-27.7-27.9V80L665.1,80z M665.1,33.6l33.1-28.4
			l33.2,28.5v40.9l-33.2,29.2l-33.1-29.1V33.6L665.1,33.6z M631.1,56.6h-20.6V35.5h20.6V56.6z M655.4,90.5h1.8l27.2,27.2h-5.8
			L655.4,90.5z M584.4,61h5.3v-0.1h45.9V9.8l25.3,23.7v52.9L608,86.3L584.4,61L584.4,61z M519.5,56.6h-20.6V35.5h20.6
			C519.5,35.5,519.5,56.6,519.5,56.6z M523.5,31.4v-4.7h5.3v4.7H523.5z M469,86.4V33.5l25.3-23.7v51.1h48V61h3.2l-23.6,25.3
			L469,86.4L469,86.4z M473.7,90.4h2.2l-24,27.4h-5.7L473.7,90.4L473.7,90.4z M437.5,104.1L465,79.9V83l-27.5,27.4
			C437.5,110.4,437.5,104.1,437.5,104.1z M398.7,80l27.7,24.3v5.7l-27.7-27.9V80L398.7,80z M398.7,33.6l33.1-28.4L465,33.7v40.9
			l-33.2,29.2l-33.1-29.1V33.6L398.7,33.6z M364.7,56.6h-20.6V35.5h20.6V56.6z M389,90.5h1.8l27.2,27.2h-5.8L389,90.5z M318,61h4.3
			v-0.1h46.9V9.8l25.3,23.7v52.9l-52.9-0.1L318,61L318,61z M252.7,56.6h-20.6V35.5h20.6C252.7,35.5,252.7,56.6,252.7,56.6z
			 M256.7,31.4v-4.7h5.3v4.7H256.7z M202.2,86.4V33.5l25.3-23.7v51.1h47.4V61h3.8l-23.6,25.3C255.1,86.3,202.2,86.4,202.2,86.4z
			 M206.9,90.4h2.2l-23.9,27.4h-5.7L206.9,90.4L206.9,90.4z M170.7,104.1l27.5-24.2V83l-27.5,27.4
			C170.7,110.4,170.7,104.1,170.7,104.1z M131.8,79.9l27.8,24.4v5.7l-27.8-28V79.9L131.8,79.9z M131.8,33.7L165,5.2l33.2,28.5v40.9
			L165,103.8l-33.2-29.2V33.7z M73.4,31.4h-5.3v-4.7h5.3V31.4z M97.9,56.6H77.3V35.5h20.6V56.6z M122.2,90.5h1.8l27.2,27.2h-6
			L122.2,90.5z M74.9,86.3L51.1,60.9h51.4V9.8l25.3,23.7v52.9L74.9,86.3L74.9,86.3z"/>
		<path class="st0" d="M165.3,24.7l-20.5,17.5v24.2l20.5,18l20.5-18V42.2L165.3,24.7z M148.8,44l16.5-14.1L181.8,44v20.6l-16.5,14.5
			l-16.5-14.5V44z"/>
		<polygon class="st0" points="222.8,102.9 247,102.9 264.5,123.6 264.5,123.6 259.2,123.6 259.2,123.6 245.1,106.9 224.5,106.9 
			210,123.6 210,123.6 204.8,123.6 204.8,123.6 		"/>
		<polygon class="st0" points="108.2,103.4 125.5,123.6 120.3,123.6 106.4,107.4 85.8,107.4 71.5,123.6 66.2,123.6 84,103.4 		"/>
		<path class="st0" d="M432.1,24.7l-20.5,17.5v24.2l20.5,18l20.5-18V42.2L432.1,24.7z M415.6,44l16.5-14.1L448.6,44v20.6l-16.5,14.5
			l-16.5-14.5V44z"/>
		<polygon class="st0" points="489.5,102.9 513.8,102.9 531.2,123.6 531.2,123.6 526.1,123.6 526.1,123.6 512,106.9 491.4,106.9 
			476.9,123.6 476.9,123.6 471.5,123.6 471.5,123.6 		"/>
		<polygon class="st0" points="375,103.4 392.3,123.6 387.1,123.6 373.2,107.4 352.6,107.4 338.3,123.6 333,123.6 350.8,103.4 		"/>
		<path class="st0" d="M698.5,24.7L678,42.2v24.2l20.5,18l20.5-18V42.2L698.5,24.7z M682,44l16.5-14.1L715,44v20.6l-16.5,14.5
			L682,64.6V44z"/>
		<polygon class="st0" points="756,102.9 780.2,102.9 797.7,123.6 797.7,123.6 792.5,123.6 792.5,123.6 778.4,106.9 757.8,106.9 
			743.3,123.6 743.3,123.6 738,123.6 738,123.6 		"/>
		<polygon class="st0" points="641.4,103.4 658.7,123.6 653.5,123.6 639.6,107.4 619,107.4 604.7,123.6 599.4,123.6 617.2,103.4 		
			"/>
		<path class="st0" d="M969.4,24.7l-20.5,17.5v24.2l20.5,18l20.5-18V42.2L969.4,24.7z M952.9,44l16.5-14.1L985.9,44v20.6l-16.5,14.5
			l-16.5-14.5V44z"/>
		<polygon class="st0" points="1026.9,102.9 1051.1,102.9 1068.6,123.6 1068.6,123.6 1063.4,123.6 1063.4,123.6 1049.3,106.9 
			1028.7,106.9 1014.2,123.6 1014.2,123.6 1008.9,123.6 1008.9,123.6 		"/>
		<polygon class="st0" points="912.4,103.4 929.7,123.6 924.4,123.6 910.5,107.4 889.9,107.4 875.6,123.6 870.4,123.6 888.2,103.4 
					"/>
		<path class="st0" d="M1234,24.7l-20.5,17.5v24.2l20.5,18l20.5-18V42.2L1234,24.7z M1217.5,44l16.5-14.1l16.5,14.1v20.6L1234,79.1
			l-16.5-14.5V44z"/>
		<polygon class="st0" points="1291.5,102.9 1315.7,102.9 1333.2,123.6 1333.2,123.6 1328,123.6 1328,123.6 1313.9,106.9 
			1293.3,106.9 1278.8,123.6 1278.8,123.6 1273.5,123.6 1273.5,123.6 		"/>
		<polygon class="st0" points="1176.9,103.4 1194.2,123.6 1189,123.6 1175.1,107.4 1154.5,107.4 1140.2,123.6 1134.9,123.6 
			1152.7,103.4 		"/>
		<path class="st0" d="M1501.7,24.7l-20.5,17.5v24.2l20.5,18l20.5-18V42.2L1501.7,24.7z M1485.2,44l16.5-14.1l16.5,14.1v20.6
			l-16.5,14.5l-16.5-14.5V44z"/>
		<polygon class="st0" points="1559.2,102.9 1583.4,102.9 1600.9,123.6 1600.9,123.6 1595.7,123.6 1595.7,123.6 1581.6,106.9 
			1561,106.9 1546.5,123.6 1546.5,123.6 1541.2,123.6 1541.2,123.6 		"/>
		<polygon class="st0" points="1444.7,103.4 1462,123.6 1456.7,123.6 1442.8,107.4 1422.2,107.4 1407.9,123.6 1402.7,123.6 
			1420.5,103.4 		"/>
		<path class="st0" d="M1766.3,24.7l-20.5,17.5v24.2l20.5,18l20.5-18V42.2L1766.3,24.7z M1749.8,44l16.5-14.1l16.5,14.1v20.6
			l-16.5,14.5l-16.5-14.5V44z"/>
		<polygon class="st0" points="1823.8,102.9 1848,102.9 1865.5,123.6 1865.5,123.6 1860.3,123.6 1860.3,123.6 1846.2,106.9 
			1825.6,106.9 1811.1,123.6 1811.1,123.6 1805.8,123.6 1805.8,123.6 		"/>
		<polygon class="st0" points="1709.2,103.4 1726.5,123.6 1721.3,123.6 1707.4,107.4 1686.8,107.4 1672.5,123.6 1667.2,123.6 
			1685,103.4 		"/>
		<path class="st0" d="M274.8,88.6l23.5,23.5l23.5-23.5l-23.5-23.5L274.8,88.6z M298.2,106.4l-17.8-17.8l17.8-17.8L316,88.6
			L298.2,106.4z"/>
		<path class="st0" d="M27.7,65.1L4.2,88.6l23.5,23.5l23.5-23.5L27.7,65.1z M27.6,70.8l17.9,17.8l-17.8,17.8L9.8,88.6
			C9.8,88.6,27.6,70.8,27.6,70.8z"/>
		<path class="st0" d="M542.5,88.6l23.5,23.5l23.5-23.5L566,65.1L542.5,88.6z M566,106.4l-17.8-17.8L566,70.8l17.8,17.8L566,106.4z"
			/>
		<path class="st0" d="M811.2,88.6l23.5,23.5l23.5-23.5l-23.5-23.5L811.2,88.6z M834.6,106.4l-17.8-17.8l17.8-17.8l17.8,17.8
			L834.6,106.4z"/>
		<path class="st0" d="M1078.6,88.6l23.5,23.5l23.5-23.5l-23.5-23.5L1078.6,88.6z M1084.3,88.6l17.8-17.8l17.8,17.8l-17.8,17.8
			C1102.1,106.4,1084.3,88.6,1084.3,88.6z"/>
		<path class="st0" d="M1345,88.6l23.5,23.5l23.5-23.5l-23.5-23.5L1345,88.6z M1368.5,106.4l-17.8-17.8l17.8-17.8l17.8,17.8
			L1368.5,106.4z"/>
		<path class="st0" d="M1610.5,88.6l23.5,23.5l23.5-23.5L1634,65.1L1610.5,88.6z M1634,106.4l-17.8-17.8l17.8-17.8l17.8,17.8
			L1634,106.4z"/>
		<path class="st0" d="M1902.3,112.1l23.5-23.5l-23.5-23.5l-23.5,23.5L1902.3,112.1z M1920.1,88.6l-17.8,17.8l-17.8-17.8l17.8-17.8
			C1902.3,70.8,1920.1,88.6,1920.1,88.6z"/>
	</g>
</g>
</svg>
