<svg xmlns="http://www.w3.org/2000/svg" width="39" height="21" viewBox="0 0 39 21" fill="none">
  <path d="M36.2105 0.737793H2.85477C1.51696 0.737793 0.431641 1.79953 0.431641 3.10828C0.431641 4.41702 1.51696 5.47876 2.85477 5.47876H36.2105C37.5483 5.47876 38.6355 4.41702 38.6355 3.10828C38.6355 1.79953 37.5502 0.737793 36.2105 0.737793Z" fill="black"/>
  <path d="M36.2105 8.12939H2.85477C1.51696 8.12939 0.431641 9.19114 0.431641 10.4999C0.431641 11.8086 1.51696 12.8704 2.85477 12.8704H36.2105C37.5483 12.8704 38.6355 11.8086 38.6355 10.4999C38.6355 9.19114 37.5502 8.12939 36.2105 8.12939Z" fill="black"/>
  <path d="M36.2105 15.5212H2.85477C1.51696 15.5212 0.431641 16.583 0.431641 17.8917C0.431641 19.2005 1.51696 20.2622 2.85477 20.2622H36.2105C37.5483 20.2622 38.6355 19.2005 38.6355 17.8917C38.6355 16.583 37.5502 15.5212 36.2105 15.5212Z" fill="black"/>
</svg>