<svg xmlns="http://www.w3.org/2000/svg" width="13" height="13" viewBox="0 0 13 13" fill="none">
  <path fill-rule="evenodd" clip-rule="evenodd" d="M5.23255 1.19724C6.09269 0.263679 7.56711 0.263679 8.42726 1.19724L12.337 5.44064C12.7067 5.84161 12.9118 6.36726 12.9118 6.91245V11.3995C12.9118 12.1194 12.3283 12.7028 11.6085 12.7028H2.0513C1.33147 12.7028 0.748047 12.1194 0.748047 11.3995V6.91245C0.748047 6.36726 0.953091 5.84161 1.32278 5.44064L5.23255 1.19724ZM5.52665 11.834H8.13316V7.9242H5.52665V11.834ZM4.65781 11.834H2.0513C1.8115 11.834 1.61688 11.6393 1.61688 11.3995V6.91245C1.61688 6.58534 1.73983 6.26994 1.96181 6.02927L5.87158 1.78587C6.38767 1.22591 7.27214 1.22591 7.78823 1.78587L11.698 6.02927C11.92 6.26994 12.0429 6.58534 12.0429 6.91245V11.3995C12.0429 11.6393 11.8483 11.834 11.6085 11.834H9.00199V7.9242C9.00199 7.44417 8.61319 7.05537 8.13316 7.05537H5.52665C5.04662 7.05537 4.65781 7.44417 4.65781 7.9242V11.834Z" fill="#D7D7D7"/>
</svg>