<svg aria-hidden="true" style="position: absolute; width: 0; height: 0; overflow: hidden;" version="1.1" xmlns="http://www.w3.org/2000/svg" xmlns:xlink="http://www.w3.org/1999/xlink">
<defs>
<symbol id="icon-Group-7117" viewBox="0 0 41 32">
<path d="M13.18 13.431c3.456 0 6.255-2.807 6.255-6.255 0-3.456-2.799-6.255-6.255-6.255s-6.255 2.799-6.255 6.255c0 3.448 2.799 6.255 6.255 6.255zM13.18 16.559c-4.167 0-12.51 2.088-12.51 6.255v3.127h25.020v-3.127c0-4.167-8.343-6.255-12.51-6.255z"></path>
<path stroke-linejoin="miter" stroke-linecap="butt" stroke-miterlimit="4" stroke-width="1.5238" d="M12.417 29.827v0.762h26.544v-3.889c0-1.322-0.667-2.422-1.614-3.295-0.941-0.868-2.207-1.562-3.557-2.102-2.698-1.080-5.922-1.619-8.101-1.619s-5.402 0.54-8.101 1.619c-1.35 0.54-2.616 1.234-3.557 2.102-0.946 0.873-1.614 1.974-1.614 3.295v3.127zM25.689 18.079c3.877 0 7.017-3.149 7.017-7.017 0-3.877-3.14-7.017-7.017-7.017s-7.017 3.14-7.017 7.017c0 3.868 3.14 7.017 7.017 7.017z"></path>
</symbol>
<symbol id="icon-coolicon-3" viewBox="0 0 38 32">
<path d="M34.55 30.977h-29.333c-2.025 0-3.667-1.671-3.667-3.733v-22.4c0-2.062 1.642-3.733 3.667-3.733h29.333c2.025 0 3.667 1.671 3.667 3.733v22.4c0 2.062-1.642 3.733-3.667 3.733zM5.217 16.044v11.2h29.333v-11.2h-29.333zM5.217 4.844v3.733h29.333v-3.733h-29.333zM21.717 23.511h-12.833v-3.733h12.833v3.733z"></path>
</symbol>
<symbol id="icon-Vector" viewBox="0 0 22 32">
<path d="M4.085 12.522c0.948 4.507 3.316 8.624 6.743 11.711l3.914-2.257c0.489-0.281 1.072-0.244 1.514 0.040 1.429 0.941 3.041 1.676 4.785 2.147 0.777 0.21 1.232 1.001 1.023 1.778l-1.322 4.902c-0.21 0.777-1.001 1.233-1.778 1.023-13.151-3.546-20.936-17.079-17.389-30.23 0.21-0.777 1.008-1.231 1.778-1.023l4.902 1.322c0.777 0.21 1.232 1.001 1.023 1.778-0.47 1.744-0.645 3.507-0.55 5.215 0.024 0.525-0.237 1.048-0.726 1.329l-3.916 2.264z"></path>
</symbol>
<symbol id="icon-coolicon-2" viewBox="0 0 32 32">
<path d="M16.197 30.738c-8.232 0-14.906-6.673-14.906-14.905s6.673-14.905 14.906-14.905c8.232 0 14.905 6.673 14.905 14.905-0.009 8.228-6.677 14.896-14.905 14.905zM16.197 3.908c-6.586 0-11.924 5.339-11.924 11.924s5.339 11.924 11.924 11.924c6.586 0 11.924-5.339 11.924-11.924-0.007-6.583-5.342-11.917-11.924-11.924zM16.197 24.776c-2.355 0.040-4.581-1.073-5.962-2.981-0.671-0.897-1.175-1.906-1.491-2.981h14.905c0 0 0 0 0 0.012-0.32 1.069-0.824 2.074-1.491 2.969-1.381 1.908-3.607 3.021-5.962 2.981zM10.98 15.832c-1.235 0-2.236-1.001-2.236-2.236s1.001-2.236 2.236-2.236c1.235 0 2.236 1.001 2.236 2.236s-1.001 2.236-2.236 2.236zM21.404 15.811c-1.229 0-2.225-0.996-2.225-2.225s0.996-2.225 2.225-2.225c1.229 0 2.225 0.996 2.225 2.225-0.002 1.228-0.997 2.224-2.225 2.225z"></path>
</symbol>
<symbol id="icon-coolicon-1" viewBox="0 0 37 32">
<path d="M28.244 31.512h-26.483c-0.469 0.005-0.919-0.18-1.249-0.513s-0.512-0.784-0.504-1.253h-0.012v-24.718c0-1.95 1.581-3.531 3.531-3.531h10.593c0.394 0 0.777 0.133 1.088 0.376l4.033 3.155h9.004c1.95 0 3.531 1.581 3.531 3.531v7.062h1.766c0.593 0 1.147 0.298 1.474 0.794s0.383 1.122 0.149 1.667l-5.297 12.359c-0.278 0.649-0.916 1.070-1.623 1.070zM8.223 19.153l-3.784 8.828h22.641l3.784-8.828h-22.641zM3.526 8.559v12.588l1.909-4.456c0.278-0.649 0.916-1.070 1.623-1.070h21.187v-7.062h-24.718z"></path>
</symbol>
<symbol id="icon-coolicon" viewBox="0 0 35 32">
<path d="M0.202 16.504l16-16c0.672-0.672 1.762-0.672 2.435 0l16 16h-3.444v13.774c0 0.951-0.771 1.722-1.722 1.722h-8.609v-12.052h-6.887v12.052h-8.609c-0.951 0-1.722-0.771-1.722-1.722v-13.774h-3.444z"></path>
</symbol>
<symbol id="icon-logout" viewBox="0 0 33 32">
<path d="M25.064 1.231c0 0.625-0.511 1.136-1.136 1.136h-17.044c-1.886 0-3.409 1.523-3.409 3.409v20.453c0 1.886 1.523 3.409 3.409 3.409h17.044c0.625 0 1.136 0.511 1.136 1.136s-0.511 1.136-1.136 1.136h-17.044c-3.136 0-5.681-2.545-5.681-5.681v-20.453c0-3.136 2.545-5.681 5.681-5.681h17.044c0.625 0 1.136 0.511 1.136 1.136z"></path>
<path d="M28.142 17.138l-4.886 4.875c-0.443 0.443-0.443 1.17 0 1.613s1.17 0.443 1.613 0l6.818-6.818c0.443-0.443 0.443-1.17 0-1.613l-6.818-6.818c-0.443-0.443-1.17-0.443-1.613 0s-0.443 1.17 0 1.613l4.886 4.875h-19.987c-0.625 0-1.136 0.511-1.136 1.136s0.511 1.136 1.136 1.136h19.987z"></path>
</symbol>
<symbol id="icon-cart" viewBox="0 0 36 32">
<path d="M1.728 2.663l6.095 2.594 2.782 13.733c-1.262 0.828-2.708 2.691-2.047 5.797 0.095 0.441 0.47 0.755 0.906 0.755h20.206c0.511 0 0.926-0.431 0.926-0.961s-0.415-0.961-0.926-0.961h-19.41c-0.151-2.084 1.144-2.92 1.589-3.145h16.709c0.415 0 0.779-0.285 0.893-0.7l3.745-13.737h1.137c0.547 0 0.991-0.431 0.991-0.961s-0.443-0.963-0.991-0.963h-24.881c-0.101-0.197-0.265-0.354-0.469-0.441l-6.551-2.79c-0.473-0.202-1.015 0.034-1.209 0.524-0.194 0.493 0.033 1.055 0.507 1.256v0.002zM30.679 8.19h-3.081l0.311-2.153h3.357l-0.586 2.153zM27.090 11.715l0.286-1.987h2.884l-0.541 1.987h-2.629zM26.582 15.241l0.286-1.985h2.432l-0.541 1.985h-2.177zM26.104 18.549l0.253-1.767h1.981l-0.481 1.767h-1.753zM26.099 8.19h-2.944l0.176-2.153h3.079l-0.311 2.153zM25.59 11.715h-2.724l0.163-1.987h2.848l-0.286 1.987zM25.082 15.241h-2.506l0.163-1.985h2.628l-0.287 1.985h0.002zM22.306 18.549l0.145-1.767h2.408l-0.255 1.767h-2.298zM19.078 16.781h1.883l-0.145 1.767h-1.672l-0.066-1.767zM18.946 13.256h2.304l-0.161 1.985h-2.067l-0.075-1.985zM18.813 9.728h2.726l-0.161 1.987h-2.489l-0.075-1.987zM18.674 6.035h3.168l-0.176 2.153h-2.91l-0.081-2.153zM15.337 16.78h2.258l0.066 1.768h-2.087l-0.238-1.767zM14.862 13.254h2.601l0.074 1.985h-2.406l-0.267-1.985h-0.001zM14.387 9.727h2.941l0.075 1.987h-2.748l-0.267-1.987h-0.001zM14.179 8.188l-0.289-2.153h3.3l0.081 2.153h-3.092zM12.049 16.78h1.79l0.24 1.768h-1.67l-0.359-1.767zM11.334 13.254h2.029l0.267 1.985h-1.895l-0.403-1.985h0.002zM10.619 9.727h2.269l0.267 1.987h-2.133l-0.403-1.987zM9.872 6.034h2.519l0.289 2.153h-2.373l-0.436-2.153z"></path>
<path d="M10.756 29.069c0 1.578 1.232 2.855 2.75 2.855s2.751-1.277 2.751-2.855c0-1.578-1.232-2.855-2.751-2.855s-2.75 1.278-2.75 2.855zM12.117 29.069c0-0.797 0.623-1.443 1.388-1.443s1.392 0.647 1.392 1.443c0 0.797-0.623 1.443-1.392 1.443s-1.388-0.647-1.388-1.443z"></path>
<path d="M23.73 29.069c0 1.578 1.232 2.855 2.751 2.855s2.75-1.277 2.75-2.855c0-1.578-1.232-2.855-2.75-2.855s-2.751 1.278-2.751 2.855zM25.089 29.069c0-0.797 0.623-1.443 1.392-1.443s1.388 0.647 1.388 1.443c0 0.797-0.623 1.443-1.388 1.443s-1.392-0.647-1.392-1.443z"></path>
</symbol>
<symbol id="icon-user" viewBox="0 0 33 32">
<path stroke-linejoin="miter" stroke-linecap="butt" stroke-miterlimit="10" stroke-width="2.1818" d="M16.501 30.86c-4.473 0-8.948 0-13.421 0-0.916 0-1.36-0.452-1.367-1.385-0.003-0.516 0.044-1.035-0.008-1.546-0.246-2.376 1.064-3.886 2.849-5.096 2.452-1.665 5.243-2.415 8.138-2.789 3.878-0.5 7.724-0.319 11.49 0.81 2.093 0.628 4.049 1.517 5.653 3.067 1.055 1.020 1.582 2.236 1.58 3.692 0 0.516 0 1.030 0 1.546 0 1.261-0.426 1.699-1.653 1.699-4.419 0-8.839 0-13.259 0l-0.002 0.002z"></path>
<path stroke-linejoin="miter" stroke-linecap="butt" stroke-miterlimit="10" stroke-width="2.1818" d="M16.542 15.924c-4.061 0.018-7.386-3.29-7.407-7.368-0.020-4.029 3.341-7.404 7.383-7.412 4.031-0.008 7.412 3.355 7.422 7.386 0.012 4.045-3.321 7.376-7.397 7.394z"></path>
</symbol>
<symbol id="icon-menu" viewBox="0 0 67 32">
<path stroke-linejoin="miter" stroke-linecap="round" stroke-miterlimit="10" stroke-width="3.7333" d="M2.831 29.56h61.695"></path>
<path stroke-linejoin="miter" stroke-linecap="round" stroke-miterlimit="10" stroke-width="3.7333" d="M2.831 16.224h61.695"></path>
<path stroke-linejoin="miter" stroke-linecap="round" stroke-miterlimit="10" stroke-width="3.7333" d="M2.831 1.99h61.695"></path>
</symbol>
</defs>
</svg>
