<svg xmlns="http://www.w3.org/2000/svg" width="208" height="82" viewBox="0 0 208 82" fill="none">
  <path d="M55.6211 53.8815L43.9561 42.2542H49.8873V39.7925H43.7587L55.1686 28.3538L53.4164 26.6143L42.1217 37.938V32.3992H39.6538V37.9626L29.2064 27.5333L27.4624 29.2729L38.0003 39.7925H34.6604V42.2542H37.8193L27.6763 52.4127L29.4285 54.1523L39.6538 43.8953V52.6425H42.1217V43.9035L53.8689 55.6211L55.6211 53.8815Z" fill="#FFCD05" stroke="black" stroke-miterlimit="10"/>
  <path d="M40.7743 1L29.1587 10.9536V25.0566L40.7743 35.2654L52.3981 25.0566V10.9536L40.7743 1Z" fill="#FFCD05" stroke="black" stroke-miterlimit="10"/>
  <path d="M40.8673 9.14258L34.7565 14.3737V21.7693L40.8673 27.1234L46.9699 21.7693V14.3737L40.8673 9.14258Z" fill="#3ACCE9" stroke="black" stroke-miterlimit="10"/>
  <path d="M61.7278 19.9988H70.3789V11.178H61.7278V19.9988Z" fill="#FFCD05" stroke="black" stroke-miterlimit="10"/>
  <path d="M70.3789 11.1781H73.4323V8.12476H70.3789V11.1781Z" fill="#3ACCE9" stroke="black" stroke-miterlimit="10"/>
  <path d="M79.8782 19.5932H62.0834V1.84814L52.3981 10.926V29.3283L70.8167 29.2872L79.8782 19.5932Z" fill="#3ACCE9" stroke="black" stroke-miterlimit="10"/>
  <path d="M19.829 11.178H11.1778V19.9988H19.829V11.178Z" fill="#FFCD05" stroke="black" stroke-miterlimit="10"/>
  <path d="M11.1778 8.12476H8.12448V11.1781H11.1778V8.12476Z" fill="#3ACCE9" stroke="black" stroke-miterlimit="10"/>
  <path d="M1.67854 19.5932H19.4762V1.84814L29.1587 10.926V29.3283L10.7374 29.2872L1.67854 19.5932Z" fill="#3ACCE9" stroke="black" stroke-miterlimit="10"/>
  <path d="M40.7743 80.896L29.1587 70.9342V56.8394L40.7743 46.6306L52.3981 56.8394V70.9342L40.7743 80.896Z" fill="#FFCD05" stroke="black" stroke-miterlimit="10"/>
  <path d="M40.8673 72.7538L34.7565 67.5309V60.1352L40.8673 54.7729L46.9699 60.1352V67.5309L40.8673 72.7538Z" fill="#3ACCE9" stroke="black" stroke-miterlimit="10"/>
  <path d="M80.7264 40.9481L70.8139 52.5678H56.7889L46.6306 40.9481L56.7889 29.3284H70.8139L80.7264 40.9481Z" fill="#FFCD05" stroke="black" stroke-miterlimit="10"/>
  <path d="M72.7538 40.952L67.5309 47.1394H60.1352L54.7729 40.952L60.1352 34.7563H67.5309L72.7538 40.952Z" fill="#3ACCE9" stroke="black" stroke-miterlimit="10"/>
  <path d="M35.0958 40.944L25.1832 52.5678H11.1583L1 40.944L11.1583 29.3284H25.1832L35.0958 40.944Z" fill="#FFCD05" stroke="black" stroke-miterlimit="10"/>
  <path d="M26.9535 40.863L21.7282 46.9698H14.3292L8.97263 40.863L14.3292 34.7563H21.7282L26.9535 40.863Z" fill="#3ACCE9" stroke="black" stroke-miterlimit="10"/>
  <path d="M61.7278 70.7184H70.3789V61.8976H61.7278V70.7184Z" fill="#FFCD05" stroke="black" stroke-miterlimit="10"/>
  <path d="M70.3789 73.602H73.4323V70.7183H70.3789V73.602Z" fill="#3ACCE9" stroke="black" stroke-miterlimit="10"/>
  <path d="M79.8782 62.306H62.0834V80.0482L52.3981 70.9758V52.568L70.8167 52.6091L79.8782 62.306Z" fill="#3ACCE9" stroke="black" stroke-miterlimit="10"/>
  <path d="M19.829 61.8976H11.1778V70.7184H19.829V61.8976Z" fill="#FFCD05" stroke="black" stroke-miterlimit="10"/>
  <path d="M11.1778 70.7183H8.12448V73.602H11.1778V70.7183Z" fill="#3ACCE9" stroke="black" stroke-miterlimit="10"/>
  <path d="M1.67854 62.306H19.4762V80.0482L29.1587 70.9758V52.568L10.7374 52.6091L1.67854 62.306Z" fill="#3ACCE9" stroke="black" stroke-miterlimit="10"/>
  <path d="M106.643 38.8304L106.348 31.2196C106.257 28.833 106.167 25.938 106.167 23.0511H106.077C105.453 25.5853 104.615 28.423 103.836 30.7521L101.389 38.5105H97.834L95.683 30.8095C95.0262 28.4804 94.3365 25.6509 93.8603 23.0511H93.8029C93.6797 25.7329 93.5976 28.8002 93.4416 31.2852L93.0804 38.8386H88.8687L90.1494 18.9587H96.2084L98.1788 25.5935C98.8028 27.8981 99.435 30.3749 99.8783 32.704H99.9686C100.535 30.3995 101.225 27.775 101.882 25.5689L104.033 18.9587H109.977L111.085 38.8386H106.635L106.643 38.8304ZM125.83 33.7292H120.067L118.63 38.8304H113.909L120.059 18.9505H126.027L132.267 38.8304H127.374L125.822 33.7292H125.83ZM120.724 30.3667H125.173L123.917 26.1512C123.556 24.9702 123.203 23.494 122.899 22.313H122.842C122.546 23.494 122.242 24.9948 121.914 26.1512L120.724 30.3667ZM135.863 38.7484V19.2211C137.538 18.9587 139.713 18.811 142.012 18.811C145.83 18.811 148.309 19.4917 150.255 20.9352C152.349 22.4688 153.662 24.921 153.662 28.4312C153.662 32.2366 152.258 34.861 150.321 36.4848C148.202 38.2235 144.976 39.0518 141.035 39.0518C138.679 39.0518 137.004 38.9042 135.871 38.7566L135.863 38.7484ZM140.428 22.436V35.4433C140.813 35.5335 141.446 35.5335 142.012 35.5335C146.134 35.5663 148.818 33.3191 148.818 28.5706C148.851 24.4371 146.396 22.2556 142.488 22.2556C141.47 22.2556 140.813 22.3458 140.428 22.436ZM181.034 18.9587H185.599V38.8386H181.034V18.9587ZM194.622 38.8386H190.443V18.9587H195.755L199.934 26.2414C201.124 28.3327 202.323 30.8177 203.218 33.0567H203.308C203.013 30.4323 202.922 27.7504 202.922 24.7652V18.9505H207.101V38.8304H202.323L198.021 31.1622C196.83 29.038 195.517 26.471 194.532 24.1419L194.441 24.1747C194.564 26.7991 194.622 29.6039 194.622 32.8516V38.8386ZM88.8769 42.5374H93.4416V53.9864C93.4416 57.4063 94.7552 59.145 97.0869 59.145C99.4185 59.145 100.79 57.4965 100.79 53.9864V42.5374H105.33V53.6911C105.33 59.8257 102.194 62.7454 96.9391 62.7454C91.6847 62.7454 88.8769 59.9733 88.8769 53.6337V42.5456V42.5374ZM109.254 62.4173V42.5374H113.761V51.3292H113.852C114.303 50.5582 114.779 49.8529 115.223 49.1476L119.788 42.5374H125.37L118.712 51.0011L125.723 62.4173H120.412L115.486 53.8306L113.753 55.9219V62.4091H109.246L109.254 62.4173ZM127.595 62.4173V42.7998C129.057 42.562 131.241 42.3898 133.654 42.3898C136.643 42.3898 138.728 42.8326 140.165 43.9562C141.355 44.8993 142.012 46.2854 142.012 48.1143C142.012 50.6485 140.19 52.3953 138.457 53.0104V53.1006C139.861 53.6583 140.633 54.9869 141.142 56.8158C141.766 59.0548 142.398 61.6546 142.784 62.4173H138.129C137.8 61.8596 137.324 60.2358 136.725 57.7836C136.191 55.3068 135.321 54.6261 133.474 54.6015H132.103V62.4173H127.595ZM132.521 45.8671V51.3538H134.311C136.577 51.3538 137.924 50.2302 137.924 48.4915C137.924 46.6626 136.667 45.7441 134.582 45.7195C133.474 45.7195 132.85 45.8097 132.521 45.8671ZM156.002 57.3161H150.239L148.802 62.4173H144.081L150.23 42.5374H156.199L162.439 62.4173H157.546L155.994 57.3161H156.002ZM150.895 53.9536H155.345L154.089 49.7381C153.728 48.5571 153.375 47.0809 153.071 45.8999H153.014C152.718 47.0809 152.414 48.5817 152.086 49.7381L150.895 53.9536ZM165.14 42.5374H169.705V62.4173H165.14V42.5374ZM177.832 62.4173H173.654V42.5374H178.965L183.144 49.8201C184.335 51.9115 185.533 54.3964 186.428 56.6354H186.519C186.223 54.011 186.133 51.3292 186.133 48.3439V42.5292H190.312V62.4091H185.533L181.231 54.7409C180.041 52.6168 178.727 50.0498 177.742 47.7206L177.652 47.7534C177.775 50.3778 177.832 53.1827 177.832 56.4304V62.4173ZM206.231 50.3532V54.011H198.826V58.7349H207.093V62.4255H194.253V42.5456H207.093V46.2362H198.826V50.3696H206.231V50.3532ZM168.842 26.7991V30.4569H161.437V35.1808H169.705V38.8714H156.864V18.9915H169.705V22.682H161.437V26.8155H168.842V26.7991Z" fill="black"/>
</svg>