<svg width="42" height="46" viewBox="0 0 42 46" fill="none" xmlns="http://www.w3.org/2000/svg">
<path fill-rule="evenodd" clip-rule="evenodd" d="M33.0663 33.4143C32.2486 34.3547 30.8857 34.4501 30.068 33.6269C28.9777 32.8038 28.9777 31.3755 29.7954 30.4351L34.4291 25.1364H12.3509C10.9881 25.1364 9.89777 24.1251 9.89777 22.874C9.89777 21.6257 10.9881 20.6117 12.3509 20.6117H34.4291L29.7954 15.3156C28.9777 14.3753 28.9777 12.9443 30.068 12.1238C30.8857 11.3007 32.2486 11.3961 33.0663 12.3364L40.9708 21.3858C41.7886 22.2389 41.7886 23.5118 40.9708 24.365L33.0663 33.4143ZM12.3513 4.77538C13.4416 4.77538 14.5319 3.76414 14.5319 2.51304C14.5319 1.26467 13.4416 0.250702 12.3513 0.250702H5.53702C3.08389 0.250702 0.90332 2.2759 0.90332 4.77538V40.9755C0.90332 43.4723 3.08389 45.5002 5.53702 45.5002H12.3513C13.4416 45.5002 14.5319 44.4862 14.5319 43.2379C14.5319 41.9868 13.4416 40.9755 12.3513 40.9755H5.53702V4.77538H12.3513Z" fill="black"/>
</svg>
