<svg xmlns="http://www.w3.org/2000/svg" width="19" height="19" viewBox="0 0 19 19" fill="none">
<path d="M3.16183 1.84015C0.211828 4.48015 -0.0381719 9.04015 2.61183 12.0001C5.03183 14.7001 9.02183 15.1101 11.9518 13.1501L16.4518 18.1601C16.8218 18.5801 17.4618 18.6101 17.8818 18.2401C18.2918 17.8701 18.3318 17.2301 17.9618 16.8101L13.4618 11.8001C15.7218 9.10015 15.7418 5.09015 13.3318 2.39015C10.6718 -0.569851 6.11183 -0.809851 3.16183 1.84015ZM11.4218 11.0501C9.30183 12.9501 6.02183 12.7801 4.12183 10.6501C2.22183 8.53015 2.39183 5.25015 4.52183 3.35015C6.64183 1.44015 9.92183 1.62015 11.8218 3.75015C13.7218 5.87015 13.5518 9.15015 11.4218 11.0501Z" fill="white"/>
</svg>