<svg xmlns="http://www.w3.org/2000/svg" width="24" height="24" viewBox="0 0 24 24" fill="none">
  <path d="M23.3201 11.6601C23.3201 18.0967 18.0967 23.3201 11.6601 23.3201C5.22346 23.3201 0 18.0967 0 11.6601C0 5.22346 5.22346 0 11.6601 0C18.0967 0 23.3201 5.22346 23.3201 11.6601Z" fill="#FFCD05"/>
  <path d="M11.5736 15.5388C13.276 15.5388 14.6562 14.1586 14.6562 12.4562C14.6562 10.7537 13.276 9.37354 11.5736 9.37354C9.87107 9.37354 8.49094 10.7537 8.49094 12.4562C8.49094 14.1586 9.87107 15.5388 11.5736 15.5388Z" stroke="#C59D00" stroke-linecap="round" stroke-linejoin="round"/>
  <path d="M11.5735 19.6181V17.0317" stroke="#C59D00" stroke-linecap="round" stroke-linejoin="round"/>
  <path d="M16.5907 17.8351L14.7613 16.0099" stroke="#C59D00" stroke-linecap="round" stroke-linejoin="round"/>
  <path d="M6.43024 17.8351L8.25542 16.0099" stroke="#C59D00" stroke-linecap="round" stroke-linejoin="round"/>
  <path d="M11.4474 5V7.58217" stroke="#C59D00" stroke-linecap="round" stroke-linejoin="round"/>
  <path d="M4.2644 12.3721H6.84657" stroke="#C59D00" stroke-linecap="round" stroke-linejoin="round"/>
  <path d="M18.8827 12.2461H16.2963" stroke="#C59D00" stroke-linecap="round" stroke-linejoin="round"/>
  <path d="M6.43024 6.78296L8.25542 8.60814" stroke="#C59D00" stroke-linecap="round" stroke-linejoin="round"/>
  <path d="M16.5907 6.78296L14.7613 8.60814" stroke="#C59D00" stroke-linecap="round" stroke-linejoin="round"/>
  <path d="M11.3092 15.5388C13.0116 15.5388 14.3918 14.1586 14.3918 12.4562C14.3918 10.7537 13.0116 9.37354 11.3092 9.37354C9.60667 9.37354 8.22653 10.7537 8.22653 12.4562C8.22653 14.1586 9.60667 15.5388 11.3092 15.5388Z" stroke="white" stroke-linecap="round" stroke-linejoin="round"/>
  <path d="M11.3091 19.6181V17.0317" stroke="white" stroke-linecap="round" stroke-linejoin="round"/>
  <path d="M16.3263 17.8351L14.4969 16.0099" stroke="white" stroke-linecap="round" stroke-linejoin="round"/>
  <path d="M6.16583 17.8351L7.99101 16.0099" stroke="white" stroke-linecap="round" stroke-linejoin="round"/>
  <path d="M11.183 5V7.58217" stroke="white" stroke-linecap="round" stroke-linejoin="round"/>
  <path d="M4 12.3721H6.58217" stroke="white" stroke-linecap="round" stroke-linejoin="round"/>
  <path d="M18.6183 12.2461H16.0319" stroke="white" stroke-linecap="round" stroke-linejoin="round"/>
  <path d="M6.16583 6.78296L7.99101 8.60814" stroke="white" stroke-linecap="round" stroke-linejoin="round"/>
  <path d="M16.3263 6.78296L14.4969 8.60814" stroke="white" stroke-linecap="round" stroke-linejoin="round"/>
</svg>