<svg xmlns="http://www.w3.org/2000/svg" width="23" height="26" viewBox="0 0 23 26" fill="none">
  <path d="M11.4481 25.2175C7.87364 25.2175 4.30172 25.2175 0.727231 25.2175C0.00617505 25.2175 -0.0297494 25.1973 0.0113072 24.4735C0.275609 19.8552 3.36255 15.7809 7.87364 14.3637C13.501 12.5948 19.0898 14.9281 21.8098 20.1006C22.5539 21.5152 22.9132 23.0437 22.9953 24.638C23.0184 25.0809 22.8721 25.2302 22.4128 25.2276C18.7562 25.2125 15.1022 25.2201 11.4456 25.2201L11.4481 25.2175Z" fill="black"/>
  <path d="M11.4763 12.4481C7.99937 12.443 5.14337 9.62899 5.1562 6.21773C5.16903 2.75332 8.03016 -0.00757621 11.597 1.56192e-05C14.9816 0.00507684 17.8324 2.84189 17.8427 6.21267C17.8529 9.64923 14.9918 12.4506 11.4789 12.4481H11.4763Z" fill="black"/>
</svg>