<svg xmlns="http://www.w3.org/2000/svg" width="165" height="166" viewBox="0 0 165 166" fill="none">
  <path d="M57.6415 113.96V108.316H52.4551L73.2543 87.4664H65.7679L69.2144 83.4767L66.0946 79.8206H73.5743L52.4884 59.0913L57.6749 58.7577L57.8215 53.2468L78.8408 74.2429V67.0708L82.4406 70.2332L86.4938 66.6705V74.2229L107.246 53.7539V58.6777H112.753L91.6803 79.8272H99.2467L96.0402 83.5034L99.4734 87.4731H92.0869L112.906 108.316H107.246V113.4L86.2205 92.4169V100.029L82.434 96.7402L78.8341 99.8226V92.6771L57.6415 113.953V113.96ZM58.8815 105.647H60.3081V107.502L81.5007 86.2255V94.0315L82.4473 93.2242L83.5539 94.1849V85.992L104.573 106.968V105.66H106.466L85.6405 84.8111H93.6269L92.4936 83.5034L93.3669 82.5026H85.2472L106.32 61.3531H104.573V60.1388L83.8206 80.6078V72.575L82.434 73.7959L81.5073 72.9753V80.6879L60.3281 59.525L60.2815 61.273L58.6148 61.3797L80.094 82.5026H71.8744L72.7277 83.5034L71.601 84.8111H79.6874L58.8882 105.66L58.8815 105.647Z" fill="white"/>
  <path d="M82.435 73.7826L57.6426 51.9725V22.2564L82.435 0.993408L107.241 22.2564V51.9792L82.435 73.7826ZM60.3091 50.7716L82.435 70.2332L104.574 50.7716V23.484L82.435 4.50944L60.3091 23.484V50.7716Z" fill="white"/>
  <path d="M82.6221 57.3233L68.9492 45.3341V29.1684L82.6221 17.4527L96.2816 29.1684V45.3341L82.6221 57.3233ZM71.6158 44.1198L82.6221 53.7739L93.615 44.1198V30.3893L82.6221 20.9621L71.6158 30.3893V44.1198Z" fill="white"/>
  <path d="M143.56 41.658H124.188V21.9895H143.56V41.658ZM126.854 38.9893H140.894V24.6582H126.854V38.9893Z" fill="white"/>
  <path d="M149.726 24.6582H140.893V15.8181H149.726V24.6582ZM143.559 21.9895H147.059V18.4868H143.559V21.9895Z" fill="white"/>
  <path d="M104.58 61.3464V22.2364L126.806 1.38705V38.9959H164.485L143.692 61.2597L104.58 61.3464ZM107.247 23.3906V58.671L142.532 58.591L158.345 41.6646H124.146V7.54512L107.253 23.3906H107.247Z" fill="white"/>
  <path d="M40.756 41.6179H21.3301V21.9895H40.756V41.6179ZM23.9966 38.9492H38.0894V24.6582H23.9966V38.9492Z" fill="white"/>
  <path d="M23.9971 24.6582H15.1641V15.8181H23.9971V24.6582ZM17.8306 21.9895H21.3305V18.4868H17.8306V21.9895Z" fill="white"/>
  <path d="M60.3088 61.3464L21.1902 61.2597L0.404297 38.9959H38.0829V1.38705L60.3021 22.2364V61.3464H60.3088ZM22.3502 58.591L57.6422 58.671V23.3906L40.7561 7.54512V41.6646H6.55072L22.3568 58.591H22.3502Z" fill="white"/>
  <path d="M82.435 165.993L57.6426 144.71V115.008L82.435 93.1975L107.241 115.001V144.704L82.435 165.98V165.993ZM60.3091 143.489L82.435 162.484L104.574 143.489V116.222L82.435 96.7602L60.3091 116.222V143.496V143.489Z" fill="white"/>
  <path d="M82.6221 149.534L68.9492 137.838V121.673L82.6221 109.664L96.2816 121.673V137.838L82.6221 149.534ZM71.6158 136.604L82.6221 146.018L93.615 136.604V122.874L82.6221 113.206L71.6158 122.874V136.604Z" fill="white"/>
  <path d="M143.719 108.316H114.173L92.4941 83.4967L114.173 58.6777H143.719L164.878 83.4967L143.719 108.316ZM115.387 105.647H142.492L161.372 83.4967L142.492 61.3464H115.387L96.034 83.4967L115.387 105.647Z" fill="white"/>
  <path d="M137.094 97.3407H120.928L108.941 83.5034L120.928 69.6461H137.094L148.767 83.5034L137.094 97.3407ZM122.148 94.672H135.854L145.273 83.4968L135.847 72.3082H122.141L112.468 83.4968L122.141 94.672H122.148Z" fill="white"/>
  <path d="M51.5627 108.316H22.0171L0.337891 83.4901L22.0171 58.6777H51.5627L72.7219 83.4901L51.5627 108.316ZM23.2304 105.647H50.3361L69.2154 83.4901L50.3361 61.3464H23.2304L3.87776 83.4901L23.2304 105.647Z" fill="white"/>
  <path d="M44.5832 97.0004H28.4237L16.4375 83.3233L28.4237 69.6461H44.5832L56.2761 83.3233L44.5832 97.0004ZM29.6303 94.3317H43.3565L52.7695 83.3233L43.3565 72.3148H29.6303L19.984 83.3233L29.6303 94.3317Z" fill="white"/>
  <path d="M143.559 144.997H124.5V125.582H143.559V144.997ZM127.167 142.329H140.893V128.251H127.167V142.329Z" fill="white"/>
  <path d="M149.726 150.828H140.893V142.329H149.726V150.828ZM143.559 148.16H147.059V144.997H143.559V148.16Z" fill="white"/>
  <path d="M126.806 165.6L104.58 144.764V105.64L143.692 105.727L164.485 127.998H126.806V165.6ZM107.247 143.603L124.139 159.442V125.322H158.338L142.525 108.389L107.24 108.309V143.596L107.247 143.603Z" fill="white"/>
  <path d="M40.3894 144.997H21.3301V125.582H40.3894V144.997ZM23.9966 142.329H37.7228V128.251H23.9966V142.329Z" fill="white"/>
  <path d="M23.9971 150.828H15.1641V142.329H23.9971V150.828ZM17.8306 148.16H21.3305V144.997H17.8306V148.16Z" fill="white"/>
  <path d="M38.0907 165.6V127.998H0.412109L21.198 105.727L60.3166 105.64V144.764L38.0974 165.6H38.0907ZM6.55186 125.329H40.7573V159.442L57.6434 143.603V108.309L22.3513 108.389L6.54523 125.322L6.55186 125.329Z" fill="white"/>
</svg>