<?xml version="1.0" encoding="UTF-8"?><svg id="_Слой_2" xmlns="http://www.w3.org/2000/svg" viewBox="0 0 397.43 60.7"><defs><style>.cls-1{fill:#fff;}</style></defs><g id="_Слой_1-2"><g><polygon class="cls-1" points="106.52 50.62 94.53 50.62 85.96 60.47 85.77 60.7 88.38 60.7 88.57 60.47 95.43 52.58 105.59 52.58 112.27 60.47 112.46 60.7 115.05 60.7 114.86 60.47 106.52 50.62"/><polygon class="cls-1" points="37.93 50.62 25.95 50.62 17.27 60.47 17.07 60.7 19.7 60.7 19.9 60.47 26.84 52.59 37.02 52.59 43.8 60.47 43.99 60.7 46.59 60.7 46.4 60.47 37.93 50.62"/><polygon class="cls-1" points="238.19 50.62 226.2 50.62 217.63 60.47 217.44 60.7 220.05 60.7 220.24 60.47 227.1 52.58 237.26 52.58 243.95 60.47 244.14 60.7 246.72 60.7 246.53 60.47 238.19 50.62"/><polygon class="cls-1" points="169.6 50.62 157.62 50.62 148.94 60.47 148.74 60.7 151.37 60.7 151.57 60.47 158.51 52.59 168.69 52.59 175.47 60.47 175.66 60.7 178.26 60.7 178.07 60.47 169.6 50.62"/><polygon class="cls-1" points="0 32.51 0 32.51 0 35.29 0 35.29 8.81 44.06 0 52.83 0 52.83 0 55.61 0 55.61 11.61 44.06 0 32.51"/><path class="cls-1" d="m132.33,32.51l-11.61,11.55,11.61,11.55,11.6-11.55-11.6-11.55Zm-8.81,11.55l8.81-8.77,8.81,8.77-8.81,8.77-8.81-8.77Z"/><path class="cls-1" d="m265.11,32.51l-11.61,11.55,11.61,11.55,11.61-11.55-11.61-11.55Zm-8.81,11.55l8.81-8.77,8.81,8.77-8.81,8.77-8.81-8.77Z"/><path class="cls-1" d="m55.99,20.78v11.92l10.14,8.84,10.13-8.84v-11.92l-10.13-8.64-10.14,8.64Zm18.29,11.02l-8.15,7.12-8.16-7.12v-10.12l8.16-6.95,8.15,6.95v10.12Z"/><path class="cls-1" d="m187.66,20.78v11.92l10.14,8.84,10.13-8.84v-11.92l-10.13-8.64-10.14,8.64Zm18.29,11.02l-8.15,7.12-8.16-7.12v-10.12l8.16-6.95,8.15,6.95v10.12Z"/><path class="cls-1" d="m331.71,12.15h-.01s-10.14,8.63-10.14,8.63v11.92l10.14,8.84h.01s.01,0,.01,0l10.13-8.84v-11.92l-10.13-8.64h-.01Zm8.14,19.66l-8.14,7.11-8.15-7.11v-10.12l8.15-6.94,8.14,6.94v10.12Z"/><polygon class="cls-1" points="303.52 50.62 303.49 50.62 297.42 50.62 291.54 50.62 282.86 60.47 282.66 60.7 285.29 60.7 285.49 60.47 292.43 52.59 297.42 52.59 302.58 52.59 309.36 60.47 309.55 60.7 309.58 60.7 312.15 60.7 312.18 60.7 311.99 60.47 303.52 50.62"/><polygon class="cls-1" points="372.08 50.62 365.54 50.62 360.12 50.62 360.09 50.62 351.53 60.47 351.33 60.7 351.36 60.7 353.95 60.7 353.97 60.7 354.17 60.47 361.03 52.58 365.54 52.58 371.16 52.58 377.84 60.47 378.03 60.7 380.61 60.7 380.42 60.47 372.08 50.62"/><polygon class="cls-1" points="397.43 55.61 397.43 52.83 388.62 44.06 397.43 35.29 397.43 32.51 385.83 44.06 397.43 55.61"/><path class="cls-1" d="m392.39,28.02h-15.52v-10.57h4.57v-6.52h-6.55v4.55h-10.42V.29l-.02.02v-.02l-15.54,14.49-17.34-14.78h-.01s-.01,0-.01,0l-17.33,14.78-15.53-14.49v.02l-.03-.02v15.19h-10.42v-4.55h-6.55v6.52h4.57v10.57h-43.3v-10.57h4.57v-6.52h-6.55v4.55h-10.44V.29l-15.55,14.5L197.66,0l-17.34,14.79L164.78.29v15.19h-10.44v-4.55h-6.55v6.52h4.57v10.57h-41.05v-10.57h4.57v-6.52h-6.55v4.55h-10.44V.29l-15.55,14.5L65.99,0l-17.34,14.79L33.11.29v15.19h-10.44v-4.55h-6.55v6.52h4.57v10.57H0v1.97h7.02l13.02,13.87-14.6,16.62-.2.22h2.62l.2-.22,14.03-15.97h20.1l13.69,15.97.19.22h2.6l-.19-.22-.32-.37h6.09l-15.93-15.58.41-.03h.84s0-.61,0-.61l.02-.74,15.7,15.6v-5.69l.69.61,1.03-.9v5.92l15.39-15.09v.9h1.29l-15.62,15.59h6.02l-.33.37-.2.22h2.63l.2-.22,2.06-2.34h0l11.97-13.63h20.1l13.69,15.97.19.22h2.6l-.19-.22-14.53-16.95,12.7-13.53h13.71l13.02,13.86-14.6,16.62-.2.22h2.62l.2-.22,14.03-15.97h20.1l13.69,15.97.19.22h2.6l-.19-.22-.32-.37h6.09l-15.93-15.58.41-.03h.84s0-.58,0-.58l.02-.76,15.7,15.6v-5.69l.69.61,1.03-.9v5.92l15.39-15.09v.9h1.29l-15.62,15.59h6.02l-.33.37-.2.22h2.63l.2-.22,2.06-2.34h0l11.97-13.63h20.1l13.69,15.97.19.22h2.6l-.19-.22-14.53-16.95,12.7-13.53h15.96l13.02,13.87-14.6,16.62-.2.22h2.62l.2-.22,14.03-15.97h20.07l13.69,15.97.19.22h2.63l-.19-.22-.32-.37h6.09l-15.93-15.58.41-.03h.81s0,0,0,0h.03s0-.38,0-.38l.03-.94,15.68,15.58v-.03l.03.03v-5.66l.66.58h.01s.01,0,.01,0l1-.88v5.9l.03-.03v.03l15.36-15.06v.86h0s.03,0,.03,0h1.27l-15.63,15.59h6.02l-.33.37-.2.22h2.65l.2-.22,2.06-2.34h0l11.97-13.63h20.07l13.69,15.97.19.22h2.6l-.19-.22-14.53-16.95,12.7-13.53h6.89v-1.97h-5.04Zm-15.51-15.12h2.59v2.58h-2.59v-2.58Zm-133.89,0h2.59v2.58h-2.59v-2.58Zm-131.67,0h2.59v2.58h-2.59v-2.58Zm-88.65,4.55h0s10.44,0,10.44,0v10.54h-10.44v-10.54Zm-4.57-1.97v-2.58h2.59v2.58h0s-2.59,0-2.59,0Zm3.35,26.99h0l-11.72-12.48h2.16s23.2,0,23.2,0V4.83l12.52,11.68v26.01l-26.17-.06Zm37.98,15.65h-2.95l-11.69-13.63h.7s13.94,13.63,13.94,13.63Zm3.9-4.11l-13.75-13.66v-1.04l13.75,12.03v2.67Zm2.67-2.96l-2.67-2.33h0s-13.74-12.02-13.74-12.02v-20.12l16.4-13.99,16.41,13.99v20.12l-16.41,14.35Zm16.42-10.21l-13.41,13.15v-2.96l13.41-11.72v1.52Zm16.51-23.39h10.41v10.57h-10.41v-10.57Zm-23.1,40.68h-2.98l13.66-13.64h1.3s-11.98,13.64-11.98,13.64Zm34.72-15.66l-26.16.06v-26.01l12.52-11.68v25.16h23.69s1.66,0,1.66,0l-11.72,12.48Zm43.79-25.02h0s10.44,0,10.44,0v10.54h-10.44v-10.54Zm-4.57-1.97v-2.58h2.59v2.58h0s-2.59,0-2.59,0Zm3.35,26.99h0l-11.72-12.48h2.65s22.71,0,22.71,0V4.83l12.52,11.68v26.01l-26.17-.06Zm37.98,15.65h-2.95l-11.69-13.63h.7s13.94,13.63,13.94,13.63Zm3.9-4.11l-13.75-13.66v-1.04l13.75,12.03v2.67Zm2.67-2.96l-2.67-2.33h0s-13.74-12.02-13.74-12.02v-20.12l16.4-13.99,16.41,13.99v20.12l-16.41,14.35Zm16.42-10.21l-13.41,13.15v-2.96l13.41-11.72v1.52Zm16.51-23.39h10.41v10.57h-10.41v-10.57Zm-23.1,40.68h-2.98l13.66-13.64h1.3s-11.98,13.64-11.98,13.64Zm34.72-15.66l-26.16.06v-26.01h0l12.52-11.68v25.16h25.36l-11.72,12.48Zm46.03-25.02h0s10.42,0,10.42,0v10.54h-10.42v-10.54Zm-4.57-1.97v-2.58h2.59v2.58h0s-2.59,0-2.59,0Zm3.35,26.99h0l-11.72-12.48h3.04s19.06,0,19.06,0h0s.4,0,.4,0h2.86v-.03h0v-14.47h0V4.85l12.49,11.66v21.08h0v4.94l-26.14-.06Zm37.95,15.65h-2.93l-11.69-13.63h.67s13.94,13.63,13.94,13.63Zm3.9-4.14l-13.72-13.63v-1.02l13.72,12v2.64Zm2.68-2.94l-2.65-2.32h0s-13.74-12.02-13.74-12.02v-20.12l16.39-13.98,16.4,13.98v20.12l-16.4,14.34Zm16.4-10.2l-13.38,13.13v-2.93l13.38-11.7v1.5Zm16.54-23.4h10.38v10.57h-10.38v-10.57Zm-23.12,40.68h-2.96l13.66-13.64h1.28s-11.98,13.64-11.98,13.64Zm34.72-15.66l-26.14.06v-26.01h0l12.5-11.66v25.13h23.4s1.96,0,1.96,0l-11.72,12.48Z"/></g></g></svg>