<?xml version="1.0" encoding="utf-8"?>
<!-- Generator: Adobe Illustrator 27.1.1, SVG Export Plug-In . SVG Version: 6.00 Build 0)  -->
<svg version="1.1" id="Слой_1" xmlns="http://www.w3.org/2000/svg" xmlns:xlink="http://www.w3.org/1999/xlink" x="0px" y="0px"
	 viewBox="0 0 473 135" style="enable-background:new 0 0 473 135;" xml:space="preserve">
<style type="text/css">
	.st0{fill:#FFFFFF;}
</style>
<path class="st0" d="M26.1,31.2H0.5v2.2h25.6V31.2z"/>
<path class="st0" d="M26.1,101.3H0.5v2.2h25.6V101.3z"/>
<path class="st0" d="M174.6,31.2H149v2.2h25.6V31.2z"/>
<path class="st0" d="M174.6,101.3H149v2.2h25.6V101.3z"/>
<path class="st0" d="M319,31.2h-25.6v2.2H319V31.2z"/>
<path class="st0" d="M319,101.3h-25.6v2.2H319V101.3z"/>
<path class="st0" d="M465.8,31.2h-25.6v2.2h25.6V31.2z"/>
<path class="st0" d="M465.8,101.3h-25.6v2.2h25.6V101.3z"/>
<path class="st0" d="M69.5,92.1v-4.6h-4.2l16.9-16.9h-6.1l2.8-3.2l-2.5-3h6.1L65.4,47.6l4.2-0.3l0.1-4.5l17,17.1V54l2.9,2.6l3.3-2.9
	v6.1l16.8-16.6v4h4.5L97.1,64.4h6.1l-2.6,3l2.8,3.2h-6l16.9,16.9h-4.6v4.1l-17-17v6.2l-3.1-2.7l-2.9,2.5v-5.8L69.5,92.1L69.5,92.1z
	 M70.5,85.4h1.2v1.5l17.2-17.3v6.3l0.8-0.7l0.9,0.8v-6.7l17,17v-1.1h1.5L92.2,68.4h6.5l-0.9-1.1l0.7-0.8h-6.6L109,49.4h-1.4v-1
	L90.7,65v-6.5l-1.1,1l-0.8-0.7v6.3L71.7,47.9l0,1.4l-1.4,0.1l17.4,17.2h-6.7l0.7,0.8l-0.9,1.1h6.6L70.5,85.4L70.5,85.4z"/>
<path class="st0" d="M89.6,59.5L69.5,41.8V17.6L89.6,0.4l20.1,17.3v24.1L89.6,59.5z M71.7,40.8l17.9,15.8l17.9-15.8V18.6L89.6,3.2
	L71.7,18.6V40.8z"/>
<path class="st0" d="M89.8,46.1l-11.1-9.7V23.3l11.1-9.5l11.1,9.5v13.1L89.8,46.1z M80.8,35.4l8.9,7.8l8.9-7.8V24.3l-8.9-7.7
	l-8.9,7.7V35.4z"/>
<path class="st0" d="M139.1,33.4h-15.7v-16h15.7V33.4z M125.6,31.2H137V19.6h-11.4V31.2z"/>
<path class="st0" d="M144.1,19.6H137v-7.2h7.2V19.6z M139.1,17.4h2.8v-2.8h-2.8V17.4z"/>
<path class="st0" d="M107.6,49.4V17.6l18-16.9v30.5h30.5l-16.8,18.1L107.6,49.4L107.6,49.4z M109.7,18.6v28.7l28.6-0.1l12.8-13.7
	h-27.7V5.7L109.7,18.6L109.7,18.6z"/>
<path class="st0" d="M55.8,33.4H40.1V17.4h15.7V33.4z M42.3,31.2h11.4V19.6H42.3V31.2z"/>
<path class="st0" d="M42.3,19.6h-7.2v-7.2h7.2V19.6z M37.3,17.4h2.8v-2.8h-2.8V17.4z"/>
<path class="st0" d="M71.7,49.4L40,49.3L23.1,31.2h30.5V0.7l18,16.9L71.7,49.4L71.7,49.4z M40.9,47.2l28.6,0.1V18.6L55.8,5.7v27.7
	H28.1L40.9,47.2L40.9,47.2z"/>
<path class="st0" d="M89.6,134.4l-20.1-17.3V93l20.1-17.7L109.7,93v24.1L89.6,134.4L89.6,134.4z M71.7,116.1l17.9,15.4l17.9-15.4V94
	L89.6,78.2L71.7,94V116.1L71.7,116.1z"/>
<path class="st0" d="M89.8,121l-11.1-9.5V98.4l11.1-9.8l11.1,9.8v13.1L89.8,121z M80.8,110.5l8.9,7.6l8.9-7.6V99.4l-8.9-7.9
	l-8.9,7.9V110.5z"/>
<path class="st0" d="M139.3,87.5h-23.9L97.8,67.4l17.6-20.2h23.9l17.1,20.2L139.3,87.5z M116.3,85.4h22l15.3-18l-15.3-18h-22
	l-15.7,18L116.3,85.4z"/>
<path class="st0" d="M133.9,78.6h-13.1l-9.7-11.2l9.7-11.3h13.1l9.5,11.3L133.9,78.6z M121.8,76.5h11.1l7.6-9.1l-7.6-9.1h-11.1
	l-7.8,9.1L121.8,76.5z"/>
<path class="st0" d="M64.6,87.5H40.7L23.1,67.4l17.6-20.2h23.9l17.1,20.2L64.6,87.5z M41.6,85.4h22l15.3-18l-15.3-18h-22L26,67.4
	L41.6,85.4z"/>
<path class="st0" d="M58.9,78.3H45.9l-9.7-11.1l9.7-11.1h13.1l9.5,11.1L58.9,78.3z M46.8,76.2H58l7.6-8.9L58,58.3H46.8L39,67.2
	L46.8,76.2z"/>
<path class="st0" d="M139.1,117.3h-15.4v-15.8h15.4V117.3z M125.9,115.2H137v-11.4h-11.1V115.2z"/>
<path class="st0" d="M144.1,122.1H137v-6.9h7.2V122.1z M139.1,119.9h2.8v-2.6h-2.8V119.9z"/>
<path class="st0" d="M125.6,134.1l-18-16.9V85.4l31.7,0.1l16.8,18.1h-30.5V134.1z M109.7,116.2l13.7,12.9v-27.7h27.7l-12.8-13.8
	l-28.6-0.1L109.7,116.2L109.7,116.2z"/>
<path class="st0" d="M55.5,117.3H40.1v-15.8h15.4V117.3z M42.3,115.2h11.1v-11.4H42.3V115.2z"/>
<path class="st0" d="M42.3,122.1h-7.2v-6.9h7.2V122.1z M37.3,119.9h2.8v-2.6h-2.8V119.9z"/>
<path class="st0" d="M53.7,134.1v-30.5H23.2L40,85.4l31.7-0.1v31.8L53.7,134.1L53.7,134.1z M28.1,101.4h27.7v27.7l13.7-12.9V87.5
	l-28.6,0.1L28.1,101.4L28.1,101.4z"/>
<path class="st0" d="M213.6,92.1v-4.6h-4.2l16.9-16.9h-6.1l2.8-3.2l-2.5-3h6.1l-17.1-16.8l4.2-0.3l0.1-4.5l17,17.1V54l2.9,2.6
	l3.3-2.9v6.1l16.8-16.6v4h4.5l-17.1,17.2h6.1l-2.6,3l2.8,3.2h-6l16.9,16.9h-4.6v4.1l-17-17v6.2l-3.1-2.7l-2.9,2.5v-5.8L213.6,92.1
	L213.6,92.1z M214.6,85.4h1.2v1.5L233,69.6v6.3l0.8-0.7l0.9,0.8v-6.7l17,17v-1.1h1.5l-16.9-16.9h6.5l-0.9-1.1l0.7-0.8H236l17.1-17.2
	h-1.4v-1L234.9,65v-6.5l-1.1,1l-0.8-0.7v6.3l-17.2-17.2l0,1.4l-1.3,0.1l17.4,17.2h-6.7l0.7,0.8l-0.9,1.1h6.6L214.6,85.4L214.6,85.4z
	"/>
<path class="st0" d="M233.7,59.5l-20.1-17.7V17.6l20.1-17.3l20.1,17.3v24.1L233.7,59.5z M215.8,40.8l17.9,15.8l17.9-15.8V18.6
	L233.7,3.2l-17.9,15.4V40.8z"/>
<path class="st0" d="M233.9,46.1l-11.1-9.7V23.3l11.1-9.5l11.1,9.5v13.1L233.9,46.1z M225,35.4l8.9,7.8l8.9-7.8V24.3l-8.9-7.7
	l-8.9,7.7V35.4z"/>
<path class="st0" d="M283.3,33.4h-15.7v-16h15.7V33.4z M269.7,31.2h11.4V19.6h-11.4V31.2z"/>
<path class="st0" d="M288.3,19.6h-7.2v-7.2h7.2V19.6z M283.3,17.4h2.8v-2.8h-2.8V17.4z"/>
<path class="st0" d="M251.7,49.4V17.6l18-16.9v30.5h30.5l-16.8,18.1L251.7,49.4z M253.8,18.6v28.7l28.6-0.1l12.8-13.7h-27.7V5.7
	L253.8,18.6z"/>
<path class="st0" d="M200,33.4h-15.7V17.4H200V33.4z M186.4,31.2h11.4V19.6h-11.4V31.2z"/>
<path class="st0" d="M186.4,19.6h-7.2v-7.2h7.2V19.6z M181.4,17.4h2.8v-2.8h-2.8V17.4z"/>
<path class="st0" d="M215.8,49.4l-31.7-0.1l-16.8-18.1h30.5V0.7l18,16.9L215.8,49.4L215.8,49.4z M185,47.2l28.6,0.1V18.6L200,5.7
	v27.7h-27.7L185,47.2L185,47.2z"/>
<path class="st0" d="M233.7,134.4l-20.1-17.3V93l20.1-17.7L253.8,93v24.1L233.7,134.4L233.7,134.4z M215.8,116.1l17.9,15.4
	l17.9-15.4V94l-17.9-15.8L215.8,94V116.1L215.8,116.1z"/>
<path class="st0" d="M233.9,121l-11.1-9.5V98.4l11.1-9.8l11.1,9.8v13.1L233.9,121z M225,110.5l8.9,7.6l8.9-7.6V99.4l-8.9-7.9
	l-8.9,7.9V110.5z"/>
<path class="st0" d="M283.4,87.5h-23.9l-17.6-20.2l17.6-20.2h23.9l17.1,20.2L283.4,87.5z M260.4,85.4h22l15.3-18l-15.3-18h-22
	l-15.7,18L260.4,85.4z"/>
<path class="st0" d="M278,78.6h-13.1l-9.7-11.2l9.7-11.3H278l9.5,11.3L278,78.6z M265.9,76.5H277l7.6-9.1l-7.6-9.1h-11.1l-7.8,9.1
	L265.9,76.5L265.9,76.5z"/>
<path class="st0" d="M208.7,87.5h-23.9l-17.6-20.2l17.6-20.2h23.9l17.1,20.2L208.7,87.5z M185.8,85.4h22l15.3-18l-15.3-18h-22
	l-15.7,18L185.8,85.4z"/>
<path class="st0" d="M203.1,78.3H190l-9.7-11.1l9.7-11.1h13.1l9.5,11.1L203.1,78.3z M190.9,76.2h11.1l7.6-8.9l-7.6-8.9h-11.1
	l-7.8,8.9L190.9,76.2z"/>
<path class="st0" d="M283.3,117.3h-15.4v-15.8h15.4V117.3z M270,115.2h11.1v-11.4H270V115.2z"/>
<path class="st0" d="M288.3,122.1h-7.2v-6.9h7.2V122.1z M283.3,119.9h2.8v-2.6h-2.8V119.9z"/>
<path class="st0" d="M269.7,134.1l-18-16.9V85.4l31.7,0.1l16.8,18.1h-30.5V134.1z M253.8,116.2l13.7,12.9v-27.7h27.7l-12.8-13.8
	l-28.6-0.1L253.8,116.2L253.8,116.2z"/>
<path class="st0" d="M199.7,117.3h-15.4v-15.8h15.4V117.3z M186.4,115.2h11.1v-11.4h-11.1V115.2z"/>
<path class="st0" d="M186.4,122.1h-7.2v-6.9h7.2V122.1z M181.4,119.9h2.8v-2.6h-2.8V119.9z"/>
<path class="st0" d="M197.8,134.1v-30.5h-30.5l16.8-18.1l31.7-0.1v31.8L197.8,134.1L197.8,134.1z M172.2,101.4H200v27.7l13.7-12.9
	V87.5L185,87.6L172.2,101.4L172.2,101.4z"/>
<path class="st0" d="M357.5,92.1v-4.6h-4.2l16.9-16.9h-6.1l2.8-3.2l-2.5-3h6.1l-17.1-16.8l4.2-0.3l0.1-4.5l17,17.1V54l2.9,2.6
	l3.3-2.9v6.1l16.8-16.6v4h4.5l-17.1,17.2h6.1l-2.6,3l2.8,3.2h-6l16.9,16.9h-4.6v4.1l-17-17v6.2l-3.1-2.7l-2.9,2.5v-5.8L357.5,92.1
	L357.5,92.1z M358.5,85.4h1.2v1.5l17.2-17.3v6.3l0.8-0.7l0.9,0.8v-6.7l17,17v-1.1h1.5l-16.9-16.9h6.5l-0.9-1.1l0.7-0.8h-6.6
	L397,49.4h-1.4v-1L378.7,65v-6.5l-1.1,1l-0.8-0.7v6.3l-17.2-17.2l0,1.4l-1.3,0.1l17.4,17.2h-6.7l0.7,0.8l-0.9,1.1h6.6L358.5,85.4
	L358.5,85.4z"/>
<path class="st0" d="M377.6,59.5l-20.1-17.7V17.6l20.1-17.3l20.1,17.3v24.1L377.6,59.5z M359.7,40.8l17.9,15.8l17.9-15.8V18.6
	L377.6,3.2l-17.9,15.4V40.8z"/>
<path class="st0" d="M377.8,46.1l-11.1-9.7V23.3l11.1-9.5l11.1,9.5v13.1L377.8,46.1z M368.9,35.4l8.9,7.8l8.9-7.8V24.3l-8.9-7.7
	l-8.9,7.7V35.4z"/>
<path class="st0" d="M427.2,33.4h-15.7v-16h15.7V33.4z M413.6,31.2H425V19.6h-11.4V31.2z"/>
<path class="st0" d="M432.1,19.6H425v-7.2h7.2V19.6z M427.2,17.4h2.8v-2.8h-2.8V17.4z"/>
<path class="st0" d="M395.6,49.4V17.6l18-16.9v30.5h30.5l-16.8,18.1L395.6,49.4z M397.7,18.6v28.7l28.6-0.1l12.8-13.7h-27.7V5.7
	L397.7,18.6L397.7,18.6z"/>
<path class="st0" d="M343.9,33.4h-15.7V17.4h15.7V33.4z M330.3,31.2h11.4V19.6h-11.4V31.2z"/>
<path class="st0" d="M330.3,19.6h-7.2v-7.2h7.2V19.6z M325.3,17.4h2.8v-2.8h-2.8V17.4z"/>
<path class="st0" d="M359.7,49.4L328,49.3l-16.8-18.1h30.5V0.7l18,16.9L359.7,49.4L359.7,49.4z M328.9,47.2l28.6,0.1V18.6L343.9,5.7
	v27.7h-27.7L328.9,47.2L328.9,47.2z"/>
<path class="st0" d="M377.6,134.4l-20.1-17.3V93l20.1-17.7L397.7,93v24.1L377.6,134.4L377.6,134.4z M359.7,116.1l17.9,15.4
	l17.9-15.4V94l-17.9-15.8L359.7,94V116.1L359.7,116.1z"/>
<path class="st0" d="M377.8,121l-11.1-9.5V98.4l11.1-9.8l11.1,9.8v13.1L377.8,121z M368.9,110.5l8.9,7.6l8.9-7.6V99.4l-8.9-7.9
	l-8.9,7.9V110.5z"/>
<path class="st0" d="M427.3,87.5h-23.9l-17.6-20.2l17.6-20.2h23.9l17.1,20.2L427.3,87.5z M404.3,85.4h22l15.3-18l-15.3-18h-22
	l-15.7,18L404.3,85.4z"/>
<path class="st0" d="M421.9,78.6h-13.1l-9.7-11.2l9.7-11.3h13.1l9.5,11.3L421.9,78.6z M409.8,76.5h11.1l7.6-9.1l-7.6-9.1h-11.1
	l-7.8,9.1L409.8,76.5L409.8,76.5z"/>
<path class="st0" d="M352.6,87.5h-23.9l-17.6-20.2l17.6-20.2h23.9l17.1,20.2L352.6,87.5z M329.7,85.4h22l15.3-18l-15.3-18h-22
	l-15.7,18L329.7,85.4z"/>
<path class="st0" d="M347,78.3h-13.1l-9.7-11.1l9.7-11.1H347l9.5,11.1L347,78.3z M334.8,76.2H346l7.6-8.9l-7.6-8.9h-11.1l-7.8,8.9
	L334.8,76.2z"/>
<path class="st0" d="M427.2,117.3h-15.4v-15.8h15.4V117.3z M413.9,115.2H425v-11.4h-11.1V115.2z"/>
<path class="st0" d="M432.1,122.1H425v-6.9h7.2V122.1z M427.2,119.9h2.8v-2.6h-2.8V119.9z"/>
<path class="st0" d="M413.6,134.1l-18-16.9V85.4l31.7,0.1l16.8,18.1h-30.5V134.1z M397.7,116.2l13.7,12.9v-27.7h27.7l-12.8-13.8
	l-28.6-0.1L397.7,116.2L397.7,116.2z"/>
<path class="st0" d="M343.6,117.3h-15.4v-15.8h15.4V117.3z M330.3,115.2h11.1v-11.4h-11.1V115.2z"/>
<path class="st0" d="M330.3,122.1h-7.2v-6.9h7.2V122.1z M325.3,119.9h2.8v-2.6h-2.8V119.9z"/>
<path class="st0" d="M341.7,134.1v-30.5h-30.5L328,85.4l31.7-0.1v31.8L341.7,134.1L341.7,134.1z M316.1,101.4h27.7v27.7l13.7-12.9
	V87.5l-28.6,0.1L316.1,101.4L316.1,101.4z"/>
<path class="st0" d="M161.6,99.1l-12.7-12.7l12.7-12.7l12.7,12.7L161.6,99.1z M152,86.4l9.6,9.7l9.6-9.7l-9.6-9.7L152,86.4z"/>
<path class="st0" d="M161.6,61.6l-12.7-12.7l12.7-12.7l12.7,12.7L161.6,61.6z M152,48.9l9.6,9.7l9.6-9.7l-9.6-9.7L152,48.9z"/>
<path class="st0" d="M15.4,99.1L2.8,86.4l12.7-12.7l12.7,12.7L15.4,99.1z M5.8,86.4l9.6,9.7l9.6-9.7l-9.6-9.7L5.8,86.4z"/>
<path class="st0" d="M15.4,61.6L2.8,48.9l12.7-12.7l12.7,12.7L15.4,61.6z M5.8,48.9l9.6,9.7l9.6-9.7l-9.6-9.7L5.8,48.9z"/>
<path class="st0" d="M306.2,99.1l-12.7-12.7l12.7-12.7l12.7,12.7L306.2,99.1z M296.6,86.4l9.6,9.7l9.6-9.7l-9.6-9.7L296.6,86.4z"/>
<path class="st0" d="M306.2,61.6l-12.7-12.7l12.7-12.7l12.7,12.7L306.2,61.6z M296.6,48.9l9.6,9.7l9.6-9.7l-9.6-9.7L296.6,48.9z"/>
<path class="st0" d="M451.3,99.1l-12.7-12.7l12.7-12.7L464,86.4L451.3,99.1z M441.7,86.4l9.6,9.7l9.6-9.7l-9.6-9.7L441.7,86.4z"/>
<path class="st0" d="M451.3,61.6l-12.7-12.7l12.7-12.7L464,48.9L451.3,61.6z M441.7,48.9l9.6,9.7l9.6-9.7l-9.6-9.7L441.7,48.9z"/>
</svg>
