<?xml version="1.0" encoding="UTF-8"?><svg id="_Слой_2" xmlns="http://www.w3.org/2000/svg" viewBox="0 0 1929 123.64"><defs><style>.cls-1{fill:#ffc132;}</style></defs><g id="_Слой_1-2"><g><path class="cls-1" d="m71.97,89.19l-30.12,34.46h5.39l-.04-.04,29-33.19,40.77.07,23.21,27.23h-.17l5.15,5.94h5.13l.12-.14-1.7-2h12.1l-31-31h2s0-.1,0-.1v-2.8l31.8,31.9v-11.63l1.4,1.23,1.7-1.49v12.29l31.5-31.4v2h2.8l-31.2,31.2h11.96l-1.66,1.9.04.04h5.4l5.06-5.84h-.13l23.93-27.4h40.7l28.3,33.2-.04.04h5.2l.04-.04-29.96-35.16,25.63-27.44h28.27l26.28,28.13-30.11,34.47.04.04h5.3l-.04-.04,29-33.19,40.77.07,23.21,27.23h-.17l5.15,5.94h5.21l.04-.04-.04-.05.04-.05-1.7-2h12.1l-31-31h2.1s0-2.8,0-2.8l31.7,31.8v-11.63l1.4,1.23,1.7-1.49v12.29l31.5-31.4v2h2.8l-31.2,31.2h11.96l-1.66,1.9.04.04h5.4l5.06-5.84h-.13l23.93-27.4h40.7l28.3,33.2-.04.04h5.2l.04-.04-29.96-35.16,25.63-27.44h27.87l26.28,28.13-30.11,34.47.04.04h5.3l-.04-.04,29-33.19,40.77.07,23.21,27.23h-.17l5.15,5.94h5.21l.04-.04-.04-.05.04-.05-1.7-2h12.1l-31-31h2.1s0-2.8,0-2.8l31.7,31.8v-11.63l1.4,1.23,1.7-1.49v12.29l31.5-31.4v2h2.8l-31.2,31.2h11.96l-1.66,1.9.04.04h5.4l5.06-5.84h-.13l23.93-27.4h40.7l28.3,33.2-.04.04h5.2l.04-.04-29.96-35.16,25.63-27.44h32.37l26.28,28.13-30.11,34.47.04.04h5.3l-.04-.04,29-33.19,40.77.07,23.21,27.23h-.17l5.15,5.94h5.21l.04-.04-.04-.05.04-.05-1.7-2h12.1l-31-31h2.1s0-2.8,0-2.8l31.7,31.8v-11.63l1.4,1.23,1.7-1.49v12.29l31.5-31.4v2h2.8l-31.2,31.2h12l-1.65,1.94h5.39l5.06-5.84h-.03l23.93-27.4h40.7l28.3,33.2-.04.04h5.2l.04-.04-29.96-35.16,25.63-27.44h25.97l26.28,28.13-30.16,34.51h5.39l-.04-.04,29-33.19,40.77.07,23.21,27.23h-.17l5.15,5.94h5.13l.12-.14-1.7-2h12.1l-31-31h2.1s0-2.8,0-2.8l31.7,31.8v-11.63l1.4,1.23,1.7-1.49v12.29l31.5-31.4v1.9h0v.1h2.8l-31.2,31.2h11.96l-1.66,1.9.04.04h5.4l5.06-5.84h-.13l23.93-27.4h40.7l28.3,33.2-.04.04h5.2l.04-.04-29.96-35.16,25.63-27.44h29.17l26.28,28.13-30.11,34.47.04.04h5.3l-.04-.04,29-33.19,40.77.07,23.21,27.23h-.07l4.3,4.96.8.94-.04.04h5.2l.04-.04-.04-.05.04-.05-1.7-2h12.1l-31-31h2.1s0-2.8,0-2.8l31.7,31.8v-11.7l.85.73.65.57,1.6-1.41v12.21l31.5-31.4v2h2.8l-31.2,31.2h12l-1.65,1.94h5.49l5.06-5.84h-.13l23.93-27.4h40.7l28.3,33.2-.04.04h5.2l.04-.04-29.96-35.16,25.63-27.44h25.97l26.28,28.13-30.11,34.47.04.04h5.3l-.04-.04,29-33.19,40.77.07,23.21,27.23h-.17l5.15,5.94h5.21l.04-.04-.04-.05.04-.05-1.7-2h12.1l-31-31h2.1s0-2.8,0-2.8l31.7,31.8v-11.63l1.4,1.23,1.7-1.49v12.29l31.5-31.4v2h2.8l-31.2,31.2h11.96l-1.66,1.9.04.04h5.4l5.06-5.84h-.13l23.93-27.4h40.7l28.3,33.2-.04.04h5.2l.04-.04-29.91-35.1,25.68-27.5h43.63v-4h-39.89l.09-.1h-31.5v-21.5h9.2v-12.7h-13.3v8.8h-20.9V.6h-.1l-31.49,29.51-35.11-30.11-35.06,30.06-31.44-29.46v30.9h-21.2v-8.8h-13.2v12.7h9.2v21.6h-49.79l.09-.1h-31.5v-21.5h9.3v-12.7h-13.3v8.8h-21V.6h-.1l-31.44,29.46-35.06-30.06-35.11,30.11-31.49-29.51v30.9h-21.2v-8.8h-13.2v12.7h9.3v21.6h-53.09l.09-.1h-31.4v-21.5h9.2v-12.7h-13.3v8.8h-21V.6h-.1l-31.44,29.46-35.06-30.06-35.06,30.06-31.44-29.46v30.9h-21.2v-8.8h-13.2v12.7h9.2v21.6h-49.79l.09-.1h-31.5v-21.5h9.3v-12.7h-13.3v8.8h-21V.6h-.1l-31.49,29.51L969.1,0l-35.06,30.06-31.44-29.46v30.9h-21.1v-8.8h-13.2v12.7h9.2v21.6h-56.29l.09-.1h-31.4v-21.5h9.2v-12.7h-13.3v8.8h-21V.6h-.1l-31.44,29.46L698.2,0l-35.06,30.06-31.44-29.46v30.9h-21.2v-8.8h-13.2v12.7h9.2v21.6h-51.69l.09-.1h-31.4v-21.5h9.3v-12.7h-13.3v8.8h-21.1V.6h-.1l-31.44,29.46L431.8,0l-35.06,30.06L365.3.6v30.9h-21.2v-8.8h-13.2v12.7h9.2v21.6h-52.09l.09-.1h-31.4v-21.5h9.2v-12.7h-13.3v8.8h-21.1V.6l-31.44,29.46L165,0l-35.11,30.11L98.5.6v30.9h-21.1v-8.8h-13.3v12.7h9.2v21.6H0v4h45.64l26.33,28.19ZM340.1,31.4h-5.2v-4.7h5.2v4.7Zm266.4,0h-5.2v-4.7h5.2v4.7Zm270.9,0h-5.2v-4.7h5.2v4.7Zm264.6,0h-5.2v-4.7h5.2v4.7Zm267.7,0h-5.2v-4.7h5.2v4.7Zm264.6,0h-5.2v-4.7h5.2v4.7Zm179.4,25.2h-20.6v-21.1h20.6v21.1Zm4-25.2v-4.7h5.3v4.7h-5.3Zm-54.5,55v-52.9h0l25.3-23.7v51.1h51.3l-23.7,25.4-52.9.1Zm4.71,3.99h2.21s-23.95,27.41-23.95,27.41h-5.67l27.41-27.41Zm-36.21,13.7l27.6-24.26v3.06l-27.6,27.51v-6.31Zm-38.8-24.09l27.7,24.35v5.65l-27.7-27.87v-2.12Zm0-46.39l33.1-28.41,33.2,28.5v40.9l-33.2,29.2-33.1-29.11v-41.07Zm-34,22.99h-20.6v-21.1h20.6v21.1Zm24.28,33.88h1.81s27.21,27.22,27.21,27.22h-5.83l-23.19-27.22Zm-70.89-29.48h5.41v-.1h45.8V9.8l25.3,23.7v52.9l-52.9-.1-23.61-25.3Zm-63.09-4.4h-20.6v-21.1h20.6v21.1Zm3.9-25.2v-4.7h5.3v4.7h-5.3Zm-54.4,55v-52.9h0l25.3-23.7v51.1h46.3v.1h4.91l-23.61,25.3-52.9.1Zm4.71,3.99h2.21s-23.95,27.41-23.95,27.41h-5.67l27.41-27.41Zm-36.21,13.7l27.5-24.17v3.07l-27.5,27.41v-6.31Zm-38.9-29.49v-40.9l33.2-28.5,33.2,28.5v40.9l-33.2,29.2-33.2-29.2Zm0,5.32l27.8,24.44v5.65l-27.8-27.98v-2.11Zm-33.9-23.32h-20.6v-21.1h20.6v21.1Zm24.18,33.88h1.91s27.21,27.22,27.21,27.22h-5.93l-23.19-27.22Zm-70.89-29.48h3.01v-.1h48.2V9.8l25.3,23.7v52.9l-52.9-.1-23.61-25.3Zm-66.29-4.4h-20.6v-21.1h20.6v21.1Zm4-25.2v-4.7h5.3v4.7h-5.3Zm-54.5,55v-52.9h0l25.3-23.7v51.1h47.1v.1h4.11l-23.61,25.3-52.9.1Zm4.71,3.99h2.21s-23.95,27.41-23.95,27.41h-5.67l27.41-27.41Zm-36.21,13.7l27.5-24.17v3.07l-27.5,27.41v-6.31Zm-38.8-24.09l27.7,24.35v5.65l-27.7-27.87v-2.12Zm0-46.39l33.1-28.41,33.2,28.5v40.9l-33.2,29.2-33.1-29.11v-41.07Zm-34,22.99h-20.6v-21.1h20.6v21.1Zm24.26,33.88h1.83s27.21,27.22,27.21,27.22h-5.98l-23.06-27.22Zm-70.97-29.48h10.31v-.1h40.9V9.8l25.3,23.7v52.9l-52.9-.1-23.61-25.3Zm-63.09-4.4h-20.6v-21.1h20.6v21.1Zm4-25.2v-4.7h5.3v4.7h-5.3Zm-54.5,55v-7.4h0s0-45.5,0-45.5h0l25.3-23.7v51.1h51.2v.1h0l-23.61,25.3-52.9.1Zm4.71,3.99h2.31s-23.95,27.41-23.95,27.41h-5.77l27.41-27.41Zm-36.21,13.7l27.6-24.26v3.06l-27.6,27.51v-6.31Zm-38.8-24.09l27.7,24.35v5.65l-27.7-27.87v-2.12Zm0-46.39l33.1-28.41,33.2,28.5v40.9l-33.2,29.2-33.1-29.11v-41.07Zm-33.9,22.99h-20.6v-21.1h20.6v21.1Zm24.18,33.88h1.81s27.21,27.22,27.21,27.22h-5.83l-23.19-27.22Zm-70.89-29.48h6.01v-.1h45.2V9.8l25.3,23.7v52.9l-52.9-.1-23.61-25.3Zm-69.49-4.4h-20.6v-21.1h20.6v21.1Zm4-25.2v-4.7h5.3v4.7h-5.3Zm-54.5,55v-7.4h0s0-2.6,0-2.6h0v-42.9l25.3-23.7v51.1h51.3l-23.7,25.4-52.9.1Zm4.71,3.99h2.21s-23.95,27.41-23.95,27.41h-5.67l27.41-27.41Zm-36.21,13.7l27.5-24.17v3.07l-27.5,27.41v-6.31Zm-38.8-24.09l27.7,24.35v5.65l-27.7-27.87v-2.12Zm0-46.39l33.1-28.41,33.2,28.5v40.9l-33.2,29.2-33.1-29.11v-41.07Zm-34,22.99h-20.6v-21.1h20.6v21.1Zm24.28,33.88h1.81s27.21,27.22,27.21,27.22h-5.83l-23.19-27.22Zm-70.99-29.48h5.31v-.1h45.9V9.8l25.3,23.7v52.9l-52.9-.1-23.61-25.3Zm-64.89-4.4h-20.6v-21.1h20.6v21.1Zm4-25.2v-4.7h5.3v4.7h-5.3Zm-54.5,55v-52.9l25.3-23.7v51.1h48v.1h3.21l-23.61,25.3-52.9.1Zm4.71,3.99h2.21s-23.95,27.41-23.95,27.41h-5.67l27.41-27.41Zm-36.21,13.7l27.5-24.17v3.07l-27.5,27.41v-6.31Zm-38.8-24.09l27.7,24.35v5.65l-27.7-27.87v-2.12Zm0-46.39l33.1-28.41,33.2,28.5v40.9l-33.2,29.2-33.1-29.11v-41.07Zm-34,22.99h-20.6v-21.1h20.6v21.1Zm24.28,33.88h1.81s27.21,27.22,27.21,27.22h-5.83l-23.19-27.22Zm-70.99-29.48h4.31v-.1h46.9V9.8l25.3,23.7v52.9l-52.9-.1-23.61-25.3Zm-65.29-4.4h-20.6v-21.1h20.6v21.1Zm4-25.2v-4.7h5.3v4.7h-5.3Zm-54.5,55v-52.9l25.3-23.7v51.1h47.4v.1h3.81l-23.61,25.3-52.9.1Zm4.71,3.99h2.21s-23.95,27.41-23.95,27.41h-5.67l27.41-27.41Zm-36.21,13.7l27.5-24.17v3.07l-27.5,27.41v-6.31Zm-38.9-24.17l27.8,24.44v5.65l-27.8-27.97v-2.11Zm0-46.22l33.2-28.5,33.2,28.5v40.9l-33.2,29.2-33.2-29.2v-40.9Zm-58.4-2.3h-5.3v-4.7h5.3v4.7Zm24.5,25.2h-20.6v-21.1h20.6v21.1Zm24.26,33.88h1.83s27.21,27.22,27.21,27.22h-5.98l-23.06-27.22Zm-47.26-4.18l-23.8-25.4h51.4V9.8l25.3,23.7v52.9l-52.9-.1Z"/><path class="cls-1" d="m165.3,24.7l-20.5,17.5v24.2l20.5,18,20.5-18v-24.2l-20.5-17.5Zm-16.5,19.3l16.5-14.1,16.5,14.1v20.6l-16.5,14.5-16.5-14.5v-20.6Z"/><polygon class="cls-1" points="222.8 102.9 247 102.9 264.5 123.6 264.46 123.64 259.16 123.64 259.2 123.6 245.1 106.9 224.5 106.9 210 123.6 210.04 123.64 204.84 123.64 204.8 123.6 222.8 102.9"/><polygon class="cls-1" points="108.2 103.4 125.48 123.64 120.28 123.64 106.4 107.4 85.8 107.4 71.53 123.64 66.23 123.64 84 103.4 108.2 103.4"/><path class="cls-1" d="m432.1,24.7l-20.5,17.5v24.2l20.5,18,20.5-18v-24.2l-20.5-17.5Zm-16.5,19.3l16.5-14.1,16.5,14.1v20.6l-16.5,14.5-16.5-14.5v-20.6Z"/><polygon class="cls-1" points="489.5 102.9 513.8 102.9 531.2 123.6 531.16 123.64 526.06 123.64 526.1 123.6 512 106.9 491.4 106.9 476.9 123.6 476.94 123.64 471.54 123.64 471.5 123.6 489.5 102.9"/><polygon class="cls-1" points="375 103.4 392.28 123.64 387.08 123.64 373.2 107.4 352.6 107.4 338.33 123.64 333.03 123.64 350.8 103.4 375 103.4"/><path class="cls-1" d="m698.5,24.7l-20.5,17.5v24.2l20.5,18,20.5-18v-24.2l-20.5-17.5Zm-16.5,19.3l16.5-14.1,16.5,14.1v20.6l-16.5,14.5-16.5-14.5v-20.6Z"/><polygon class="cls-1" points="756 102.9 780.2 102.9 797.7 123.6 797.66 123.64 792.46 123.64 792.5 123.6 778.4 106.9 757.8 106.9 743.3 123.6 743.34 123.64 738.04 123.64 738 123.6 756 102.9"/><polygon class="cls-1" points="641.4 103.4 658.68 123.64 653.48 123.64 639.6 107.4 619 107.4 604.73 123.64 599.43 123.64 617.2 103.4 641.4 103.4"/><path class="cls-1" d="m969.4,24.7l-20.5,17.5v24.2l20.5,18,20.5-18v-24.2l-20.5-17.5Zm-16.5,19.3l16.5-14.1,16.5,14.1v20.6l-16.5,14.5-16.5-14.5v-20.6Z"/><polygon class="cls-1" points="1026.9 102.9 1051.1 102.9 1068.6 123.6 1068.56 123.64 1063.36 123.64 1063.4 123.6 1049.3 106.9 1028.7 106.9 1014.2 123.6 1014.24 123.64 1008.94 123.64 1008.9 123.6 1026.9 102.9"/><polygon class="cls-1" points="912.4 103.4 929.68 123.64 924.38 123.64 910.5 107.4 889.9 107.4 875.63 123.64 870.43 123.64 888.2 103.4 912.4 103.4"/><path class="cls-1" d="m1234,24.7l-20.5,17.5v24.2l20.5,18,20.5-18v-24.2l-20.5-17.5Zm-16.5,19.3l16.5-14.1,16.5,14.1v20.6l-16.5,14.5-16.5-14.5v-20.6Z"/><polygon class="cls-1" points="1291.5 102.9 1315.7 102.9 1333.2 123.6 1333.16 123.64 1327.96 123.64 1328 123.6 1313.9 106.9 1293.3 106.9 1278.8 123.6 1278.84 123.64 1273.54 123.64 1273.5 123.6 1291.5 102.9"/><polygon class="cls-1" points="1176.9 103.4 1194.18 123.64 1188.98 123.64 1175.1 107.4 1154.5 107.4 1140.23 123.64 1134.93 123.64 1152.7 103.4 1176.9 103.4"/><path class="cls-1" d="m1501.7,24.7l-20.5,17.5v24.2l20.5,18,20.5-18v-24.2l-20.5-17.5Zm-16.5,19.3l16.5-14.1,16.5,14.1v20.6l-16.5,14.5-16.5-14.5v-20.6Z"/><polygon class="cls-1" points="1559.2 102.9 1583.4 102.9 1600.9 123.6 1600.86 123.64 1595.66 123.64 1595.7 123.6 1581.6 106.9 1561 106.9 1546.5 123.6 1546.54 123.64 1541.24 123.64 1541.2 123.6 1559.2 102.9"/><polygon class="cls-1" points="1444.7 103.4 1461.98 123.64 1456.68 123.64 1442.8 107.4 1422.2 107.4 1407.93 123.64 1402.73 123.64 1420.5 103.4 1444.7 103.4"/><path class="cls-1" d="m1766.3,24.7l-20.5,17.5v24.2l20.5,18,20.5-18v-24.2l-20.5-17.5Zm-16.5,19.3l16.5-14.1,16.5,14.1v20.6l-16.5,14.5-16.5-14.5v-20.6Z"/><polygon class="cls-1" points="1823.8 102.9 1848 102.9 1865.5 123.6 1865.46 123.64 1860.26 123.64 1860.3 123.6 1846.2 106.9 1825.6 106.9 1811.1 123.6 1811.14 123.64 1805.84 123.64 1805.8 123.6 1823.8 102.9"/><polygon class="cls-1" points="1709.2 103.4 1726.48 123.64 1721.28 123.64 1707.4 107.4 1686.8 107.4 1672.53 123.64 1667.23 123.64 1685 103.4 1709.2 103.4"/><path class="cls-1" d="m274.8,88.6l23.5,23.5,23.5-23.5-23.5-23.5-23.5,23.5Zm23.4,17.8l-17.8-17.8,17.8-17.8,17.8,17.8-17.8,17.8Z"/><path class="cls-1" d="m27.7,65.1l-23.5,23.5,23.5,23.5,23.5-23.5-23.5-23.5Zm-.1,5.7l17.9,17.8-17.8,17.8-17.9-17.8,17.8-17.8Z"/><path class="cls-1" d="m542.5,88.6l23.5,23.5,23.5-23.5-23.5-23.5-23.5,23.5Zm23.5,17.8l-17.8-17.8,17.8-17.8,17.8,17.8-17.8,17.8Z"/><path class="cls-1" d="m811.2,88.6l23.5,23.5,23.5-23.5-23.5-23.5-23.5,23.5Zm23.4,17.8l-17.8-17.8,17.8-17.8,17.8,17.8-17.8,17.8Z"/><path class="cls-1" d="m1078.6,88.6l23.5,23.5,23.5-23.5-23.5-23.5-23.5,23.5Zm5.7,0l17.8-17.8,17.8,17.8-17.8,17.8-17.8-17.8Z"/><path class="cls-1" d="m1345,88.6l23.5,23.5,23.5-23.5-23.5-23.5-23.5,23.5Zm23.5,17.8l-17.8-17.8,17.8-17.8,17.8,17.8-17.8,17.8Z"/><path class="cls-1" d="m1610.5,88.6l23.5,23.5,23.5-23.5-23.5-23.5-23.5,23.5Zm23.5,17.8l-17.8-17.8,17.8-17.8,17.8,17.8-17.8,17.8Z"/><path class="cls-1" d="m1902.3,112.1l23.5-23.5-23.5-23.5-23.5,23.5,23.5,23.5Zm17.8-23.5l-17.8,17.8-17.8-17.8,17.8-17.8,17.8,17.8Z"/></g></g></svg>